<?xml version="1.0" encoding="UTF-8"?>
<svg xmlns="http://www.w3.org/2000/svg" version="1.1" xmlns:xlink="http://www.w3.org/1999/xlink" viewBox="0 0 1179.26 886.81">
  <!-- Generator: Adobe Illustrator 30.5.1, SVG Export Plug-In . SVG Version: 2.1.4 Build 3)  -->
  <defs>
    <style>
      .st0 {
        font-size: 35.66px;
      }

      .st1 {
        font-size: 34.16px;
      }

      .st1, .st2 {
        font-family: GamtanRoad-Tantan-KSCpc-EUC-H, 'GamtanRoad Tantan';
      }

      .st1, .st2, .st3, .st4, .st5, .st6, .st7 {
        fill: #063065;
      }

      .st2 {
        font-size: 28px;
      }

      .st8 {
        fill: #0091f8;
      }

      .st3 {
        font-size: 10.96px;
      }

      .st3, .st4, .st5, .st9, .st7 {
        font-family: HelveticaLTPro-Light, 'Helvetica LT Pro';
        font-weight: 300;
      }

      .st10 {
        font-family: ApparatSemiCond-Bold, ApparatSemiCond;
        font-weight: 700;
      }

      .st10, .st11, .st12 {
        fill: #fff;
      }

      .st13 {
        fill: #0592f8;
      }

      .st4 {
        font-size: 12.51px;
      }

      .st5 {
        font-size: 19px;
      }

      .st9 {
        font-size: 13.92px;
      }

      .st9, .st14 {
        fill: #2afffc;
      }

      .st15 {
        font-size: 28.49px;
      }

      .st12 {
        font-family: ApparatSemiCond-Regular, ApparatSemiCond;
        font-size: 7.95px;
      }

      .st16 {
        display: none;
      }

      .st7 {
        font-size: 11.25px;
      }
    </style>
    <path id="path" d="M658.7,151.24c0,57.14,46.32,103.47,103.47,103.47s103.47-46.32,103.47-103.47"/>
    <path id="path1" d="M671.33,145.95c0-48.38,40.7-87.59,90.9-87.59s90.9,39.22,90.9,87.59"/>
  </defs>
  <g id="Layer_1" class="st16">
    <rect class="st6" x="439.07" y="511.12" width="149.67" height="149.67" rx="30.31" ry="30.31"/>
    <path class="st6" d="M18.14,522.18c-4.7-8.75-7.13-18.78-6.17-28.76.58-5.9,4.12-13,11.02-12.83,2.42.06,4.57.86,6.49,1.91-2.21-.02-4.33,0-6.19.53-5.98,1.71-6.35,8.63-6.55,13.91-.14,8.36,1.06,16.73,1.41,25.24h0Z"/>
    <path class="st6" d="M11.91,522.18c-1.04-8.36-.96-16.67-1.44-24.95-.11-2.02-.27-4.03-.53-5.97-.43-2.5-.66-5.32-2.48-6.81-1.31-.75-3.34.25-4.74.96-.92.47-1.79,1.06-2.72,1.62.53-.94,1.12-1.85,1.84-2.69,6.14-7.13,11.5-.97,12.76,6.08,1.99,10.62.79,21.6-2.7,31.76h0Z"/>
    <path class="st6" d="M3.4,501.95c-.87-6.83,2.45-15,9.54-17.24,4.33-1.35,9.22,1.08,11.43,4.59-2.66-.54-5.06-1.02-7.12-.82-6.82.78-9.88,8.44-13.86,13.47h0Z"/>
    <g>
      <path class="st6" d="M243.76,428.52c-6.35-5.42-1.39-15.87,6.8-14.24,7.76,1.54,17.43.98,29.21-3.8,10.1-4.1,19.33-6.87,27.47-8.74,5.79-1.33,9.04,6.46,4.01,9.62-5.09,3.2-10.39,7.19-15.6,12.15-15.92,15.16-36.15,18.41-51.88,5Z"/>
      <path class="st8" d="M349.87,414.22c1.24-2.53-.36-5.55-3.14-5.95-7.01-1-20.21-.72-35.48,10.34-18.02,13.06-20.65,26.84-39.17,31.95-4.26,1.17-4.06,7.3.28,8.15,20.77,4.06,54.65,1.87,77.51-44.5Z"/>
      <circle class="st8" cx="316.8" cy="378.16" r="12.76"/>
      <g>
        <path class="st6" d="M268.99,373.21c.22-1.86-2.41-2.48-3.02-.71-6.69,19.25-16.04,50.48-6.56,51.2,12.41.94,5.64-16.55,9.58-50.5Z"/>
        <path class="st6" d="M294.21,368.25c-3.2-3.13-8.53-6.01-17.36-6.14,0,0,5.21-3.95,10.88-6.3,2.49-1.03,1.81-4.77-.88-4.8-3.4-.04-7.65,1.18-12.4,5.24.64-3.17.55-7.22-1.78-11.58-1.28-2.4-4.93-1.27-4.68,1.44.28,2.94.4,6.23.11,9.25-1.77-3.01-4.95-6.5-10.58-8-2.63-.7-4.29,2.74-2.14,4.4,3.28,2.53,6.88,5.75,8.99,9.03,0,0-10.85-5.05-20.23,1.2-2.21,1.47-.82,4.94,1.8,4.52,3.72-.6,8.63-.94,14.53-.38,0,0-5.05,2.72-8.43,7.96-1.66,2.57,1.9,5.28,3.95,3.02,2.93-3.25,7.01-6.61,12.54-9.06,0,0,7.38,6.8,11.27,14.46,1.25,2.46,5.02,1.31,4.69-1.42-.45-3.77-2.27-8.2-6.87-12.8,0,0,7.04,1.18,13.86,4,2.52,1.04,4.67-2.15,2.73-4.05Z"/>
      </g>
    </g>
    <text class="st1" transform="translate(342.24 29.32) scale(1.04 1)"><tspan x="0" y="0">beevaa </tspan><tspan x="0" y="40.99">maldives</tspan></text>
    <text class="st4" transform="translate(345 87.89)"><tspan x="0" y="0">your journey to tropical paradise</tspan></text>
    <g>
      <path class="st6" d="M221.35,161.88h3.23v-31.59h-3.23v-.84h16.79c1.99,0,3.73.33,5.24.99,1.51.66,2.68,1.58,3.53,2.76.84,1.18,1.27,2.54,1.27,4.1,0,2.25-.94,4.12-2.83,5.61-1.89,1.49-4.44,2.4-7.65,2.73l.3-.35c3.88.33,6.81,1.23,8.79,2.71,1.99,1.47,2.98,3.42,2.98,5.84,0,1.72-.46,3.26-1.39,4.62-.93,1.36-2.21,2.41-3.85,3.15-1.64.75-3.5,1.12-5.59,1.12h-17.59v-.84ZM240.13,159.81c1.09-1.37,1.64-3.34,1.64-5.89,0-1.69-.25-3.13-.75-4.32-.5-1.19-1.21-2.09-2.14-2.71-.93-.61-2.07-.92-3.43-.92h-4.37v-.79h4.17c1.16,0,2.12-.28,2.88-.84.76-.56,1.33-1.38,1.71-2.46.38-1.08.57-2.41.57-4,0-2.42-.45-4.29-1.34-5.61-.89-1.32-2.19-1.99-3.88-1.99h-3.03v31.59h3.38c1.95,0,3.48-.69,4.57-2.06Z"/>
      <path class="st6" d="M260.62,161.85c-1.67-1.08-2.99-2.55-3.95-4.42-.96-1.87-1.44-3.98-1.44-6.33s.48-4.55,1.44-6.51c.96-1.95,2.29-3.49,3.97-4.6,1.69-1.11,3.54-1.66,5.56-1.66,1.85,0,3.53.41,5.02,1.24,1.49.83,2.67,1.95,3.53,3.35.86,1.41,1.29,3.01,1.29,4.79,0,.5-.05.81-.15.94h-13.81l-.05-.75h7.65l-.4.5c.03-3.11-.24-5.45-.82-7-.58-1.56-1.38-2.33-2.41-2.33-1.16,0-2.03.89-2.61,2.68-.58,1.79-.87,4.24-.87,7.35,0,2.42.28,4.48.84,6.19.56,1.71,1.36,2.98,2.38,3.83,1.03.84,2.22,1.27,3.58,1.27,1.62,0,2.94-.5,3.95-1.49,1.01-.99,1.65-2.57,1.91-4.72l.75.2c-.13,1.69-.65,3.24-1.54,4.64-.89,1.41-2.06,2.5-3.5,3.28-1.44.78-3.06,1.17-4.84,1.17-1.99,0-3.82-.54-5.49-1.61Z"/>
      <path class="st6" d="M286.85,161.85c-1.67-1.08-2.99-2.55-3.95-4.42-.96-1.87-1.44-3.98-1.44-6.33s.48-4.55,1.44-6.51c.96-1.95,2.29-3.49,3.97-4.6,1.69-1.11,3.54-1.66,5.56-1.66,1.85,0,3.53.41,5.02,1.24,1.49.83,2.67,1.95,3.53,3.35.86,1.41,1.29,3.01,1.29,4.79,0,.5-.05.81-.15.94h-13.81l-.05-.75h7.65l-.4.5c.03-3.11-.24-5.45-.82-7-.58-1.56-1.38-2.33-2.41-2.33-1.16,0-2.03.89-2.61,2.68-.58,1.79-.87,4.24-.87,7.35,0,2.42.28,4.48.84,6.19.56,1.71,1.36,2.98,2.38,3.83,1.03.84,2.22,1.27,3.58,1.27,1.62,0,2.94-.5,3.95-1.49,1.01-.99,1.65-2.57,1.91-4.72l.75.2c-.13,1.69-.65,3.24-1.54,4.64-.89,1.41-2.06,2.5-3.5,3.28-1.44.78-3.06,1.17-4.84,1.17-1.99,0-3.82-.54-5.49-1.61Z"/>
      <path class="st6" d="M307.24,139.77h-1.89v-.75h11.82v.75h-2.93l5.61,15.8h-.4l5.86-15.8h-3.33v-.75h6.11v.75h-1.79l-8.94,23.3h-1.34l-8.79-23.3Z"/>
      <path class="st6" d="M345.44,162.05c-.83-.75-1.26-1.8-1.29-3.15l-.2-.1v-15.55c0-1.32-.28-2.33-.84-3.01-.56-.68-1.49-1.02-2.78-1.02-1.09,0-2.17.22-3.23.65-1.06.43-1.9.96-2.53,1.59l.5-1.04,2.78,5.12c-.23.63-.65,1.14-1.27,1.54-.61.4-1.32.6-2.11.6s-1.53-.27-2.11-.82c-.58-.55-.87-1.28-.87-2.21,0-.99.45-1.99,1.34-2.98.89-.99,2.14-1.8,3.73-2.41,1.59-.61,3.33-.92,5.22-.92,2.65,0,4.79.65,6.43,1.96,1.64,1.31,2.46,3.12,2.46,5.44v14.31c0,.43.07.74.22.92.15.18.34.27.57.27.4,0,.77-.25,1.12-.75.35-.5.6-1.16.77-1.99l.65.35c-.23,1.29-.83,2.33-1.79,3.13-.96.79-2.17,1.19-3.63,1.19-1.26,0-2.3-.37-3.13-1.12ZM334.74,162.42c-.98-.5-1.76-1.21-2.36-2.14-.6-.93-.89-1.99-.89-3.18,0-2.05.91-3.69,2.73-4.92,1.82-1.22,3.99-1.94,6.51-2.14l4.02-.35-.05.7-3.08.3c-1.19.13-2.1.58-2.73,1.34-.63.76-.94,1.94-.94,3.53,0,1.76.24,3.09.72,4,.48.91,1.18,1.37,2.11,1.37.6,0,1.13-.17,1.61-.5.48-.33.86-.76,1.14-1.29.28-.53.42-1.04.42-1.54l.45,1.39c-.17.66-.56,1.32-1.19,1.96-.63.65-1.4,1.18-2.31,1.59-.91.41-1.9.62-2.96.62-1.16,0-2.23-.25-3.2-.75Z"/>
      <path class="st6" d="M372.37,162.05c-.83-.75-1.26-1.8-1.29-3.15l-.2-.1v-15.55c0-1.32-.28-2.33-.84-3.01-.56-.68-1.49-1.02-2.78-1.02-1.09,0-2.17.22-3.23.65-1.06.43-1.9.96-2.53,1.59l.5-1.04,2.78,5.12c-.23.63-.65,1.14-1.27,1.54-.61.4-1.32.6-2.11.6s-1.53-.27-2.11-.82c-.58-.55-.87-1.28-.87-2.21,0-.99.45-1.99,1.34-2.98.89-.99,2.14-1.8,3.73-2.41,1.59-.61,3.33-.92,5.22-.92,2.65,0,4.79.65,6.43,1.96,1.64,1.31,2.46,3.12,2.46,5.44v14.31c0,.43.07.74.22.92.15.18.34.27.57.27.4,0,.77-.25,1.12-.75.35-.5.6-1.16.77-1.99l.65.35c-.23,1.29-.83,2.33-1.79,3.13-.96.79-2.17,1.19-3.63,1.19-1.26,0-2.3-.37-3.13-1.12ZM361.66,162.42c-.98-.5-1.76-1.21-2.36-2.14-.6-.93-.89-1.99-.89-3.18,0-2.05.91-3.69,2.73-4.92,1.82-1.22,3.99-1.94,6.51-2.14l4.02-.35-.05.7-3.08.3c-1.19.13-2.1.58-2.73,1.34-.63.76-.94,1.94-.94,3.53,0,1.76.24,3.09.72,4,.48.91,1.18,1.37,2.11,1.37.6,0,1.13-.17,1.61-.5.48-.33.86-.76,1.14-1.29.28-.53.42-1.04.42-1.54l.45,1.39c-.17.66-.56,1.32-1.19,1.96-.63.65-1.4,1.18-2.31,1.59-.91.41-1.9.62-2.96.62-1.16,0-2.23-.25-3.2-.75Z"/>
      <path class="st6" d="M220.76,201.69h1.98v-18.05h-1.98v-.61h7.43l-.12,2.18.12-.08v16.56h1.66v.61h-9.09v-.61ZM231.7,201.69h1.58v-14.54c0-.92-.23-1.61-.69-2.08-.46-.47-1.06-.71-1.82-.71-.48,0-1,.12-1.55.36-.55.24-1.08.57-1.6.97v-.2c.78-.92,1.67-1.65,2.67-2.2,1-.55,2.01-.83,3.03-.83,1.62,0,2.92.48,3.92,1.43,1,.96,1.49,2.27,1.49,3.94v13.85h1.57v.61h-8.6v-.61ZM242.12,201.69h1.58v-14.3c0-.92-.22-1.65-.65-2.2-.43-.55-1.05-.83-1.86-.83-.57,0-1.17.13-1.8.4-.63.27-1.23.62-1.8,1.05v-.2c.83-.97,1.76-1.74,2.79-2.3,1.02-.56,2.1-.85,3.23-.85,1.05,0,2,.26,2.85.77.85.51,1.51,1.21,1.98,2.1.47.89.71,1.95.71,3.19v13.17h2.02v.61h-9.05v-.61Z"/>
      <path class="st6" d="M266.51,201.76c-.67-.61-1.02-1.46-1.05-2.56l-.16-.08v-12.64c0-1.08-.23-1.89-.69-2.44-.46-.55-1.21-.83-2.26-.83-.89,0-1.76.18-2.62.53-.86.35-1.55.78-2.06,1.29l.4-.85,2.26,4.16c-.19.51-.53.93-1.03,1.25-.5.32-1.07.48-1.72.48s-1.25-.22-1.72-.67c-.47-.44-.71-1.04-.71-1.8,0-.81.36-1.62,1.09-2.42s1.74-1.46,3.03-1.96c1.29-.5,2.71-.75,4.24-.75,2.15,0,3.9.53,5.23,1.6,1.33,1.06,2,2.54,2,4.42v11.63c0,.35.06.6.18.75.12.15.28.22.46.22.32,0,.63-.2.91-.61s.49-.94.63-1.62l.52.28c-.19,1.05-.67,1.9-1.45,2.54-.78.65-1.76.97-2.95.97-1.02,0-1.87-.3-2.54-.91ZM257.81,202.06c-.79-.4-1.43-.98-1.92-1.74-.48-.75-.73-1.62-.73-2.58,0-1.67.74-3,2.22-4,1.48-1,3.24-1.58,5.29-1.74l3.27-.28-.04.57-2.5.24c-.97.11-1.71.47-2.22,1.09-.51.62-.77,1.58-.77,2.87,0,1.43.19,2.51.59,3.25.39.74.96,1.11,1.72,1.11.48,0,.92-.13,1.31-.4.39-.27.7-.62.93-1.05.23-.43.34-.85.34-1.25l.36,1.13c-.13.54-.46,1.07-.97,1.6-.51.52-1.14.96-1.88,1.29-.74.34-1.54.5-2.4.5-.94,0-1.81-.2-2.6-.61Z"/>
      <path class="st6" d="M276.04,201.69h3.11v-28.31h-3.11v-.61h8.84l-.28,1.74v27.18h3.15v.61h-11.71v-.61Z"/>
      <path class="st6" d="M294.46,201.65c-1.08-.83-1.92-2.01-2.52-3.51-.61-1.51-.91-3.3-.91-5.37s.38-3.96,1.13-5.51c.75-1.55,1.77-2.73,3.05-3.55,1.28-.82,2.65-1.23,4.1-1.23,1.08,0,2.02.24,2.83.73.81.48,1.47,1.17,1.98,2.06l-.81,3.23c0-1.1-.13-2.04-.38-2.81-.26-.77-.61-1.35-1.05-1.76s-.96-.61-1.55-.61c-.67,0-1.25.29-1.72.87-.47.58-.85,1.53-1.13,2.87-.28,1.33-.42,3.13-.42,5.39,0,2.07.13,3.73.4,4.97.27,1.24.67,2.13,1.19,2.69.52.55,1.16.83,1.92.83.59,0,1.17-.18,1.74-.55.57-.36,1.06-.84,1.49-1.43v.44c-.62,1.08-1.44,1.93-2.46,2.56-1.02.63-2.13.95-3.31.95-1.29,0-2.48-.42-3.55-1.25ZM303.5,199.59l-.2.16v-26.41h-2.42v-.57h8.16l-.28,1.74v27.18h2.02v.61h-7.47l.2-2.71Z"/>
      <path class="st6" d="M314.21,201.69h3.11v-18.05h-3.11v-.61h8.84l-.24,1.74v16.92h3.11v.61h-11.71v-.61ZM318.02,178.86c-.55-.5-.83-1.1-.83-1.8s.28-1.3.83-1.8c.55-.5,1.23-.75,2.04-.75s1.53.25,2.08.75c.55.5.83,1.08.83,1.76,0,.73-.28,1.34-.83,1.84-.55.5-1.25.75-2.08.75s-1.49-.25-2.04-.75Z"/>
      <path class="st6" d="M329.07,183.64h-1.53v-.61h9.61v.61h-2.38l4.56,12.84h-.32l4.77-12.84h-2.71v-.61h4.97v.61h-1.45l-7.27,18.94h-1.09l-7.15-18.94Z"/>
      <path class="st6" d="M352.63,201.59c-1.36-.88-2.43-2.07-3.21-3.59-.78-1.52-1.17-3.24-1.17-5.15s.39-3.7,1.17-5.29c.78-1.59,1.86-2.83,3.23-3.74,1.37-.9,2.88-1.35,4.52-1.35,1.51,0,2.87.34,4.08,1.01,1.21.67,2.17,1.58,2.87,2.73.7,1.14,1.05,2.44,1.05,3.9,0,.4-.04.66-.12.77h-11.23l-.04-.61h6.22l-.32.4c.03-2.53-.2-4.43-.67-5.69-.47-1.27-1.12-1.9-1.96-1.9-.94,0-1.65.73-2.12,2.18-.47,1.45-.71,3.45-.71,5.98,0,1.97.23,3.64.69,5.03.46,1.39,1.1,2.42,1.94,3.11.83.69,1.8,1.03,2.91,1.03,1.32,0,2.39-.4,3.21-1.21.82-.81,1.34-2.09,1.56-3.84l.61.16c-.11,1.37-.52,2.63-1.25,3.78-.73,1.14-1.68,2.03-2.85,2.67-1.17.63-2.48.95-3.94.95-1.62,0-3.1-.44-4.46-1.31Z"/>
      <path class="st6" d="M373.09,202.48c-1.13-.31-2.09-.71-2.87-1.19l.2-2.14.32,3.59h-.69l-.4-6.83.61-.12c.19,1.97.85,3.54,2,4.73,1.14,1.19,2.59,1.78,4.34,1.78,1.24,0,2.25-.32,3.03-.95.78-.63,1.17-1.43,1.17-2.4,0-.86-.23-1.56-.69-2.1-.46-.54-1.13-.96-2.02-1.25l-3.39-1.13c-1.43-.46-2.52-1.21-3.29-2.26-.77-1.05-1.15-2.22-1.15-3.51,0-1.18.28-2.26.85-3.23.56-.97,1.38-1.72,2.44-2.26,1.06-.54,2.28-.81,3.65-.81.91,0,1.87.14,2.87.42s1.86.65,2.58,1.11l-.32,2.14-.08-3.68h.69v6.34l-.61.04c-.11-1.18-.4-2.2-.87-3.05s-1.08-1.51-1.84-1.98c-.76-.47-1.6-.71-2.54-.71-1.05,0-1.87.28-2.46.85-.59.57-.89,1.29-.89,2.18,0,.7.18,1.31.54,1.84s.95.94,1.76,1.23l3.55,1.13c1.54.51,2.71,1.29,3.53,2.34.82,1.05,1.23,2.28,1.23,3.67,0,1.24-.33,2.38-.99,3.41-.66,1.04-1.6,1.84-2.81,2.4-1.21.57-2.6.85-4.16.85-1.08,0-2.18-.16-3.31-.46Z"/>
    </g>
    <text class="st7" transform="translate(222.18 224.41)"><tspan x="0" y="0">your journey to tropical paradise</tspan></text>
    <g>
      <path class="st11" d="M467.96,525.83c4.95,0,7.75,2.94,7.75,6.63,0,2.19-.68,4.09-3.16,5.24,2.44.86,3.98,2.9,3.98,6.24,0,1.9-.68,3.73-2.19,5.27-1.4,1.43-3.16,2.37-7.71,2.37h-11.37v-15.91c0-5.43,4.4-9.84,9.84-9.84h2.86ZM466.81,535.9c1.9,0,3.73-.65,3.73-2.87s-1.79-2.76-3.91-2.76h-.57c-3.11,0-5.63,2.52-5.63,5.63h0s6.38,0,6.38,0ZM467.07,547.13c2.44,0,4.09-1.04,4.09-3.77,0-1.9-1.43-3.12-3.91-3.12h-6.81v6.88h6.63Z"/>
      <path class="st11" d="M498.22,543.4h-13.09c.18,3.12,1.65,4.66,4.48,4.66,1.4,0,2.83-.68,3.23-2.08h5.16c-1.11,3.87-4.27,6.1-8.39,6.1-6.31,0-9.5-3.55-9.5-10.4,0-5.63,3.19-9.68,9.11-9.68,4.77,0,9,2.73,9,10.51v.9ZM493.06,540.13c-.25-2.51-1.72-4.02-3.91-4.02-2.29,0-3.59,1.4-3.87,4.02h7.78Z"/>
      <path class="st11" d="M518.16,543.4h-13.09c.18,3.12,1.65,4.66,4.48,4.66,1.4,0,2.83-.68,3.23-2.08h5.16c-1.11,3.87-4.27,6.1-8.39,6.1-6.31,0-9.5-3.55-9.5-10.4,0-5.63,3.19-9.68,9.11-9.68,4.77,0,9,2.73,9,10.51v.9ZM513,540.13c-.25-2.51-1.72-4.02-3.91-4.02-2.29,0-3.59,1.4-3.87,4.02h7.78Z"/>
      <path class="st11" d="M524.69,532.5l3.95,14.06h.07l4.05-14.06h5.34l-6.88,19.08h-5.27l-6.85-19.08h5.59Z"/>
      <path class="st11" d="M555.63,548.02c0,1.86.39,2.51,1.11,2.8v.75h-5.42c-.25-.75-.43-1.43-.47-2.26-1.83,1.97-3.73,2.76-6.17,2.76-3.48,0-5.81-2.15-5.81-5.56,0-2.47.9-5.42,5.99-6.17l3.59-.54c1.86-.29,2.26-.65,2.26-1.61,0-1.33-.82-2.19-3.3-2.19-1.86,0-2.9.82-3.08,2.65h-4.84c.39-4.02,2.29-6.67,8.39-6.67,4.91,0,7.75,2.08,7.75,5.38v10.65ZM550.72,544.65v-2.37c-.86.54-1.65.79-3.59,1.08-2.01.29-3.23,1-3.23,2.83,0,1.4.93,2.29,2.33,2.29,2.22,0,4.48-1.51,4.48-3.84Z"/>
      <path class="st11" d="M575.57,548.02c0,1.86.39,2.51,1.11,2.8v.75h-5.42c-.25-.75-.43-1.43-.47-2.26-1.83,1.97-3.73,2.76-6.17,2.76-3.48,0-5.81-2.15-5.81-5.56,0-2.47.9-5.42,5.99-6.17l3.59-.54c1.86-.29,2.26-.65,2.26-1.61,0-1.33-.83-2.19-3.3-2.19-1.86,0-2.9.82-3.08,2.65h-4.84c.39-4.02,2.29-6.67,8.39-6.67,4.91,0,7.75,2.08,7.75,5.38v10.65ZM570.66,544.65v-2.37c-.86.54-1.65.79-3.59,1.08-2.01.29-3.23,1-3.23,2.83,0,1.4.93,2.29,2.33,2.29,2.22,0,4.48-1.51,4.48-3.84Z"/>
      <path class="st11" d="M467.95,566.71c1.08-1.66,2.42-2.48,4.14-2.48,3.35,0,5.39,2.19,5.39,5.1v10.81h-4.08v-9.53c0-2.1-.96-2.94-2.24-2.94-2.07,0-2.74,1.43-2.74,3.15v9.33h-4.08v-9.62c0-2.13-.82-2.86-2.45-2.86-1.72,0-2.54,1.14-2.54,2.91v9.56h-4.08v-15.5h3.91v2.27h.06c.93-1.84,2.45-2.68,4.4-2.68s3.15.53,4.31,2.48Z"/>
      <path class="st11" d="M493.77,577.26c0,1.52.32,2.04.9,2.27v.61h-4.4c-.2-.61-.35-1.17-.38-1.84-1.49,1.6-3.03,2.24-5.01,2.24-2.83,0-4.72-1.75-4.72-4.52,0-2.01.73-4.4,4.87-5.01l2.91-.44c1.52-.23,1.84-.52,1.84-1.31,0-1.08-.67-1.78-2.68-1.78-1.52,0-2.36.67-2.51,2.16h-3.93c.32-3.26,1.87-5.42,6.82-5.42,3.99,0,6.29,1.69,6.29,4.37v8.66ZM489.78,574.52v-1.92c-.7.44-1.34.64-2.91.88-1.63.23-2.62.82-2.62,2.3,0,1.14.76,1.87,1.89,1.87,1.81,0,3.64-1.22,3.64-3.12Z"/>
      <path class="st11" d="M501.62,559.22v20.93h-4.08v-20.93h4.08Z"/>
      <path class="st11" d="M519.69,559.22v20.93h-3.99v-1.95h-.06c-1.02,1.75-2.77,2.36-4.49,2.36-4.11,0-6.53-3.41-6.53-8.33s2.68-7.99,6.44-7.99c2.01,0,3.53.88,4.49,2.42h.06v-7.43h4.08ZM515.78,572.74c0-3.12-1.17-4.98-3.53-4.98-2.19,0-3.44,1.72-3.44,4.72,0,2.68,1.25,4.72,3.35,4.72,2.24,0,3.61-1.75,3.61-4.46Z"/>
      <path class="st11" d="M527.53,564.64v15.5h-4.08v-15.5h4.08Z"/>
      <path class="st11" d="M534.47,564.64l3.21,11.42h.06l3.29-11.42h4.34l-5.6,15.5h-4.28l-5.57-15.5h4.55Z"/>
      <path class="st11" d="M561.14,573.5h-10.64c.15,2.54,1.34,3.79,3.64,3.79,1.14,0,2.3-.55,2.62-1.69h4.2c-.9,3.15-3.47,4.96-6.82,4.96-5.13,0-7.72-2.89-7.72-8.45,0-4.58,2.59-7.87,7.4-7.87,3.88,0,7.31,2.21,7.31,8.54v.73ZM556.94,570.84c-.2-2.04-1.4-3.26-3.18-3.26-1.87,0-2.91,1.14-3.15,3.26h6.32Z"/>
      <path class="st11" d="M576.62,569.36h-3.99c-.23-1.54-1.14-2.04-2.77-2.04-1.54,0-2.48.38-2.48,1.52,0,1.05,1.98,1.4,3.93,1.78,4.49.85,5.77,2.39,5.77,4.58,0,3.79-3.09,5.36-6.88,5.36-4.58,0-7.37-2.07-7.37-5.36h4.2c0,1.25.76,2.27,3.35,2.27,1.63,0,2.62-.67,2.62-1.6,0-1.02-1.37-1.37-4.2-1.89-3.61-.64-5.42-2.01-5.42-4.55,0-3.06,2.27-5.19,6.27-5.19,4.66,0,6.79,1.98,6.96,5.13Z"/>
    </g>
    <text class="st9" transform="translate(455.27 597.64)"><tspan x="0" y="0">your </tspan><tspan x="0" y="15">journey to</tspan><tspan x="0" y="30">tropical </tspan><tspan x="0" y="45">paradise</tspan></text>
    <rect class="st6" x="168.32" y="522.18" width="149.67" height="149.67" rx="30.31" ry="30.31"/>
    <g>
      <path class="st8" d="M190.41,578.32c-2.95-2.52-.65-7.38,3.16-6.62,3.61.72,8.1.45,13.58-1.77,4.7-1.91,8.99-3.2,12.77-4.06,2.69-.62,4.2,3.01,1.86,4.47s-4.83,3.34-7.25,5.65c-7.4,7.05-16.81,8.56-24.12,2.33Z"/>
      <path class="st14" d="M239.74,571.67c.58-1.17-.17-2.58-1.46-2.77-3.26-.47-9.4-.34-16.49,4.81-8.38,6.07-9.6,12.48-18.21,14.86-1.98.55-1.89,3.4.13,3.79,9.66,1.89,25.41.87,36.04-20.69Z"/>
      <circle class="st8" cx="224.37" cy="554.9" r="5.93"/>
      <g>
        <path class="st8" d="M202.14,552.6c.1-.86-1.12-1.15-1.41-.33-3.11,8.95-7.46,23.47-3.05,23.81,5.77.44,2.62-7.69,4.46-23.48Z"/>
        <path class="st13" d="M213.86,550.3c-1.49-1.46-3.97-2.8-8.07-2.85,0,0,2.42-1.83,5.06-2.93,1.16-.48.84-2.22-.41-2.23-1.58-.02-3.56.55-5.77,2.44.3-1.47.26-3.36-.83-5.38-.6-1.11-2.29-.59-2.17.67.13,1.37.19,2.9.05,4.3-.82-1.4-2.3-3.02-4.92-3.72-1.22-.33-2,1.27-.99,2.05,1.52,1.17,3.2,2.67,4.18,4.2,0,0-5.05-2.35-9.41.56-1.03.69-.38,2.3.84,2.1,1.73-.28,4.01-.44,6.76-.18,0,0-2.35,1.26-3.92,3.7-.77,1.19.88,2.46,1.84,1.4,1.36-1.51,3.26-3.07,5.83-4.21,0,0,3.43,3.16,5.24,6.72.58,1.14,2.33.61,2.18-.66-.21-1.75-1.05-3.81-3.19-5.95,0,0,3.27.55,6.44,1.86,1.17.48,2.17-1,1.27-1.88Z"/>
      </g>
    </g>
    <g>
      <text class="st10" transform="translate(188.15 618.3)"><tspan class="st0" x="0" y="0">Beevaa</tspan><tspan class="st15" x="110.19" y="0"> </tspan><tspan class="st15"><tspan x="0" y="27.92">maldives</tspan></tspan></text>
      <text class="st12" transform="translate(189.98 658.9)"><tspan x="0" y="0">your journey to tropical paradise</tspan></text>
    </g>
    <g>
      <path class="st6" d="M372.22,360.36c7.13,0,11.36,2.95,11.36,8.9,0,4.13-1.97,6.88-5.65,7.62v.1c4.67.74,7.28,3.93,7.28,8.8,0,6.69-4.08,9.98-11.31,9.98h-14.7v-35.4h13.03ZM371.24,376c5.75,0,9-1.82,9-6.74,0-4.47-2.8-6.05-9.64-6.05h-8.06v12.78h8.7ZM371.44,392.91c8.26,0,10.42-1.87,10.42-7.13,0-4.92-2.7-6.93-10.13-6.93h-9.19v14.06h8.9Z"/>
      <path class="st6" d="M413.12,383.72h-19.76c0,6.24,3.44,10.08,8.55,10.08,3.93,0,6.88-2.26,7.72-5.85h3.29c-1.82,5.85-5.36,8.51-11.01,8.51-7.52,0-11.7-5.06-11.7-13.27s4.82-13.57,11.7-13.57,11.21,5.01,11.21,14.11ZM409.98,381.26c-.05-5.46-3.15-9-8.11-9-4.52,0-7.72,3.29-8.51,9h16.62Z"/>
      <path class="st6" d="M440.46,383.72h-19.76c0,6.24,3.44,10.08,8.55,10.08,3.93,0,6.88-2.26,7.72-5.85h3.29c-1.82,5.85-5.36,8.51-11.01,8.51-7.52,0-11.7-5.06-11.7-13.27s4.82-13.57,11.7-13.57,11.21,5.01,11.21,14.11ZM437.31,381.26c-.05-5.46-3.15-9-8.11-9-4.52,0-7.72,3.29-8.51,9h16.62Z"/>
      <path class="st6" d="M446.7,370.29l8.26,21.83,8.26-21.83h3.2l-9.88,25.47h-3.29l-9.73-25.47h3.2Z"/>
      <path class="st6" d="M490.4,377.33v14.26c0,1.38.29,2.16,1.28,2.16.44,0,1.03-.05,1.82-.39v2.31c-.64.2-1.57.49-2.46.49-2.46,0-3.49-1.08-3.54-3.93-2.51,2.8-5.8,4.23-9.49,4.23-4.92,0-8.51-2.8-8.51-7.33,0-4.23,2.56-6.88,9.88-7.82l2.75-.34c4.18-.54,5.31-.64,5.31-3.54,0-3.34-2.16-5.16-6.34-5.16-4.77,0-6.98,1.87-7.42,5.75h-3c.39-5.36,4.18-8.41,10.47-8.41s9.24,2.95,9.24,7.72ZM478.21,393.8c5.31,0,9.24-2.85,9.24-7.28v-4.13c-1.48.64-2.85,1.03-7.67,1.43-4.72.39-7.13,2.11-7.13,5.41,0,2.75,2.21,4.57,5.56,4.57Z"/>
      <path class="st6" d="M517.73,377.33v14.26c0,1.38.29,2.16,1.28,2.16.44,0,1.03-.05,1.82-.39v2.31c-.64.2-1.57.49-2.46.49-2.46,0-3.49-1.08-3.54-3.93-2.51,2.8-5.8,4.23-9.49,4.23-4.92,0-8.51-2.8-8.51-7.33,0-4.23,2.56-6.88,9.88-7.82l2.75-.34c4.18-.54,5.31-.64,5.31-3.54,0-3.34-2.16-5.16-6.34-5.16-4.77,0-6.98,1.87-7.42,5.75h-3c.39-5.36,4.18-8.41,10.47-8.41s9.24,2.95,9.24,7.72ZM505.54,393.8c5.31,0,9.24-2.85,9.24-7.28v-4.13c-1.47.64-2.85,1.03-7.67,1.43-4.72.39-7.13,2.11-7.13,5.41,0,2.75,2.21,4.57,5.56,4.57Z"/>
      <path class="st6" d="M374.81,416.15c1.45-2.24,3.26-3.34,5.58-3.34,4.52,0,7.27,2.95,7.27,6.87v14.57h-5.5v-12.84c0-2.83-1.3-3.97-3.02-3.97-2.79,0-3.69,1.92-3.69,4.24v12.57h-5.5v-12.96c0-2.87-1.1-3.85-3.3-3.85-2.32,0-3.42,1.53-3.42,3.93v12.88h-5.5v-20.9h5.26v3.06h.08c1.26-2.47,3.3-3.61,5.93-3.61s4.24.71,5.81,3.34Z"/>
      <path class="st6" d="M409.61,430.37c0,2.04.43,2.75,1.22,3.06v.82h-5.93c-.27-.82-.47-1.57-.51-2.47-2,2.16-4.08,3.02-6.76,3.02-3.81,0-6.36-2.36-6.36-6.09,0-2.71.98-5.93,6.56-6.76l3.93-.59c2.04-.31,2.47-.71,2.47-1.77,0-1.45-.9-2.4-3.61-2.4-2.04,0-3.18.9-3.38,2.91h-5.3c.43-4.4,2.51-7.31,9.19-7.31,5.38,0,8.48,2.28,8.48,5.89v11.67ZM404.23,426.67v-2.59c-.94.59-1.81.86-3.93,1.18-2.2.31-3.53,1.1-3.53,3.1,0,1.53,1.02,2.51,2.55,2.51,2.44,0,4.91-1.65,4.91-4.2Z"/>
      <path class="st6" d="M420.18,406.05v28.2h-5.5v-28.2h5.5Z"/>
      <path class="st6" d="M444.53,406.05v28.2h-5.38v-2.63h-.08c-1.37,2.36-3.73,3.18-6.05,3.18-5.54,0-8.8-4.6-8.8-11.23s3.61-10.76,8.68-10.76c2.71,0,4.75,1.18,6.05,3.26h.08v-10.02h5.5ZM439.26,424.28c0-4.2-1.57-6.72-4.75-6.72-2.95,0-4.63,2.32-4.63,6.36,0,3.61,1.69,6.36,4.52,6.36,3.02,0,4.87-2.36,4.87-6.01Z"/>
      <path class="st6" d="M455.09,413.36v20.9h-5.5v-20.9h5.5Z"/>
      <path class="st6" d="M464.44,413.36l4.32,15.4h.08l4.44-15.4h5.85l-7.54,20.9h-5.77l-7.5-20.9h6.13Z"/>
      <path class="st6" d="M500.38,425.3h-14.34c.2,3.42,1.81,5.11,4.91,5.11,1.53,0,3.1-.75,3.53-2.28h5.66c-1.22,4.24-4.67,6.68-9.19,6.68-6.91,0-10.41-3.89-10.41-11.39,0-6.17,3.5-10.6,9.98-10.6,5.22,0,9.86,2.98,9.86,11.51v.98ZM494.72,421.72c-.27-2.75-1.89-4.4-4.28-4.4-2.51,0-3.93,1.53-4.24,4.4h8.52Z"/>
      <path class="st6" d="M521.23,419.72h-5.38c-.31-2.08-1.53-2.75-3.73-2.75-2.08,0-3.34.51-3.34,2.04,0,1.41,2.67,1.89,5.3,2.4,6.05,1.14,7.78,3.22,7.78,6.17,0,5.11-4.16,7.23-9.27,7.23-6.17,0-9.94-2.79-9.94-7.23h5.66c0,1.69,1.02,3.06,4.52,3.06,2.2,0,3.53-.9,3.53-2.16,0-1.38-1.85-1.85-5.66-2.55-4.87-.86-7.31-2.71-7.31-6.13,0-4.12,3.06-6.99,8.44-6.99,6.28,0,9.15,2.67,9.39,6.91Z"/>
    </g>
    <text class="st3" transform="translate(357.73 451.73)"><tspan x="0" y="0">your journey to tropical paradise</tspan></text>
    <g>
      <path class="st8" d="M511.54,632.65c-4.34-3.7-.95-10.85,4.65-9.74,5.31,1.05,11.92.67,19.97-2.6,6.9-2.8,13.22-4.7,18.78-5.97,3.96-.91,6.18,4.42,2.74,6.58s-7.1,4.91-10.67,8.31c-10.89,10.37-24.72,12.59-35.47,3.42Z"/>
      <path class="st14" d="M584.09,622.88c.85-1.73-.24-3.8-2.15-4.07-4.79-.68-13.82-.49-24.26,7.07-12.32,8.93-14.12,18.35-26.78,21.85-2.91.8-2.77,4.99.19,5.57,14.2,2.78,37.37,1.28,52.99-30.43Z"/>
      <circle class="st8" cx="561.48" cy="598.22" r="8.72"/>
      <g>
        <path class="st8" d="M528.79,594.84c.15-1.27-1.65-1.69-2.07-.48-4.57,13.16-10.96,34.52-4.48,35.01,8.48.64,3.85-11.31,6.55-34.52Z"/>
        <path class="st13" d="M546.03,591.45c-2.18-2.14-5.83-4.11-11.87-4.19,0,0,3.56-2.7,7.44-4.31,1.7-.71,1.24-3.26-.6-3.28-2.33-.03-5.23.81-8.48,3.58.43-2.17.38-4.93-1.21-7.91-.88-1.64-3.37-.87-3.2.98.19,2.01.27,4.26.07,6.33-1.21-2.06-3.38-4.44-7.23-5.47-1.8-.48-2.93,1.87-1.46,3.01,2.24,1.73,4.71,3.93,6.15,6.17,0,0-7.42-3.46-13.83.82-1.51,1.01-.56,3.38,1.23,3.09,2.54-.41,5.9-.64,9.94-.26,0,0-3.45,1.86-5.76,5.44-1.13,1.75,1.3,3.61,2.7,2.06,2-2.22,4.79-4.52,8.57-6.19,0,0,5.05,4.65,7.71,9.89.85,1.68,3.43.9,3.21-.97-.31-2.57-1.55-5.61-4.69-8.75,0,0,4.81.81,9.48,2.73,1.72.71,3.2-1.47,1.87-2.77Z"/>
      </g>
    </g>
    <circle class="st14" cx="525.49" cy="558.4" r="3.31"/>
    <g>
      <circle class="st6" cx="762.16" cy="150.24" r="75.4"/>
      <text>
        <textPath startOffset="2.69%" xlink:href="#path"><tspan class="st5"><tspan x="0" y="0" xml:space="preserve"> your journey to tropical paradise</tspan></tspan>
        </textPath></text>
      <text>
        <textPath startOffset="2.93%" xlink:href="#path1"><tspan class="st2"><tspan x="0" y="0" xml:space="preserve"> Beevaa maldives</tspan></tspan>
        </textPath></text>
      <g>
        <path class="st8" d="M710.34,177.02c-6.35-5.42-1.39-15.87,6.8-14.24,7.76,1.54,17.43.98,29.21-3.8,10.1-4.1,19.33-6.87,27.47-8.74,5.79-1.33,9.04,6.46,4.01,9.62-5.09,3.2-10.39,7.19-15.6,12.15-15.92,15.16-36.15,18.41-51.88,5Z"/>
        <path class="st14" d="M816.45,162.72c1.24-2.53-.36-5.55-3.14-5.95-7.01-1-20.21-.72-35.48,10.34-18.02,13.06-20.65,26.84-39.17,31.95-4.26,1.17-4.06,7.3.28,8.15,20.77,4.06,54.65,1.87,77.51-44.5Z"/>
        <circle class="st8" cx="783.38" cy="126.66" r="12.76"/>
        <g>
          <path class="st8" d="M735.57,121.72c.22-1.86-2.41-2.48-3.02-.71-6.69,19.25-16.04,50.48-6.56,51.2,12.41.94,5.64-16.55,9.58-50.5Z"/>
          <path class="st13" d="M760.78,116.76c-3.2-3.13-8.53-6.01-17.36-6.14,0,0,5.21-3.95,10.88-6.3,2.49-1.03,1.81-4.77-.88-4.8-3.4-.04-7.65,1.18-12.4,5.24.64-3.17.55-7.22-1.78-11.58-1.28-2.4-4.93-1.27-4.68,1.44.28,2.94.4,6.23.11,9.25-1.77-3.01-4.95-6.5-10.58-8-2.63-.7-4.29,2.74-2.14,4.4,3.28,2.53,6.88,5.75,8.99,9.03,0,0-10.85-5.05-20.23,1.2-2.21,1.47-.82,4.94,1.8,4.52,3.72-.6,8.63-.94,14.53-.38,0,0-5.05,2.72-8.43,7.96-1.66,2.57,1.9,5.28,3.95,3.02,2.93-3.25,7.01-6.61,12.54-9.06,0,0,7.38,6.8,11.27,14.46,1.25,2.46,5.02,1.31,4.69-1.42-.45-3.77-2.27-8.2-6.87-12.8,0,0,7.04,1.18,13.86,4,2.52,1.04,4.67-2.15,2.73-4.05Z"/>
        </g>
      </g>
      <path class="st13" d="M872.03,147.06c-1.77-1.29-4.56-2.31-8.85-1.74,0,0,2.24-2.28,4.82-3.83,1.13-.68.54-2.44-.77-2.26-1.65.22-3.62,1.12-5.64,3.42.08-1.58-.25-3.54-1.69-5.48-.79-1.07-2.48-.26-2.16,1.03.34,1.4.64,2.99.71,4.48-1.07-1.33-2.86-2.8-5.7-3.12-1.32-.15-1.88,1.63-.72,2.28,1.77.99,3.75,2.3,5,3.73,0,0-5.62-1.68-9.72,2.02-.96.87-.05,2.45,1.19,2.06,1.76-.55,4.12-1.07,7.02-1.22,0,0-2.25,1.68-3.52,4.46-.62,1.36,1.3,2.43,2.13,1.18,1.19-1.78,2.92-3.7,5.43-5.28,0,0,4.06,2.77,6.49,6.2.78,1.1,2.53.28,2.17-1.02-.49-1.79-1.68-3.81-4.24-5.71,0,0,3.5.07,7,.95,1.29.32,2.11-1.37,1.03-2.16Z"/>
      <path class="st13" d="M675.59,147.06c-1.77-1.29-4.56-2.31-8.85-1.74,0,0,2.24-2.28,4.82-3.83,1.13-.68.54-2.44-.77-2.26-1.65.22-3.62,1.12-5.64,3.42.08-1.58-.25-3.54-1.69-5.48-.79-1.07-2.48-.26-2.16,1.03.34,1.4.64,2.99.71,4.48-1.07-1.33-2.86-2.8-5.7-3.12-1.32-.15-1.88,1.63-.72,2.28,1.77.99,3.75,2.3,5,3.73,0,0-5.62-1.68-9.72,2.02-.96.87-.05,2.45,1.19,2.06,1.76-.55,4.12-1.07,7.02-1.22,0,0-2.25,1.68-3.52,4.46-.62,1.36,1.3,2.43,2.13,1.18,1.19-1.78,2.92-3.7,5.43-5.28,0,0,4.06,2.77,6.49,6.2.78,1.1,2.53.28,2.17-1.02-.49-1.79-1.68-3.81-4.24-5.71,0,0,3.5.07,7,.95,1.29.32,2.11-1.37,1.03-2.16Z"/>
    </g>
    <circle class="st8" cx="452.34" cy="406.05" r="3.53"/>
  </g>
  <g id="Layer_2" class="st16">
    <g>
      <circle class="st6" cx="124.79" cy="152.78" r="75.4"/>
      <g>
        <path class="st6" d="M32.3,168.7l-7.7,4.71,8.9,1.48.24,1.21-11.29-1.92c-.66-.12-1.87-.37-2.56-.8-.53-.32-.81-.79-.91-1.28-.07-.37-.1-.79-.08-1.12l1.04-.2c0,.39.01.66.07.95.13.67.65.98,1.83,1.17l1.2.19,9-5.64.24,1.25Z"/>
        <path class="st6" d="M31.92,187.13c-2.98.92-5.49-.22-6.29-2.82-.76-2.49.45-4.93,3.61-5.9,2.92-.9,5.45.09,6.3,2.83.84,2.74-.62,4.96-3.62,5.88ZM26.61,184c.64,2.07,2.65,2.68,4.92,1.98,2.47-.76,3.69-2.29,3.02-4.45-.6-1.96-2.54-2.7-4.95-1.96-2.47.76-3.6,2.44-2.99,4.42Z"/>
        <path class="st6" d="M37.32,187.46l.45,1.05-5.99,2.6c-1.45.63-2.05,1.68-1.33,3.33.73,1.67,2.54,2.17,4.65,1.25l4.88-2.12.45,1.04-9.03,3.92-.45-1.05,1.25-.54c-1.53-.47-2.26-1.11-2.77-2.28-.91-2.09-.25-3.68,1.91-4.62l5.98-2.6Z"/>
        <path class="st6" d="M42.93,201.28l-.06-.12c-1.02-1.87-2.73-2.06-4.99-.83l-4.29,2.34-.55-1,8.64-4.71.55,1-1.62.88.02.03c1.57-.18,2.53.24,3.37,1.78l.02.03-1.08.59Z"/>
        <path class="st6" d="M47.72,206.95l.65.93-9.38,6.55c-1.56,1.09-2.22.81-3-.32-.15-.22-.28-.43-.36-.65l.83-.58c.07.14.15.29.24.41.47.67.94.69,1.69.16l9.33-6.52ZM51.55,205.73l-1.39.97-.72-1.03,1.39-.97.72,1.03Z"/>
        <path class="st6" d="M51.43,219.73c-2.41,1.97-5.17,1.88-6.89-.23-1.65-2.01-1.45-4.73,1.11-6.83,2.37-1.94,5.08-1.98,6.9.24,1.82,2.22,1.3,4.83-1.12,6.81ZM45.32,218.84c1.37,1.67,3.47,1.48,5.31-.03,2-1.64,2.55-3.51,1.12-5.26-1.3-1.59-3.37-1.54-5.32.07-2,1.64-2.41,3.62-1.1,5.22Z"/>
        <path class="st6" d="M56.57,218.01l.82.8-4.57,4.68c-1.1,1.13-1.26,2.33.03,3.59,1.31,1.27,3.17,1.05,4.78-.59l3.72-3.81.82.8-6.88,7.04-.82-.8.96-.98c-1.6.14-2.51-.17-3.43-1.06-1.63-1.59-1.62-3.31.02-5l4.55-4.66Z"/>
        <path class="st6" d="M66.99,228.7l-.1-.08c-1.65-1.35-3.3-.89-4.94,1.11l-3.09,3.78-.88-.72,6.24-7.62.88.72-1.17,1.43.03.02c1.38-.76,2.44-.73,3.79.38l.03.02-.78.96Z"/>
        <path class="st6" d="M70.17,241.75l-.94-.64,3.63-5.37c.92-1.37.87-2.55-.64-3.57-1.39-.94-3.18-.66-4.42,1.19l-3.15,4.66-.94-.64,5.51-8.16.95.64-.77,1.13c1.64-.39,2.62-.21,3.54.42,1.61,1.08,2.3,2.84,1.08,4.65l-3.84,5.68Z"/>
        <path class="st6" d="M82.87,243.39l-6.77-3.55c-1.12,2.14-.63,4.07,1.12,4.99,1.35.71,2.76.46,3.69-.62l1.13.59c-1.67,1.68-3.36,1.95-5.3.93-2.58-1.35-3.1-3.84-1.62-6.65,1.4-2.68,4.09-3.78,6.44-2.54,2.41,1.26,2.94,3.73,1.3,6.84ZM82.24,241.99c.96-1.88.54-3.65-1.16-4.54-1.55-.81-3.23-.26-4.53,1.55l5.69,2.99Z"/>
        <path class="st6" d="M87.39,239.69l-.19,9.02,6.05-6.69,1.15.46-7.71,8.47c-.46.49-1.32,1.38-2.05,1.72-.56.27-1.1.26-1.56.08-.35-.14-.72-.35-.99-.54l.39-.99c.33.21.56.34.84.46.64.25,1.17-.03,1.98-.91l.81-.91.11-10.62,1.18.47Z"/>
        <path class="st6" d="M101.93,241.78l1.11.27-.66,2.65,1.79.44-.23.92-1.79-.44-1.69,6.8c-.27,1.07.17,1.2.74,1.34.29.07.55.08.88.08l-.22.9c-.29-.01-.76.05-1.33-.09-1.22-.3-1.53-1.08-1.24-2.26l1.75-7.04-1.35-.33.23-.92,1.34.33.66-2.65Z"/>
        <path class="st6" d="M113.48,251.79c-.5,3.08-2.62,4.83-5.31,4.4-2.57-.41-4.22-2.58-3.69-5.85.49-3.02,2.49-4.85,5.33-4.39,2.83.46,4.17,2.75,3.68,5.84ZM108.31,255.17c2.14.34,3.58-1.19,3.96-3.54.41-2.55-.42-4.32-2.65-4.68-2.03-.33-3.54,1.08-3.94,3.58-.41,2.55.59,4.31,2.64,4.64Z"/>
        <path class="st6" d="M121.85,244.62l1.14.03-.06,2.74,1.84.04-.02.95-1.84-.04-.16,7.01c-.03,1.1.43,1.13,1.02,1.14.3,0,.55-.04.88-.11l-.02.93c-.29.05-.73.21-1.32.2-1.25-.03-1.73-.72-1.71-1.94l.16-7.26-1.39-.03.02-.95,1.39.03.06-2.74Z"/>
        <path class="st6" d="M131.04,248.2h-.13c-2.13.08-3.06,1.53-2.96,4.11l.18,4.88-1.14.04-.37-9.83,1.14-.04.07,1.84h.04c.53-1.49,1.34-2.16,3.09-2.23h.04s.05,1.23.05,1.23Z"/>
        <path class="st6" d="M141.42,251.04c.38,3.09-1.18,5.37-3.88,5.7-2.58.32-4.77-1.31-5.17-4.59-.37-3.04,1.05-5.35,3.9-5.7,2.85-.35,4.77,1.48,5.16,4.6ZM137.39,255.72c2.15-.26,3.11-2.14,2.82-4.5-.31-2.56-1.6-4.03-3.85-3.76-2.04.25-3.1,2.03-2.8,4.53.31,2.57,1.77,3.98,3.82,3.72Z"/>
        <path class="st6" d="M152.77,248.4c.72,2.95-.36,5.44-3.02,6.09-1.38.34-2.87.03-3.87-.96l1.29,5.3-1.11.27-3.24-13.33,1.11-.27.41,1.68h.04c.35-1.37,1.54-2.44,2.85-2.75,2.79-.68,4.77.8,5.54,3.97ZM149.31,253.54c2.05-.5,2.88-2.4,2.28-4.88-.69-2.84-2.45-3.65-4.26-3.21-1.92.47-2.82,2.41-2.22,4.86.56,2.31,2.3,3.68,4.21,3.22Z"/>
        <path class="st6" d="M153.83,238.77l.54,1.6-1.19.4-.54-1.6,1.19-.4ZM153.91,242.79l1.08-.36,3.11,9.33-1.08.36-3.11-9.33Z"/>
        <path class="st6" d="M166.33,241.26l-1.07.45c-.94-1.19-2.19-1.61-3.61-1.01-1.91.81-2.36,2.92-1.42,5.14.94,2.22,2.72,3.35,4.66,2.53,1.52-.64,2.15-1.9,1.75-3.61l1.12-.47c.51,2.34-.36,4.13-2.47,5.03-2.64,1.12-4.91,0-6.18-3-1.16-2.75-.37-5.5,2.14-6.56,2.15-.91,3.88-.4,5.07,1.51Z"/>
        <path class="st6" d="M175.09,236.04l2.7,4.81c.26.46.51.67.84.49.15-.08.34-.21.54-.48l.44.78c-.18.19-.44.46-.74.63-.83.47-1.38.3-1.94-.66-.31,1.42-1.16,2.52-2.4,3.22-1.66.93-3.4.67-4.25-.86-.8-1.43-.44-2.8,1.85-4.51l.86-.64c1.31-.97,1.67-1.22,1.12-2.2-.63-1.13-1.71-1.33-3.12-.54-1.61.9-2,1.95-1.41,3.34l-1.01.57c-.88-1.88-.18-3.62,1.94-4.82,2.09-1.17,3.67-.76,4.58.85ZM174.1,243.9c1.79-1.01,2.58-2.71,1.74-4.2l-.78-1.39c-.38.49-.77.89-2.32,1.93-1.52,1.03-2,2.06-1.38,3.17.52.93,1.61,1.12,2.74.49Z"/>
        <path class="st6" d="M174.13,228.81l.95-.63,7.6,11.37-.95.63-7.6-11.37Z"/>
        <path class="st6" d="M193.78,224.28c2.02,2.27,2.24,4.97.19,6.79-1.06.95-2.52,1.37-3.86.97l3.62,4.07-.85.76-9.11-10.25.85-.76,1.15,1.29.03-.03c-.32-1.36.22-2.87,1.23-3.76,2.14-1.91,4.58-1.53,6.75.91ZM193.14,230.44c1.58-1.4,1.41-3.47-.28-5.37-1.94-2.19-3.87-2.07-5.26-.83-1.48,1.31-1.36,3.44.32,5.33,1.58,1.77,3.76,2.17,5.22.87Z"/>
        <path class="st6" d="M199.16,215.15l4.11,3.67c.4.35.7.47.95.19.11-.13.25-.31.35-.62l.67.59c-.11.24-.26.58-.49.84-.63.71-1.21.73-2.04,0,.16,1.44-.27,2.76-1.22,3.82-1.26,1.42-3,1.73-4.3.57-1.22-1.09-1.33-2.51.29-4.86l.61-.88c.92-1.34,1.18-1.7.34-2.44-.96-.86-2.04-.7-3.12.5-1.23,1.38-1.26,2.49-.25,3.62l-.77.87c-1.44-1.49-1.35-3.37.27-5.18,1.59-1.79,3.23-1.91,4.6-.68ZM200.77,222.9c1.37-1.53,1.56-3.4.28-4.54l-1.19-1.06c-.19.59-.44,1.09-1.56,2.58-1.1,1.46-1.22,2.6-.28,3.45.79.71,1.89.54,2.75-.42Z"/>
        <path class="st6" d="M202.29,208.1l-.08.11c-1.27,1.71-.73,3.34,1.34,4.88l3.92,2.92-.68.92-7.9-5.88.68-.92,1.48,1.1.02-.03c-.82-1.35-.84-2.4.2-3.81l.02-.03.99.74Z"/>
        <path class="st6" d="M208.81,201.1l4.69,2.89c.45.28.77.34.97.02.09-.15.19-.35.24-.68l.76.47c-.06.25-.16.62-.34.91-.5.81-1.06.93-2.01.37.41,1.39.22,2.77-.53,3.98-1,1.62-2.65,2.23-4.13,1.31-1.39-.86-1.75-2.24-.57-4.83l.44-.98c.67-1.48.87-1.88-.09-2.46-1.1-.68-2.14-.33-2.98,1.04-.97,1.57-.8,2.67.39,3.61l-.61.99c-1.68-1.22-1.92-3.08-.64-5.15,1.26-2.04,2.84-2.44,4.41-1.48ZM211.76,208.45c1.08-1.75.93-3.62-.52-4.52l-1.36-.84c-.09.61-.24,1.15-1.08,2.81-.83,1.63-.75,2.77.33,3.44.91.56,1.95.2,2.63-.9Z"/>
        <path class="st6" d="M207.59,188.72l.48-1.03,12.4,5.77-.48,1.03-1.57-.73-.02.04c.84,1.08.94,2.7.37,3.94-1.21,2.6-3.58,3.24-6.54,1.86-2.76-1.28-4.05-3.68-2.89-6.18.6-1.29,1.81-2.26,3.15-2.41l-4.91-2.28ZM210.35,193.69c-.83,1.77-.05,3.66,2.41,4.81,2.64,1.23,4.36.35,5.14-1.32.84-1.81-.11-3.72-2.41-4.79-2.12-.99-4.31-.52-5.15,1.29Z"/>
        <path class="st6" d="M209.33,184.13l1.59.58-.43,1.18-1.59-.58.43-1.18ZM212.52,186.57l.39-1.07,9.24,3.39-.39,1.07-9.24-3.39Z"/>
        <path class="st6" d="M218.51,176.97l-.32,1.11c-1.36-.21-2.28.45-2.72,1.99-.4,1.39.04,2.33,1.01,2.6,1,.29,1.67-.53,2.39-1.79,1.39-2.45,2.27-3.44,3.95-2.96,1.72.49,2.33,2.29,1.66,4.63-.6,2.1-2.26,3.13-4.25,2.7l.32-1.11c1.65.12,2.55-.49,3.04-2.19.41-1.44-.04-2.54-1.1-2.85-.71-.2-1.35-.11-2.63,2.29-1.27,2.36-2.28,2.86-3.67,2.47-1.68-.48-2.23-2.22-1.7-4.08.63-2.21,1.98-3.13,4.02-2.8Z"/>
        <path class="st6" d="M222.89,166.57l-1.32,7.53c2.38.42,4.07-.64,4.41-2.58.26-1.5-.4-2.77-1.71-3.33l.22-1.25c2.11,1.08,2.88,2.61,2.5,4.76-.5,2.86-2.71,4.12-5.84,3.57-2.98-.52-4.85-2.74-4.39-5.36.47-2.68,2.66-3.93,6.12-3.33ZM221.74,167.6c-2.08-.34-3.64.6-3.97,2.49-.3,1.72.74,3.16,2.86,3.84l1.11-6.33Z"/>
      </g>
      <g>
        <path class="st6" d="M15.04,126.3l2.7-9.11c1.28-4.33,4.73-6.06,8.11-5.05,1.73.51,2.87,1.59,3.55,2.95,1.38-1.19,3.31-1.95,5.39-1.33,3.41,1.01,5.3,4.44,4.04,8.69l-2.97,10.04-20.81-6.17ZM26.2,120.2c.56-1.88.12-3.19-1.64-3.71-1.94-.57-2.72.02-3.29,1.96l-1.35,4.54,5.01,1.48,1.26-4.27ZM35.09,121.85c.59-1.99.31-3.16-1.6-3.73-1.94-.57-2.95.63-3.55,2.65l-1.41,4.76,5.03,1.49,1.53-5.17Z"/>
        <path class="st6" d="M45.66,107.56c-2.2,3.97-6.05,5.44-10.09,3.19l-1.96-1.09c-3.4-1.89-4.8-5.88-2.49-10.05,2.37-4.27,6.37-5.23,10.13-3.14l2.51,1.39-5.08,9.16c1.51.84,2.92.16,3.71-1.28.87-1.56.86-2.57.13-3.66l3.41-2.65c1.53,1.92,1.65,4.68-.26,8.13ZM38.32,100.05c-1.47-.79-3-.24-3.84,1.28-.84,1.51-.51,3.06.96,3.91l2.88-5.19Z"/>
        <path class="st6" d="M55.68,93.25c-2.96,3.45-7.02,4.11-10.53,1.1l-1.7-1.46c-2.95-2.53-3.52-6.73-.42-10.35,3.18-3.71,7.29-3.84,10.55-1.04l2.18,1.87-6.82,7.95c1.31,1.12,2.82.74,3.9-.51,1.16-1.36,1.36-2.35.86-3.56l3.87-1.91c1.11,2.19.68,4.92-1.89,7.92ZM50,84.41c-1.28-1.06-2.89-.83-4.02.48-1.13,1.31-1.11,2.9.15,4.02l3.86-4.5Z"/>
        <path class="st6" d="M55.32,70.71l9.78,6.68-4.15-11.09,3.86-3.03,4.85,16.55-3.31,2.59-14.91-8.67,3.86-3.03Z"/>
        <path class="st6" d="M75.24,57.24c4.22-2.15,7.49-1.18,9.49,2.74l4.33,8.5-4.07,2.08-.6-1.17c-.59,1.34-1.61,2.6-3.2,3.41-3.36,1.71-6.14.77-7.49-1.89-1.48-2.9-.15-5.54,3.19-7.24l3.64-1.86-.14-.27c-.76-1.49-1.96-1.79-3.73-.89-1.01.52-1.79,1.37-1.73,2.72l-4.29.96c-.65-2.58.81-5.17,4.6-7.1ZM80.3,69.15c1.59-.81,2.41-1.66,2.5-2.9l-.65-1.27-3.19,1.62c-1.16.59-1.67,1.28-1.25,2.11.42.83,1.39,1.04,2.58.43Z"/>
        <path class="st6" d="M94.26,49.69c4.55-1.31,7.58.26,8.8,4.49l2.65,9.17-4.39,1.27-.36-1.26c-.83,1.21-2.07,2.25-3.78,2.74-3.62,1.05-6.17-.41-7-3.27-.9-3.13.9-5.47,4.5-6.51l3.92-1.13-.08-.29c-.46-1.6-1.59-2.13-3.5-1.58-1.09.31-2.01,1.01-2.21,2.35l-4.39.13c-.15-2.66,1.77-4.92,5.85-6.1ZM96.97,62.35c1.72-.5,2.67-1.17,3-2.38l-.4-1.37-3.43.99c-1.25.36-1.88.94-1.62,1.84.26.89,1.17,1.29,2.45.92Z"/>
        <path class="st6" d="M115.09,45.47l4.57.07-.03,1.7c.87-1.24,2.1-1.94,3.66-1.91,2.21.03,3.62.74,4.48,2.04,1.07-1.27,2.55-1.93,4.23-1.9,4.51.07,6.2,2.91,6.14,6.82l-.15,9.57-4.43-.07.15-9.35c.04-2.35-.74-3.21-2.16-3.23-1.5-.02-2.69,1.35-2.74,4.58l-.12,7.93-4.42-.07.14-9.08c.04-2.62-.88-3.49-2.13-3.51-1.47-.02-2.68,1.13-2.73,4.17l-.13,8.34-4.57-.07.25-16.02Z"/>
        <path class="st6" d="M151.59,48.65c4.59,1.16,6.41,4.04,5.34,8.31l-2.33,9.26-4.43-1.12.32-1.27c-1.33.62-2.92.9-4.65.46-3.66-.92-5.12-3.46-4.4-6.35.8-3.16,3.53-4.27,7.17-3.36l3.96,1,.07-.29c.41-1.62-.3-2.64-2.23-3.13-1.1-.28-2.25-.14-3.1.91l-3.86-2.1c1.21-2.37,4.01-3.36,8.13-2.32ZM147.55,60.94c1.73.44,2.9.34,3.79-.54l.35-1.38-3.47-.87c-1.27-.32-2.1-.13-2.33.77-.23.9.36,1.7,1.66,2.02Z"/>
        <path class="st6" d="M166.13,47.54l4.19,1.74-6.69,16.15c-.29.71-.16.82-.04.9.17.1.45.19,1.53.25l-.67,3.48c-1.12.04-2.91-.47-3.94-1.1-1.83-1.14-2.17-2.62-1.12-5.14l6.74-16.27Z"/>
        <path class="st6" d="M175.09,76.33l.83-1.38c-1.35.59-2.82.5-4.57-.55-2.99-1.8-4.18-5.43-1.85-9.29l1.33-2.2c2.33-3.86,6.09-4.5,9.08-2.7,1.6.97,2.46,2.28,2.59,3.83l3.78-6.28,3.91,2.36-11.19,18.57-3.91-2.36ZM174.17,71.72c1.53.92,3.43.47,4.87-1.92l.69-1.15c1.26-2.08.76-3.73-.87-4.71-1.38-.83-3.04-.46-4.36,1.74l-.82,1.36c-1.34,2.23-.89,3.84.5,4.67Z"/>
        <path class="st6" d="M191.94,68.74l3.5,2.89-10.2,12.36-3.5-2.89,10.2-12.36ZM197.87,65.12c1.07.89,1.24,2.37.39,3.41-.85,1.03-2.35,1.15-3.42.26-1.07-.89-1.24-2.37-.39-3.41.85-1.03,2.35-1.15,3.42-.26Z"/>
        <path class="st6" d="M202.49,78.25l-6,10.21,10.79-4.9,3.28,3.65-16.18,5.98-2.81-3.12,7.64-15.47,3.28,3.65Z"/>
        <path class="st6" d="M203.2,106.06c-2.3-3.91-1.61-7.97,2.37-10.31l1.93-1.14c3.35-1.97,7.51-1.15,9.92,2.96,2.47,4.21,1.27,8.14-2.43,10.32l-2.47,1.45-5.31-9.03c-1.49.87-1.62,2.43-.78,3.85.91,1.54,1.78,2.05,3.09,1.97l.55,4.28c-2.43.34-4.88-.95-6.88-4.35ZM213.4,103.56c1.42-.87,1.72-2.46.85-3.95-.88-1.49-2.38-1.99-3.85-1.16l3.01,5.11Z"/>
        <path class="st6" d="M225.73,115.53c1.31,3.78.82,6.32-1.29,8.49l-2.79-3.48c1.06-.94,1.22-1.98.59-3.81-.39-1.13-1-1.82-1.91-1.5-.78.27-.92,1.04-.47,2.92.69,2.83,1.08,7.22-2.39,8.42-3.1,1.07-5.76-.83-7.26-5.18-1.53-4.43-.4-7.19,1.64-8.64l2.42,3.91c-.94.89-1.13,2.01-.51,3.81.48,1.39,1.23,2.13,2.13,1.82.85-.29.87-.99.28-3.37-.68-2.8-.82-6.8,2.49-7.95,3.15-1.09,5.79.94,7.04,4.56Z"/>
      </g>
      <g>
        <path class="st8" d="M72.97,179.55c-6.35-5.42-1.39-15.87,6.8-14.24,7.76,1.54,17.43.98,29.21-3.8,10.1-4.1,19.33-6.87,27.47-8.74,5.79-1.33,9.04,6.46,4.01,9.62s-10.39,7.19-15.6,12.15c-15.92,15.16-36.15,18.41-51.88,5Z"/>
        <path class="st14" d="M179.08,165.26c1.24-2.53-.36-5.55-3.14-5.95-7.01-1-20.21-.72-35.48,10.34-18.02,13.06-20.65,26.84-39.17,31.95-4.26,1.17-4.06,7.3.28,8.15,20.77,4.06,54.65,1.87,77.51-44.5Z"/>
        <circle class="st8" cx="146.01" cy="129.2" r="12.76"/>
        <g>
          <path class="st8" d="M98.2,124.25c.22-1.86-2.41-2.48-3.02-.71-6.69,19.25-16.04,50.48-6.56,51.2,12.41.94,5.64-16.55,9.58-50.5Z"/>
          <path class="st13" d="M123.42,119.29c-3.2-3.13-8.53-6.01-17.36-6.14,0,0,5.21-3.95,10.88-6.3,2.49-1.03,1.81-4.77-.88-4.8-3.4-.04-7.65,1.18-12.4,5.24.64-3.17.55-7.22-1.78-11.58-1.28-2.4-4.93-1.27-4.68,1.44.28,2.94.4,6.23.11,9.25-1.77-3.01-4.95-6.5-10.58-8-2.63-.7-4.29,2.74-2.14,4.4,3.28,2.53,6.88,5.75,8.99,9.03,0,0-10.85-5.05-20.23,1.2-2.21,1.47-.82,4.94,1.8,4.52,3.72-.6,8.63-.94,14.53-.38,0,0-5.05,2.72-8.43,7.96-1.66,2.57,1.9,5.28,3.95,3.02,2.93-3.25,7.01-6.61,12.54-9.06,0,0,7.38,6.8,11.27,14.46,1.25,2.46,5.02,1.31,4.69-1.42-.45-3.77-2.27-8.2-6.87-12.8,0,0,7.04,1.18,13.86,4,2.52,1.04,4.67-2.15,2.73-4.05Z"/>
        </g>
      </g>
      <path class="st13" d="M234.66,149.6c-1.77-1.29-4.56-2.31-8.85-1.74,0,0,2.24-2.28,4.82-3.83,1.13-.68.54-2.44-.77-2.26-1.65.22-3.62,1.12-5.64,3.42.08-1.58-.25-3.54-1.69-5.48-.79-1.07-2.48-.26-2.16,1.03.34,1.4.64,2.99.71,4.48-1.07-1.33-2.86-2.8-5.7-3.12-1.32-.15-1.88,1.63-.72,2.28,1.77.99,3.75,2.3,5,3.73,0,0-5.62-1.68-9.72,2.02-.96.87-.05,2.45,1.19,2.06,1.76-.55,4.12-1.07,7.02-1.22,0,0-2.25,1.68-3.52,4.46-.62,1.36,1.3,2.43,2.13,1.18,1.19-1.78,2.92-3.7,5.43-5.28,0,0,4.06,2.77,6.49,6.2.78,1.1,2.53.28,2.17-1.02-.49-1.79-1.68-3.81-4.24-5.71,0,0,3.5.07,7,.95,1.29.32,2.11-1.37,1.03-2.16Z"/>
      <path class="st13" d="M38.22,149.6c-1.77-1.29-4.56-2.31-8.85-1.74,0,0,2.24-2.28,4.82-3.83,1.13-.68.54-2.44-.77-2.26-1.65.22-3.62,1.12-5.64,3.42.08-1.58-.25-3.54-1.69-5.48-.79-1.07-2.48-.26-2.16,1.03.34,1.4.64,2.99.71,4.48-1.07-1.33-2.86-2.8-5.7-3.12-1.32-.15-1.88,1.63-.72,2.28,1.77.99,3.75,2.3,5,3.73,0,0-5.62-1.68-9.72,2.02-.96.87-.05,2.45,1.19,2.06,1.76-.55,4.12-1.07,7.02-1.22,0,0-2.25,1.68-3.52,4.46-.62,1.36,1.3,2.43,2.13,1.18,1.19-1.78,2.92-3.7,5.43-5.28,0,0,4.06,2.77,6.49,6.2.78,1.1,2.53.28,2.17-1.02-.49-1.79-1.68-3.81-4.24-5.71,0,0,3.5.07,7,.95,1.29.32,2.11-1.37,1.03-2.16Z"/>
    </g>
  </g>
  <g id="Layer_3" class="st16">
    <rect class="st6" x="850.32" y="320.55" width="89.57" height="89.57"/>
    <rect class="st14" x="970" y="320.55" width="89.57" height="89.57"/>
    <rect class="st13" x="1089.69" y="320.55" width="89.57" height="89.57"/>
  </g>
  <g id="Layer_4">
    <g>
      <path class="st6" d="M367.27,619.78c-6.35-5.42-1.39-15.87,6.8-14.24,7.76,1.54,17.43.98,29.21-3.8,10.1-4.1,19.33-6.87,27.47-8.74,5.79-1.33,9.04,6.46,4.01,9.62-5.09,3.2-10.39,7.19-15.6,12.15-15.92,15.16-36.15,18.41-51.88,5Z"/>
      <path class="st8" d="M473.38,605.48c1.24-2.53-.36-5.55-3.14-5.95-7.01-1-20.21-.72-35.48,10.34-18.02,13.06-20.65,26.84-39.17,31.95-4.26,1.17-4.06,7.3.28,8.15,20.77,4.06,54.65,1.87,77.51-44.5Z"/>
      <circle class="st8" cx="440.31" cy="569.42" r="12.76"/>
      <g>
        <path class="st6" d="M392.5,564.47c.22-1.86-2.41-2.48-3.02-.71-6.69,19.25-16.04,50.48-6.56,51.2,12.41.94,5.64-16.55,9.58-50.5Z"/>
        <path class="st6" d="M417.72,559.51c-3.2-3.13-8.53-6.01-17.36-6.14,0,0,5.21-3.95,10.88-6.3,2.49-1.03,1.81-4.77-.88-4.8-3.4-.04-7.65,1.18-12.4,5.24.64-3.17.55-7.22-1.78-11.58-1.28-2.4-4.93-1.27-4.68,1.44.28,2.94.4,6.23.11,9.25-1.77-3.01-4.95-6.5-10.58-8-2.63-.7-4.29,2.74-2.14,4.4,3.28,2.53,6.88,5.75,8.99,9.03,0,0-10.85-5.05-20.23,1.2-2.21,1.47-.82,4.94,1.8,4.52,3.72-.6,8.63-.94,14.53-.38,0,0-5.05,2.72-8.43,7.96-1.66,2.57,1.9,5.28,3.95,3.02,2.93-3.25,7.01-6.61,12.54-9.06,0,0,7.38,6.8,11.27,14.46,1.25,2.46,5.02,1.31,4.69-1.42-.45-3.77-2.27-8.2-6.87-12.8,0,0,7.04,1.18,13.86,4,2.52,1.04,4.67-2.15,2.73-4.05Z"/>
      </g>
    </g>
    <g>
      <path class="st6" d="M496.84,544.79c7.68,0,12.23,3.18,12.23,9.58,0,4.45-2.12,7.41-6.09,8.2v.11c5.03.79,7.83,4.23,7.83,9.48,0,7.2-4.39,10.75-12.17,10.75h-15.83v-38.11h14.03ZM495.78,561.62c6.19,0,9.69-1.96,9.69-7.25,0-4.82-3.02-6.51-10.38-6.51h-8.68v13.76h9.37ZM495.99,579.83c8.89,0,11.22-2.01,11.22-7.68,0-5.29-2.91-7.46-10.9-7.46h-9.9v15.14h9.58Z"/>
      <path class="st6" d="M540.87,569.93h-21.28c0,6.72,3.71,10.85,9.21,10.85,4.23,0,7.41-2.44,8.31-6.3h3.55c-1.96,6.3-5.77,9.16-11.86,9.16-8.1,0-12.6-5.45-12.6-14.29s5.19-14.61,12.6-14.61,12.07,5.4,12.07,15.19ZM537.48,567.28c-.05-5.88-3.39-9.69-8.73-9.69-4.87,0-8.31,3.55-9.16,9.69h17.89Z"/>
      <path class="st6" d="M570.3,569.93h-21.28c0,6.72,3.71,10.85,9.21,10.85,4.23,0,7.41-2.44,8.31-6.3h3.55c-1.96,6.3-5.77,9.16-11.86,9.16-8.1,0-12.6-5.45-12.6-14.29s5.19-14.61,12.6-14.61,12.07,5.4,12.07,15.19ZM566.91,567.28c-.05-5.88-3.39-9.69-8.73-9.69-4.87,0-8.31,3.55-9.16,9.69h17.89Z"/>
      <path class="st6" d="M577.02,555.48l8.89,23.5,8.89-23.5h3.44l-10.64,27.42h-3.55l-10.48-27.42h3.44Z"/>
      <path class="st6" d="M624.07,563.05v15.35c0,1.48.32,2.33,1.38,2.33.48,0,1.11-.05,1.96-.42v2.49c-.69.21-1.69.53-2.65.53-2.65,0-3.76-1.16-3.81-4.23-2.7,3.02-6.25,4.55-10.22,4.55-5.29,0-9.16-3.02-9.16-7.89,0-4.55,2.75-7.41,10.64-8.42l2.96-.37c4.5-.58,5.72-.69,5.72-3.81,0-3.6-2.33-5.56-6.83-5.56-5.13,0-7.52,2.01-7.99,6.19h-3.23c.42-5.77,4.5-9.05,11.28-9.05s9.95,3.18,9.95,8.31ZM610.95,580.78c5.72,0,9.95-3.07,9.95-7.83v-4.45c-1.59.69-3.07,1.11-8.26,1.54-5.08.42-7.68,2.28-7.68,5.82,0,2.96,2.38,4.92,5.98,4.92Z"/>
      <path class="st6" d="M653.5,563.05v15.35c0,1.48.32,2.33,1.38,2.33.48,0,1.11-.05,1.96-.42v2.49c-.69.21-1.69.53-2.65.53-2.65,0-3.76-1.16-3.81-4.23-2.7,3.02-6.25,4.55-10.22,4.55-5.29,0-9.16-3.02-9.16-7.89,0-4.55,2.75-7.41,10.64-8.42l2.96-.37c4.5-.58,5.72-.69,5.72-3.81,0-3.6-2.33-5.56-6.83-5.56-5.13,0-7.52,2.01-7.99,6.19h-3.23c.42-5.77,4.5-9.05,11.27-9.05s9.95,3.18,9.95,8.31ZM640.37,580.78c5.72,0,9.95-3.07,9.95-7.83v-4.45c-1.59.69-3.07,1.11-8.26,1.54-5.08.42-7.68,2.28-7.68,5.82,0,2.96,2.38,4.92,5.98,4.92Z"/>
      <path class="st6" d="M499.52,604.71c1.55-2.4,3.49-3.57,5.97-3.57,4.83,0,7.77,3.15,7.77,7.35v15.59h-5.88v-13.74c0-3.03-1.39-4.24-3.24-4.24-2.98,0-3.95,2.06-3.95,4.54v13.45h-5.88v-13.87c0-3.07-1.18-4.12-3.53-4.12-2.48,0-3.66,1.64-3.66,4.2v13.78h-5.88v-22.35h5.63v3.28h.08c1.34-2.65,3.53-3.87,6.34-3.87s4.54.76,6.22,3.57Z"/>
      <path class="st6" d="M536.75,619.93c0,2.18.46,2.94,1.3,3.28v.88h-6.35c-.29-.88-.5-1.68-.55-2.65-2.14,2.31-4.37,3.24-7.23,3.24-4.08,0-6.81-2.52-6.81-6.51,0-2.9,1.05-6.34,7.02-7.23l4.2-.63c2.18-.34,2.65-.76,2.65-1.89,0-1.55-.97-2.56-3.87-2.56-2.19,0-3.4.97-3.61,3.11h-5.67c.46-4.71,2.69-7.82,9.83-7.82,5.76,0,9.08,2.44,9.08,6.3v12.48ZM530.99,615.98v-2.77c-1.01.63-1.93.92-4.2,1.26-2.35.34-3.78,1.18-3.78,3.32,0,1.64,1.09,2.69,2.73,2.69,2.61,0,5.25-1.76,5.25-4.5Z"/>
      <path class="st6" d="M548.05,593.92v30.17h-5.88v-30.17h5.88Z"/>
      <path class="st6" d="M574.1,593.92v30.17h-5.76v-2.82h-.08c-1.47,2.52-3.99,3.4-6.47,3.4-5.92,0-9.41-4.92-9.41-12.02s3.87-11.51,9.29-11.51c2.9,0,5.08,1.26,6.47,3.49h.08v-10.71h5.88ZM568.47,613.41c0-4.5-1.68-7.19-5.08-7.19-3.15,0-4.96,2.48-4.96,6.81,0,3.87,1.81,6.81,4.83,6.81,3.24,0,5.21-2.52,5.21-6.43Z"/>
      <path class="st6" d="M585.4,601.73v22.35h-5.88v-22.35h5.88Z"/>
      <path class="st6" d="M595.4,601.73l4.62,16.47h.08l4.75-16.47h6.26l-8.07,22.35h-6.18l-8.03-22.35h6.55Z"/>
      <path class="st6" d="M633.85,614.51h-15.34c.21,3.66,1.93,5.46,5.25,5.46,1.64,0,3.32-.8,3.78-2.44h6.05c-1.3,4.54-5,7.14-9.83,7.14-7.4,0-11.14-4.16-11.14-12.19,0-6.6,3.74-11.35,10.67-11.35,5.59,0,10.55,3.19,10.55,12.31v1.05ZM627.8,610.68c-.29-2.94-2.02-4.71-4.58-4.71-2.69,0-4.2,1.64-4.54,4.71h9.12Z"/>
      <path class="st6" d="M656.16,608.54h-5.76c-.34-2.23-1.64-2.94-3.99-2.94-2.23,0-3.57.55-3.57,2.19,0,1.51,2.86,2.02,5.67,2.56,6.47,1.22,8.32,3.45,8.32,6.6,0,5.46-4.45,7.73-9.92,7.73-6.6,0-10.63-2.98-10.63-7.73h6.05c0,1.81,1.09,3.28,4.83,3.28,2.35,0,3.78-.97,3.78-2.31,0-1.47-1.97-1.98-6.05-2.73-5.21-.92-7.82-2.9-7.82-6.55,0-4.41,3.28-7.48,9.03-7.48,6.72,0,9.79,2.86,10.04,7.4Z"/>
    </g>
    <g>
      <path class="st6" d="M482.61,636.86l1.72,5.26h.02l1.73-5.26h1.2c-.73,2.01-1.46,4.14-2.2,6.03l-.56,1.4c-.66,1.63-1.05,1.68-1.9,1.68-.18,0-.46-.04-.65-.1v-.99c.21.06.37.11.74.11.48,0,.61-.38.77-.77l.3-.73-2.4-6.64h1.24Z"/>
      <path class="st6" d="M490.62,643.5c-1.94,0-3.02-1.55-3.02-3.41s1.14-3.41,3-3.41,3,1.56,3,3.41-1.09,3.41-2.99,3.41ZM492.49,640.13c0-1.29-.52-2.51-1.89-2.51-1.25,0-1.87,1.09-1.87,2.47,0,1.31.58,2.47,1.88,2.47s1.88-1.25,1.88-2.43Z"/>
      <path class="st6" d="M495.97,636.86v4.34c0,.84.42,1.37,1.25,1.37,1.14,0,1.78-.86,1.78-2.21v-3.5h1.09v6.46h-1.03v-.94l-.02-.03c-.48.77-1.03,1.15-2.05,1.15-1.27,0-2.1-.74-2.1-1.96v-4.68h1.09Z"/>
      <path class="st6" d="M505.02,637.84h-.42c-.77,0-1.64.52-1.64,1.79v3.7h-1.09v-6.46h1.03v1.08h.02c.43-.75.98-1.26,1.82-1.26.12,0,.22.01.28.04v1.12Z"/>
      <path class="st6" d="M510.39,636.86v7.54c0,1.05-.6,1.52-1.66,1.52-.15,0-.28-.01-.46-.04v-.94h.26c.63,0,.77-.11.77-.74v-7.34h1.09ZM510.39,634.45v1.24h-1.09v-1.24h1.09Z"/>
      <path class="st6" d="M514.67,643.5c-1.94,0-3.02-1.55-3.02-3.41s1.14-3.41,3-3.41,3,1.56,3,3.41-1.09,3.41-2.99,3.41ZM516.53,640.13c0-1.29-.52-2.51-1.89-2.51-1.25,0-1.87,1.09-1.87,2.47,0,1.31.58,2.47,1.88,2.47s1.88-1.25,1.88-2.43Z"/>
      <path class="st6" d="M520.02,636.86v4.34c0,.84.42,1.37,1.25,1.37,1.14,0,1.78-.86,1.78-2.21v-3.5h1.09v6.46h-1.03v-.94l-.02-.03c-.48.77-1.03,1.15-2.05,1.15-1.27,0-2.1-.74-2.1-1.96v-4.68h1.09Z"/>
      <path class="st6" d="M529.07,637.84h-.42c-.77,0-1.64.52-1.64,1.79v3.7h-1.09v-6.46h1.03v1.08h.02c.43-.75.98-1.26,1.82-1.26.12,0,.22.01.28.04v1.12Z"/>
      <path class="st6" d="M535.46,643.33h-1.09v-3.94c0-.96-.2-1.73-1.37-1.73-1.04,0-1.72.84-1.72,2.09v3.58h-1.09v-6.46h1.03v.91h.02c.59-.83,1.25-1.1,1.95-1.1,1.43,0,2.26.8,2.26,2.2v4.45Z"/>
      <path class="st6" d="M537.92,640.45c0,1.37.64,2.13,1.88,2.13.89,0,1.59-.64,1.67-1.27h1.09c-.11.54-.62,2.21-2.84,2.21-1.93,0-2.95-1.38-2.95-3.25,0-2.16,1.1-3.58,3.1-3.58,1.79,0,2.78,1.38,2.78,3.77h-4.72ZM541.52,639.58c-.1-1.32-.73-1.93-1.8-1.93-.95,0-1.78.87-1.79,1.93h3.6Z"/>
      <path class="st6" d="M544.27,636.86l1.72,5.26h.03l1.73-5.26h1.2c-.73,2.01-1.46,4.14-2.2,6.03l-.56,1.4c-.66,1.63-1.05,1.68-1.9,1.68-.19,0-.46-.04-.66-.1v-.99c.21.06.37.11.74.11.48,0,.6-.38.77-.77l.3-.73-2.4-6.64h1.24Z"/>
      <path class="st6" d="M554.65,635.06v1.8h1.04v.9h-1.04v4.23c0,.3.16.48.61.48h.43v.85c-.35.04-.56.09-.83.09-.94,0-1.3-.47-1.3-1.35v-4.3h-.88v-.9h.88v-1.8h1.09Z"/>
      <path class="st6" d="M559.4,643.5c-1.94,0-3.02-1.55-3.02-3.41s1.14-3.41,3-3.41,3,1.56,3,3.41-1.09,3.41-2.99,3.41ZM561.26,640.13c0-1.29-.52-2.51-1.89-2.51-1.25,0-1.87,1.09-1.87,2.47,0,1.31.58,2.47,1.88,2.47s1.88-1.25,1.88-2.43Z"/>
      <path class="st6" d="M568.4,635.06v1.8h1.04v.9h-1.04v4.23c0,.3.16.48.61.48h.43v.85c-.35.04-.56.09-.83.09-.94,0-1.3-.47-1.3-1.35v-4.3h-.88v-.9h.88v-1.8h1.09Z"/>
      <path class="st6" d="M573.8,637.84h-.42c-.77,0-1.64.52-1.64,1.79v3.7h-1.09v-6.46h1.03v1.08h.02c.43-.75.98-1.26,1.82-1.26.12,0,.22.01.28.04v1.12Z"/>
      <path class="st6" d="M577.26,643.5c-1.94,0-3.02-1.55-3.02-3.41s1.14-3.41,3-3.41,3,1.56,3,3.41-1.09,3.41-2.99,3.41ZM579.13,640.13c0-1.29-.52-2.51-1.89-2.51-1.25,0-1.87,1.09-1.87,2.47,0,1.31.58,2.47,1.88,2.47s1.88-1.25,1.88-2.43Z"/>
      <path class="st6" d="M587.08,639.88c0,1.97-.93,3.63-2.82,3.63-.9,0-1.45-.39-1.74-.87h-.03v3.24h-1.09v-9.02h1.03v.91h.02c.59-.85,1.17-1.1,1.93-1.1,1.67,0,2.69,1.36,2.69,3.2ZM584.21,642.57c1.08,0,1.74-.94,1.74-2.53,0-1.74-.69-2.39-1.78-2.39s-1.73.87-1.73,2.76c0,1.4.78,2.16,1.77,2.16Z"/>
      <path class="st6" d="M589.48,634.45v1.24h-1.09v-1.24h1.09ZM589.48,636.86v6.46h-1.09v-6.46h1.09Z"/>
      <path class="st6" d="M595.15,639.04c-.14-.88-.61-1.38-1.53-1.38-1.16,0-1.78.98-1.78,2.43,0,1.61.58,2.48,1.77,2.48.74,0,1.37-.54,1.55-1.53h1.05c-.18,1.52-1.12,2.47-2.63,2.47-1.78,0-2.89-1.33-2.89-3.25,0-2.09,1.04-3.58,3.1-3.58,1.38,0,2.3.88,2.42,2.36h-1.05Z"/>
      <path class="st6" d="M602.32,642.23c0,.2.1.36.36.36.1,0,.22-.01.36-.05v.79c-.22.07-.38.12-.61.12-.68,0-1.1-.25-1.14-.99-.73.83-1.56,1.05-2.32,1.05-1.2,0-2.04-.75-2.04-1.87s.64-1.87,1.95-2.03l1.8-.22c.39-.05.57-.26.57-.75,0-.7-.49-1.06-1.52-1.06-.88,0-1.37.36-1.48,1.25h-1c.03-1.37.89-2.15,2.61-2.15,1.35,0,2.46.54,2.46,1.82v3.73ZM601.24,641.09v-1.06c-.26.22-.96.28-1.95.43-.73.11-1.22.38-1.22,1.04s.33,1.11,1.17,1.11c1.03,0,2-.68,2-1.52Z"/>
      <path class="st6" d="M605.28,634.45v8.87h-1.09v-8.87h1.09Z"/>
      <path class="st6" d="M615.93,639.88c0,1.97-.93,3.63-2.82,3.63-.9,0-1.45-.39-1.74-.87h-.03v3.24h-1.09v-9.02h1.03v.91h.02c.59-.85,1.17-1.1,1.93-1.1,1.67,0,2.69,1.36,2.69,3.2ZM613.07,642.57c1.08,0,1.74-.94,1.74-2.53,0-1.74-.69-2.39-1.78-2.39s-1.73.87-1.73,2.76c0,1.4.78,2.16,1.77,2.16Z"/>
      <path class="st6" d="M622.25,642.23c0,.2.1.36.36.36.1,0,.22-.01.36-.05v.79c-.22.07-.38.12-.61.12-.68,0-1.1-.25-1.14-.99-.73.83-1.56,1.05-2.32,1.05-1.2,0-2.04-.75-2.04-1.87s.64-1.87,1.95-2.03l1.8-.22c.39-.05.57-.26.57-.75,0-.7-.49-1.06-1.52-1.06-.88,0-1.37.36-1.48,1.25h-1c.03-1.37.89-2.15,2.61-2.15,1.35,0,2.46.54,2.46,1.82v3.73ZM621.17,641.09v-1.06c-.26.22-.96.28-1.95.43-.73.11-1.22.38-1.22,1.04s.33,1.11,1.17,1.11c1.03,0,2-.68,2-1.52Z"/>
      <path class="st6" d="M627.4,637.84h-.42c-.77,0-1.64.52-1.64,1.79v3.7h-1.09v-6.46h1.02v1.08h.03c.43-.75.98-1.26,1.82-1.26.12,0,.22.01.28.04v1.12Z"/>
      <path class="st6" d="M633.12,642.23c0,.2.1.36.36.36.1,0,.22-.01.36-.05v.79c-.22.07-.38.12-.61.12-.68,0-1.1-.25-1.14-.99-.73.83-1.56,1.05-2.32,1.05-1.2,0-2.04-.75-2.04-1.87s.64-1.87,1.95-2.03l1.8-.22c.39-.05.57-.26.57-.75,0-.7-.49-1.06-1.52-1.06-.88,0-1.37.36-1.48,1.25h-1c.03-1.37.89-2.15,2.61-2.15,1.35,0,2.46.54,2.46,1.82v3.73ZM632.03,641.09v-1.06c-.26.22-.96.28-1.95.43-.73.11-1.22.38-1.22,1.04s.33,1.11,1.17,1.11c1.03,0,2-.68,2-1.52Z"/>
      <path class="st6" d="M640.33,634.45v8.87h-1.03v-.89h-.02c-.31.59-.88,1.08-1.87,1.08-1.88,0-2.82-1.63-2.82-3.61s1.08-3.23,2.69-3.23c.79,0,1.38.3,1.93,1.1h.02v-3.32h1.09ZM637.46,642.57c.99,0,1.77-.78,1.77-2.16,0-1.83-.56-2.76-1.76-2.76-.96,0-1.76.53-1.76,2.34,0,1.67.66,2.58,1.74,2.58Z"/>
      <path class="st6" d="M642.95,634.45v1.24h-1.09v-1.24h1.09ZM642.95,636.86v6.46h-1.09v-6.46h1.09Z"/>
      <path class="st6" d="M649.3,638.7h-1.05c0-.7-.53-1.09-1.5-1.09-.75,0-1.32.31-1.32.92,0,.43.21.63,1.06.84l1.25.31c1.24.31,1.77.79,1.77,1.69,0,1.27-1.04,2.14-2.57,2.14-1.74,0-2.73-.69-2.77-2.26h1.05c.05.98.7,1.32,1.71,1.32.9,0,1.5-.38,1.5-1.01s-.64-.77-1.36-.95l-1.12-.28c-.74-.19-1.56-.53-1.56-1.58,0-1.27.99-2.06,2.48-2.06s2.37.85,2.43,2.03Z"/>
      <path class="st6" d="M651.62,640.45c0,1.37.64,2.13,1.88,2.13.89,0,1.59-.64,1.67-1.27h1.09c-.11.54-.62,2.21-2.84,2.21-1.93,0-2.95-1.38-2.95-3.25,0-2.16,1.1-3.58,3.1-3.58,1.79,0,2.78,1.38,2.78,3.77h-4.72ZM655.22,639.58c-.1-1.32-.73-1.93-1.8-1.93-.95,0-1.78.87-1.79,1.93h3.6Z"/>
    </g>
    <circle class="st8" cx="582.44" cy="593.92" r="3.53"/>
  </g>
  <g id="Layer_5" class="st16">
    <g>
      <circle class="st6" cx="506.25" cy="594.18" r="292.63"/>
      <g>
        <path class="st8" d="M305.12,698.1c-24.65-21.03-5.39-61.58,26.39-55.26,30.13,5.99,67.65,3.79,113.35-14.75,39.19-15.9,75.01-26.68,106.59-33.91,22.47-5.14,35.08,25.09,15.57,37.35-19.76,12.42-40.31,27.89-60.55,47.16-61.79,58.85-140.31,71.46-201.34,19.41Z"/>
        <path class="st14" d="M716.93,642.61c4.83-9.8-1.38-21.54-12.2-23.09-27.19-3.88-78.45-2.8-137.68,40.15-69.93,50.7-80.13,104.17-152,124.01-16.52,4.56-15.74,28.35,1.08,31.64,80.6,15.78,212.11,7.27,300.8-172.7Z"/>
        <circle class="st8" cx="588.61" cy="502.67" r="49.5"/>
        <g>
          <path class="st8" d="M403.03,483.47c.84-7.22-9.35-9.61-11.74-2.74-25.96,74.72-62.24,195.92-25.45,198.71,48.16,3.65,21.87-64.21,37.19-195.97Z"/>
          <path class="st13" d="M500.9,464.23c-12.4-12.16-33.1-23.34-67.37-23.81,0,0,20.21-15.31,42.22-24.44,9.66-4,7.04-18.5-3.41-18.62-13.21-.14-29.69,4.58-48.13,20.34,2.47-12.3,2.14-28.01-6.89-44.92-4.97-9.31-19.14-4.92-18.15,5.58,1.08,11.4,1.56,24.19.42,35.91-6.85-11.7-19.21-25.22-41.06-31.04-10.19-2.72-16.66,10.63-8.3,17.07,12.73,9.81,26.71,22.32,34.88,35.03,0,0-42.12-19.62-78.51,4.68-8.57,5.72-3.2,19.18,6.97,17.55,14.44-2.31,33.5-3.66,56.41-1.48,0,0-19.59,10.55-32.72,30.89-6.43,9.96,7.37,20.51,15.32,11.71,11.38-12.6,27.19-25.66,48.65-35.15,0,0,28.66,26.41,43.75,56.11,4.84,9.53,19.48,5.09,18.2-5.52-1.76-14.62-8.79-31.82-26.65-49.66,0,0,27.32,4.58,53.79,15.52,9.77,4.03,18.14-8.33,10.59-15.73Z"/>
        </g>
      </g>
    </g>
  </g>
</svg>