<?xml version="1.0" encoding="UTF-8"?>
<svg xmlns="http://www.w3.org/2000/svg" version="1.1" xmlns:xlink="http://www.w3.org/1999/xlink" viewBox="0 0 886.92 487.28">
  <!-- Generator: Adobe Illustrator 30.5.1, SVG Export Plug-In . SVG Version: 2.1.4 Build 3)  -->
  <defs>
    <style>
      .st0 {
        font-size: 35.66px;
      }

      .st1 {
        font-size: 13.92px;
      }

      .st1, .st2, .st3 {
        font-family: HelveticaLTPro-Light, 'Helvetica LT Pro';
        font-weight: 300;
      }

      .st1, .st4 {
        fill: #2afffc;
      }

      .st2 {
        font-size: 10.25px;
      }

      .st2, .st5, .st3, .st6, .st7 {
        fill: #063065;
      }

      .st5 {
        font-family: GamtanRoad-Tantan-KSCpc-EUC-H, 'GamtanRoad Tantan';
        font-size: 28px;
      }

      .st8 {
        font-size: 43.6px;
      }

      .st9 {
        fill: #0091f8;
      }

      .st10 {
        font-family: ApparatSemiCond-Bold, ApparatSemiCond;
      }

      .st10, .st11, .st12 {
        fill: #fff;
      }

      .st10, .st7 {
        font-weight: 700;
      }

      .st13 {
        fill: #0592f8;
      }

      .st3 {
        font-size: 19px;
      }

      .st14 {
        font-size: 35.44px;
      }

      .st12 {
        font-family: ApparatSemiCond-Regular, ApparatSemiCond;
        font-size: 7.95px;
      }

      .st15 {
        font-size: 28.49px;
      }

      .st16 {
        display: none;
      }

      .st7 {
        font-family: HelveticaLTPro-Bold, 'Helvetica LT Pro';
      }
    </style>
    <path id="path" d="M671.45,375.74c0,57.14,46.32,103.47,103.47,103.47s103.47-46.32,103.47-103.47"/>
    <path id="path1" d="M684.09,370.45c0-48.38,40.7-87.59,90.9-87.59s90.9,39.22,90.9,87.59"/>
  </defs>
  <g id="Layer_1" class="st16">
    <rect class="st6" x="439.07" y="298.51" width="149.67" height="149.67" rx="30.31" ry="30.31"/>
    <path class="st6" d="M18.14,309.58c-4.7-8.75-7.13-18.78-6.17-28.76.58-5.9,4.12-13,11.02-12.83,2.42.06,4.57.86,6.49,1.91-2.21-.02-4.33,0-6.19.53-5.98,1.71-6.35,8.63-6.55,13.91-.14,8.36,1.06,16.73,1.41,25.24h0Z"/>
    <path class="st6" d="M11.91,309.58c-1.04-8.36-.96-16.67-1.44-24.95-.11-2.02-.27-4.03-.53-5.97-.43-2.5-.66-5.32-2.48-6.81-1.31-.75-3.34.25-4.74.96-.92.47-1.79,1.06-2.72,1.62.53-.94,1.12-1.85,1.84-2.69,6.14-7.13,11.5-.97,12.76,6.08,1.99,10.62.79,21.6-2.7,31.76h0Z"/>
    <path class="st6" d="M3.4,289.34c-.87-6.83,2.45-15,9.54-17.24,4.33-1.35,9.22,1.08,11.43,4.59-2.66-.54-5.06-1.02-7.12-.82-6.82.78-9.88,8.44-13.86,13.47h0Z"/>
    <g>
      <rect class="st6" x="168.32" y="108.11" width="149.67" height="149.67" rx="30.31" ry="30.31"/>
      <path class="st9" d="M191.95,209.79c-6.35-5.42-1.39-15.87,6.8-14.24,7.76,1.54,17.43.98,29.21-3.8,10.1-4.1,19.33-6.87,27.47-8.74,5.79-1.33,9.04,6.46,4.01,9.62s-10.39,7.19-15.6,12.15c-15.92,15.16-36.15,18.41-51.88,5Z"/>
      <path class="st4" d="M298.07,195.49c1.24-2.53-.36-5.55-3.14-5.95-7.01-1-20.21-.72-35.48,10.34-18.02,13.06-20.65,26.84-39.17,31.95-4.26,1.17-4.06,7.3.28,8.15,20.77,4.06,54.65,1.87,77.51-44.5Z"/>
      <circle class="st9" cx="265" cy="159.44" r="12.76"/>
      <g>
        <path class="st9" d="M217.18,154.49c.22-1.86-2.41-2.48-3.02-.71-6.69,19.25-16.04,50.48-6.56,51.2,12.41.94,5.64-16.55,9.58-50.5Z"/>
        <path class="st13" d="M242.4,149.53c-3.2-3.13-8.53-6.01-17.36-6.14,0,0,5.21-3.95,10.88-6.3,2.49-1.03,1.81-4.77-.88-4.8-3.4-.04-7.65,1.18-12.4,5.24.64-3.17.55-7.22-1.78-11.58-1.28-2.4-4.93-1.27-4.68,1.44.28,2.94.4,6.23.11,9.25-1.77-3.01-4.95-6.5-10.58-8-2.63-.7-4.29,2.74-2.14,4.4,3.28,2.53,6.88,5.75,8.99,9.03,0,0-10.85-5.05-20.23,1.2-2.21,1.47-.82,4.94,1.8,4.52,3.72-.6,8.63-.94,14.53-.38,0,0-5.05,2.72-8.43,7.96-1.66,2.57,1.9,5.28,3.95,3.02,2.93-3.25,7.01-6.61,12.54-9.06,0,0,7.38,6.8,11.27,14.46,1.25,2.46,5.02,1.31,4.69-1.42-.45-3.77-2.27-8.2-6.87-12.8,0,0,7.04,1.18,13.86,4,2.52,1.04,4.67-2.15,2.73-4.05Z"/>
      </g>
    </g>
    <g>
      <text class="st7" transform="translate(327.58 140.63)"><tspan class="st8" x="0" y="0">Beevaa</tspan><tspan class="st14" x="152.69" y="0"> </tspan><tspan class="st14"><tspan x="0" y="34.74">maldives</tspan></tspan></text>
      <text class="st2" transform="translate(329.84 194.95)"><tspan x="0" y="0">your journey to tropical paradise</tspan></text>
    </g>
    <text class="st7" transform="translate(555.81 37.45)"><tspan class="st8" x="0" y="0">Beevaa</tspan><tspan class="st14" x="152.69" y="0"> </tspan><tspan class="st14"><tspan x="0" y="34.74">maldives</tspan></tspan></text>
    <text class="st2" transform="translate(558.08 91.78)"><tspan x="0" y="0">your journey to tropical paradise</tspan></text>
    <g>
      <path class="st11" d="M467.96,313.22c4.95,0,7.75,2.94,7.75,6.63,0,2.19-.68,4.09-3.16,5.24,2.44.86,3.98,2.9,3.98,6.24,0,1.9-.68,3.73-2.19,5.27-1.4,1.43-3.16,2.37-7.71,2.37h-11.37v-15.91c0-5.43,4.4-9.84,9.84-9.84h2.86ZM466.81,323.3c1.9,0,3.73-.65,3.73-2.87s-1.79-2.76-3.91-2.76h-.57c-3.11,0-5.63,2.52-5.63,5.63h0s6.38,0,6.38,0ZM467.07,334.52c2.44,0,4.09-1.04,4.09-3.77,0-1.9-1.43-3.12-3.91-3.12h-6.81v6.88h6.63Z"/>
      <path class="st11" d="M498.22,330.79h-13.09c.18,3.12,1.65,4.66,4.48,4.66,1.4,0,2.83-.68,3.23-2.08h5.16c-1.11,3.87-4.27,6.1-8.39,6.1-6.31,0-9.5-3.55-9.5-10.4,0-5.63,3.19-9.68,9.11-9.68,4.77,0,9,2.73,9,10.51v.9ZM493.06,327.53c-.25-2.51-1.72-4.02-3.91-4.02-2.29,0-3.59,1.4-3.87,4.02h7.78Z"/>
      <path class="st11" d="M518.16,330.79h-13.09c.18,3.12,1.65,4.66,4.48,4.66,1.4,0,2.83-.68,3.23-2.08h5.16c-1.11,3.87-4.27,6.1-8.39,6.1-6.31,0-9.5-3.55-9.5-10.4,0-5.63,3.19-9.68,9.11-9.68,4.77,0,9,2.73,9,10.51v.9ZM513,327.53c-.25-2.51-1.72-4.02-3.91-4.02-2.29,0-3.59,1.4-3.87,4.02h7.78Z"/>
      <path class="st11" d="M524.69,319.89l3.95,14.06h.07l4.05-14.06h5.34l-6.88,19.08h-5.27l-6.85-19.08h5.59Z"/>
      <path class="st11" d="M555.63,335.42c0,1.86.39,2.51,1.11,2.8v.75h-5.42c-.25-.75-.43-1.43-.47-2.26-1.83,1.97-3.73,2.76-6.17,2.76-3.48,0-5.81-2.15-5.81-5.56,0-2.47.9-5.42,5.99-6.17l3.59-.54c1.86-.29,2.26-.65,2.26-1.61,0-1.33-.82-2.19-3.3-2.19-1.86,0-2.9.82-3.08,2.65h-4.84c.39-4.02,2.29-6.67,8.39-6.67,4.91,0,7.75,2.08,7.75,5.38v10.65ZM550.72,332.04v-2.37c-.86.54-1.65.79-3.59,1.08-2.01.29-3.23,1-3.23,2.83,0,1.4.93,2.29,2.33,2.29,2.22,0,4.48-1.51,4.48-3.84Z"/>
      <path class="st11" d="M575.57,335.42c0,1.86.39,2.51,1.11,2.8v.75h-5.42c-.25-.75-.43-1.43-.47-2.26-1.83,1.97-3.73,2.76-6.17,2.76-3.48,0-5.81-2.15-5.81-5.56,0-2.47.9-5.42,5.99-6.17l3.59-.54c1.86-.29,2.26-.65,2.26-1.61,0-1.33-.83-2.19-3.3-2.19-1.86,0-2.9.82-3.08,2.65h-4.84c.39-4.02,2.29-6.67,8.39-6.67,4.91,0,7.75,2.08,7.75,5.38v10.65ZM570.66,332.04v-2.37c-.86.54-1.65.79-3.59,1.08-2.01.29-3.23,1-3.23,2.83,0,1.4.93,2.29,2.33,2.29,2.22,0,4.48-1.51,4.48-3.84Z"/>
      <path class="st11" d="M467.95,354.1c1.08-1.66,2.42-2.48,4.14-2.48,3.35,0,5.39,2.19,5.39,5.1v10.81h-4.08v-9.53c0-2.1-.96-2.94-2.24-2.94-2.07,0-2.74,1.43-2.74,3.15v9.33h-4.08v-9.62c0-2.13-.82-2.86-2.45-2.86-1.72,0-2.54,1.14-2.54,2.91v9.56h-4.08v-15.5h3.91v2.27h.06c.93-1.84,2.45-2.68,4.4-2.68s3.15.53,4.31,2.48Z"/>
      <path class="st11" d="M493.77,364.65c0,1.52.32,2.04.9,2.27v.61h-4.4c-.2-.61-.35-1.17-.38-1.84-1.49,1.6-3.03,2.24-5.01,2.24-2.83,0-4.72-1.75-4.72-4.52,0-2.01.73-4.4,4.87-5.01l2.91-.44c1.52-.23,1.84-.52,1.84-1.31,0-1.08-.67-1.78-2.68-1.78-1.52,0-2.36.67-2.51,2.16h-3.93c.32-3.26,1.87-5.42,6.82-5.42,3.99,0,6.29,1.69,6.29,4.37v8.66ZM489.78,361.91v-1.92c-.7.44-1.34.64-2.91.88-1.63.23-2.62.82-2.62,2.3,0,1.14.76,1.87,1.89,1.87,1.81,0,3.64-1.22,3.64-3.12Z"/>
      <path class="st11" d="M501.62,346.61v20.93h-4.08v-20.93h4.08Z"/>
      <path class="st11" d="M519.69,346.61v20.93h-3.99v-1.95h-.06c-1.02,1.75-2.77,2.36-4.49,2.36-4.11,0-6.53-3.41-6.53-8.33s2.68-7.99,6.44-7.99c2.01,0,3.53.88,4.49,2.42h.06v-7.43h4.08ZM515.78,360.13c0-3.12-1.17-4.98-3.53-4.98-2.19,0-3.44,1.72-3.44,4.72,0,2.68,1.25,4.72,3.35,4.72,2.24,0,3.61-1.75,3.61-4.46Z"/>
      <path class="st11" d="M527.53,352.03v15.5h-4.08v-15.5h4.08Z"/>
      <path class="st11" d="M534.47,352.03l3.21,11.42h.06l3.29-11.42h4.34l-5.6,15.5h-4.28l-5.57-15.5h4.55Z"/>
      <path class="st11" d="M561.14,360.89h-10.64c.15,2.54,1.34,3.79,3.64,3.79,1.14,0,2.3-.55,2.62-1.69h4.2c-.9,3.15-3.47,4.96-6.82,4.96-5.13,0-7.72-2.89-7.72-8.45,0-4.58,2.59-7.87,7.4-7.87,3.88,0,7.31,2.21,7.31,8.54v.73ZM556.94,358.24c-.2-2.04-1.4-3.26-3.18-3.26-1.87,0-2.91,1.14-3.15,3.26h6.32Z"/>
      <path class="st11" d="M576.62,356.75h-3.99c-.23-1.54-1.14-2.04-2.77-2.04-1.54,0-2.48.38-2.48,1.52,0,1.05,1.98,1.4,3.93,1.78,4.49.85,5.77,2.39,5.77,4.58,0,3.79-3.09,5.36-6.88,5.36-4.58,0-7.37-2.07-7.37-5.36h4.2c0,1.25.76,2.27,3.35,2.27,1.63,0,2.62-.67,2.62-1.6,0-1.02-1.37-1.37-4.2-1.89-3.61-.64-5.42-2.01-5.42-4.55,0-3.06,2.27-5.19,6.27-5.19,4.66,0,6.79,1.98,6.96,5.13Z"/>
    </g>
    <text class="st1" transform="translate(455.27 385.03)"><tspan x="0" y="0">your </tspan><tspan x="0" y="15">journey to</tspan><tspan x="0" y="30">tropical </tspan><tspan x="0" y="45">paradise</tspan></text>
    <rect class="st6" x="168.32" y="309.58" width="149.67" height="149.67" rx="30.31" ry="30.31"/>
    <g>
      <path class="st9" d="M190.41,365.71c-2.95-2.52-.65-7.38,3.16-6.62,3.61.72,8.1.45,13.58-1.77,4.7-1.91,8.99-3.2,12.77-4.06,2.69-.62,4.2,3.01,1.86,4.47s-4.83,3.34-7.25,5.65c-7.4,7.05-16.81,8.56-24.12,2.33Z"/>
      <path class="st4" d="M239.74,359.06c.58-1.17-.17-2.58-1.46-2.77-3.26-.47-9.4-.34-16.49,4.81-8.38,6.07-9.6,12.48-18.21,14.86-1.98.55-1.89,3.4.13,3.79,9.66,1.89,25.41.87,36.04-20.69Z"/>
      <circle class="st9" cx="224.37" cy="342.3" r="5.93"/>
      <g>
        <path class="st9" d="M202.14,340c.1-.86-1.12-1.15-1.41-.33-3.11,8.95-7.46,23.47-3.05,23.81,5.77.44,2.62-7.69,4.46-23.48Z"/>
        <path class="st13" d="M213.86,337.69c-1.49-1.46-3.97-2.8-8.07-2.85,0,0,2.42-1.83,5.06-2.93,1.16-.48.84-2.22-.41-2.23-1.58-.02-3.56.55-5.77,2.44.3-1.47.26-3.36-.83-5.38-.6-1.11-2.29-.59-2.17.67.13,1.37.19,2.9.05,4.3-.82-1.4-2.3-3.02-4.92-3.72-1.22-.33-2,1.27-.99,2.05,1.52,1.17,3.2,2.67,4.18,4.2,0,0-5.05-2.35-9.41.56-1.03.69-.38,2.3.84,2.1,1.73-.28,4.01-.44,6.76-.18,0,0-2.35,1.26-3.92,3.7-.77,1.19.88,2.46,1.84,1.4,1.36-1.51,3.26-3.07,5.83-4.21,0,0,3.43,3.16,5.24,6.72.58,1.14,2.33.61,2.18-.66-.21-1.75-1.05-3.81-3.19-5.95,0,0,3.27.55,6.44,1.86,1.17.48,2.17-1,1.27-1.88Z"/>
      </g>
    </g>
    <g>
      <text class="st10" transform="translate(188.15 405.69)"><tspan class="st0" x="0" y="0">Beevaa</tspan><tspan class="st15" x="110.19" y="0"> </tspan><tspan class="st15"><tspan x="0" y="27.92">maldives</tspan></tspan></text>
      <text class="st12" transform="translate(189.98 446.29)"><tspan x="0" y="0">your journey to tropical paradise</tspan></text>
    </g>
    <g>
      <path class="st9" d="M511.54,420.04c-4.34-3.7-.95-10.85,4.65-9.74,5.31,1.05,11.92.67,19.97-2.6,6.9-2.8,13.22-4.7,18.78-5.97,3.96-.91,6.18,4.42,2.74,6.58s-7.1,4.91-10.67,8.31c-10.89,10.37-24.72,12.59-35.47,3.42Z"/>
      <path class="st4" d="M584.09,410.27c.85-1.73-.24-3.8-2.15-4.07-4.79-.68-13.82-.49-24.26,7.07-12.32,8.93-14.12,18.35-26.78,21.85-2.91.8-2.77,4.99.19,5.57,14.2,2.78,37.37,1.28,52.99-30.43Z"/>
      <circle class="st9" cx="561.48" cy="385.62" r="8.72"/>
      <g>
        <path class="st9" d="M528.79,382.23c.15-1.27-1.65-1.69-2.07-.48-4.57,13.16-10.96,34.52-4.48,35.01,8.48.64,3.85-11.31,6.55-34.52Z"/>
        <path class="st13" d="M546.03,378.84c-2.18-2.14-5.83-4.11-11.87-4.19,0,0,3.56-2.7,7.44-4.31,1.7-.71,1.24-3.26-.6-3.28-2.33-.03-5.23.81-8.48,3.58.43-2.17.38-4.93-1.21-7.91-.88-1.64-3.37-.87-3.2.98.19,2.01.27,4.26.07,6.33-1.21-2.06-3.38-4.44-7.23-5.47-1.8-.48-2.93,1.87-1.46,3.01,2.24,1.73,4.71,3.93,6.15,6.17,0,0-7.42-3.46-13.83.82-1.51,1.01-.56,3.38,1.23,3.09,2.54-.41,5.9-.64,9.94-.26,0,0-3.45,1.86-5.76,5.44-1.13,1.75,1.3,3.61,2.7,2.06,2-2.22,4.79-4.52,8.57-6.19,0,0,5.05,4.65,7.71,9.89.85,1.68,3.43.9,3.21-.97-.31-2.57-1.55-5.61-4.69-8.75,0,0,4.81.81,9.48,2.73,1.72.71,3.2-1.47,1.87-2.77Z"/>
      </g>
    </g>
    <circle class="st4" cx="525.49" cy="345.8" r="3.31"/>
    <g>
      <circle class="st6" cx="774.92" cy="374.74" r="75.4"/>
      <text>
        <textPath startOffset="2.69%" xlink:href="#path"><tspan class="st3"><tspan x="0" y="0" xml:space="preserve"> your journey to tropical paradise</tspan></tspan>
        </textPath></text>
      <text>
        <textPath startOffset="2.93%" xlink:href="#path1"><tspan class="st5"><tspan x="0" y="0" xml:space="preserve"> Beevaa maldives</tspan></tspan>
        </textPath></text>
      <g>
        <path class="st9" d="M723.09,401.51c-6.35-5.42-1.39-15.87,6.8-14.24,7.76,1.54,17.43.98,29.21-3.8,10.1-4.1,19.33-6.87,27.47-8.74,5.79-1.33,9.04,6.46,4.01,9.62-5.09,3.2-10.39,7.19-15.6,12.15-15.92,15.16-36.15,18.41-51.88,5Z"/>
        <path class="st4" d="M829.21,387.22c1.24-2.53-.36-5.55-3.14-5.95-7.01-1-20.21-.72-35.48,10.34-18.02,13.06-20.65,26.84-39.17,31.95-4.26,1.17-4.06,7.3.28,8.15,20.77,4.06,54.65,1.87,77.51-44.5Z"/>
        <circle class="st9" cx="796.14" cy="351.16" r="12.76"/>
        <g>
          <path class="st9" d="M748.32,346.21c.22-1.86-2.41-2.48-3.02-.71-6.69,19.25-16.04,50.48-6.56,51.2,12.41.94,5.64-16.55,9.58-50.5Z"/>
          <path class="st13" d="M773.54,341.25c-3.2-3.13-8.53-6.01-17.36-6.14,0,0,5.21-3.95,10.88-6.3,2.49-1.03,1.81-4.77-.88-4.8-3.4-.04-7.65,1.18-12.4,5.24.64-3.17.55-7.22-1.78-11.58-1.28-2.4-4.93-1.27-4.68,1.44.28,2.94.4,6.23.11,9.25-1.77-3.01-4.95-6.5-10.58-8-2.63-.7-4.29,2.74-2.14,4.4,3.28,2.53,6.88,5.75,8.99,9.03,0,0-10.85-5.05-20.23,1.2-2.21,1.47-.82,4.94,1.8,4.52,3.72-.6,8.63-.94,14.53-.38,0,0-5.05,2.72-8.43,7.96-1.66,2.57,1.9,5.28,3.95,3.02,2.93-3.25,7.01-6.61,12.54-9.06,0,0,7.38,6.8,11.27,14.46,1.25,2.46,5.02,1.31,4.69-1.42-.45-3.77-2.27-8.2-6.87-12.8,0,0,7.04,1.18,13.86,4,2.52,1.04,4.67-2.15,2.73-4.05Z"/>
        </g>
      </g>
      <path class="st13" d="M884.79,371.56c-1.77-1.29-4.56-2.31-8.85-1.74,0,0,2.24-2.28,4.82-3.83,1.13-.68.54-2.44-.77-2.26-1.65.22-3.62,1.12-5.64,3.42.08-1.58-.25-3.54-1.69-5.48-.79-1.07-2.48-.26-2.16,1.03.34,1.4.64,2.99.71,4.48-1.07-1.33-2.86-2.8-5.7-3.12-1.32-.15-1.88,1.63-.72,2.28,1.77.99,3.75,2.3,5,3.73,0,0-5.62-1.68-9.72,2.02-.96.87-.05,2.45,1.19,2.06,1.76-.55,4.12-1.07,7.02-1.22,0,0-2.25,1.68-3.52,4.46-.62,1.36,1.3,2.43,2.13,1.18,1.19-1.78,2.92-3.7,5.43-5.28,0,0,4.06,2.77,6.49,6.2.78,1.1,2.53.28,2.17-1.02-.49-1.79-1.68-3.81-4.24-5.71,0,0,3.5.07,7,.95,1.29.32,2.11-1.37,1.03-2.16Z"/>
      <path class="st13" d="M688.34,371.56c-1.77-1.29-4.56-2.31-8.85-1.74,0,0,2.24-2.28,4.82-3.83,1.13-.68.54-2.44-.77-2.26-1.65.22-3.62,1.12-5.64,3.42.08-1.58-.25-3.54-1.69-5.48-.79-1.07-2.48-.26-2.16,1.03.34,1.4.64,2.99.71,4.48-1.07-1.33-2.86-2.8-5.7-3.12-1.32-.15-1.88,1.63-.72,2.28,1.77.99,3.75,2.3,5,3.73,0,0-5.62-1.68-9.72,2.02-.96.87-.05,2.45,1.19,2.06,1.76-.55,4.12-1.07,7.02-1.22,0,0-2.25,1.68-3.52,4.46-.62,1.36,1.3,2.43,2.13,1.18,1.19-1.78,2.92-3.7,5.43-5.28,0,0,4.06,2.77,6.49,6.2.78,1.1,2.53.28,2.17-1.02-.49-1.79-1.68-3.81-4.24-5.71,0,0,3.5.07,7,.95,1.29.32,2.11-1.37,1.03-2.16Z"/>
    </g>
  </g>
  <g id="Layer_2" class="st16">
    <g>
      <circle class="st6" cx="505.53" cy="380.96" r="75.4"/>
      <g>
        <path class="st6" d="M413.04,396.88l-7.7,4.71,8.9,1.48.24,1.21-11.29-1.92c-.66-.12-1.87-.37-2.56-.8-.53-.32-.81-.79-.91-1.28-.07-.37-.1-.79-.08-1.12l1.04-.2c0,.39.01.66.07.95.13.67.65.98,1.83,1.17l1.2.19,9-5.64.24,1.25Z"/>
        <path class="st6" d="M412.66,415.31c-2.98.92-5.49-.22-6.29-2.82-.76-2.49.45-4.93,3.61-5.9,2.92-.9,5.45.09,6.3,2.83.84,2.74-.62,4.96-3.62,5.88ZM407.35,412.18c.64,2.07,2.65,2.68,4.92,1.98,2.47-.76,3.69-2.29,3.02-4.45-.6-1.96-2.54-2.7-4.95-1.96-2.47.76-3.6,2.44-2.99,4.42Z"/>
        <path class="st6" d="M418.06,415.64l.45,1.05-5.99,2.6c-1.45.63-2.05,1.68-1.33,3.33.73,1.67,2.54,2.17,4.65,1.25l4.88-2.12.45,1.04-9.03,3.92-.45-1.05,1.25-.54c-1.53-.47-2.26-1.11-2.77-2.28-.91-2.09-.25-3.68,1.91-4.62l5.98-2.6Z"/>
        <path class="st6" d="M423.67,429.46l-.06-.12c-1.02-1.87-2.73-2.06-4.99-.83l-4.29,2.34-.55-1,8.64-4.71.55,1-1.62.88.02.03c1.57-.18,2.53.24,3.37,1.78l.02.03-1.08.59Z"/>
        <path class="st6" d="M428.46,435.13l.65.93-9.38,6.55c-1.56,1.09-2.22.81-3-.32-.15-.22-.28-.43-.36-.65l.83-.58c.07.14.15.29.24.41.47.67.94.69,1.69.16l9.33-6.52ZM432.29,433.91l-1.39.97-.72-1.03,1.39-.97.72,1.03Z"/>
        <path class="st6" d="M432.17,447.91c-2.41,1.97-5.17,1.88-6.89-.23-1.65-2.01-1.45-4.73,1.11-6.83,2.37-1.94,5.08-1.98,6.9.24,1.82,2.22,1.3,4.83-1.12,6.81ZM426.06,447.02c1.37,1.67,3.47,1.48,5.31-.03,2-1.64,2.55-3.51,1.12-5.26-1.3-1.59-3.37-1.54-5.32.07-2,1.64-2.41,3.62-1.1,5.22Z"/>
        <path class="st6" d="M437.31,446.19l.82.8-4.57,4.68c-1.1,1.13-1.26,2.33.03,3.59,1.31,1.27,3.17,1.05,4.78-.59l3.72-3.81.82.8-6.88,7.04-.82-.8.96-.98c-1.6.14-2.51-.17-3.43-1.06-1.63-1.59-1.62-3.31.02-5l4.55-4.66Z"/>
        <path class="st6" d="M447.73,456.88l-.1-.08c-1.65-1.35-3.3-.89-4.94,1.11l-3.09,3.78-.88-.72,6.24-7.62.88.72-1.17,1.43.03.02c1.38-.76,2.44-.73,3.79.38l.03.02-.78.96Z"/>
        <path class="st6" d="M450.91,469.93l-.94-.64,3.63-5.37c.92-1.37.87-2.55-.64-3.57-1.39-.94-3.18-.66-4.42,1.19l-3.15,4.66-.94-.64,5.51-8.16.95.64-.77,1.13c1.64-.39,2.62-.21,3.54.42,1.61,1.08,2.3,2.84,1.08,4.65l-3.84,5.68Z"/>
        <path class="st6" d="M463.62,471.57l-6.77-3.55c-1.12,2.14-.63,4.07,1.12,4.99,1.35.71,2.76.46,3.69-.62l1.13.59c-1.67,1.68-3.36,1.95-5.3.93-2.58-1.35-3.1-3.84-1.62-6.65,1.4-2.68,4.09-3.78,6.44-2.54,2.41,1.26,2.94,3.73,1.3,6.84ZM462.98,470.17c.96-1.88.54-3.65-1.16-4.54-1.55-.81-3.23-.26-4.53,1.55l5.69,2.99Z"/>
        <path class="st6" d="M468.13,467.88l-.19,9.02,6.05-6.69,1.15.46-7.71,8.47c-.46.49-1.32,1.38-2.05,1.72-.56.27-1.1.26-1.56.08-.35-.14-.72-.35-.99-.54l.39-.99c.33.21.56.34.84.46.64.25,1.17-.03,1.98-.91l.81-.91.11-10.62,1.18.47Z"/>
        <path class="st6" d="M482.67,469.96l1.11.27-.66,2.65,1.79.44-.23.92-1.79-.44-1.69,6.8c-.27,1.07.17,1.2.74,1.34.29.07.55.08.88.08l-.22.9c-.29-.01-.76.05-1.33-.09-1.22-.3-1.53-1.08-1.24-2.26l1.75-7.04-1.35-.33.23-.92,1.34.33.66-2.65Z"/>
        <path class="st6" d="M494.22,479.97c-.5,3.08-2.62,4.83-5.31,4.4-2.57-.41-4.22-2.58-3.69-5.85.49-3.02,2.49-4.85,5.33-4.39,2.83.46,4.17,2.75,3.68,5.84ZM489.06,483.35c2.14.34,3.58-1.19,3.96-3.54.41-2.55-.42-4.32-2.65-4.68-2.03-.33-3.54,1.08-3.94,3.58-.41,2.55.59,4.31,2.64,4.64Z"/>
        <path class="st6" d="M502.59,472.8l1.14.03-.06,2.74,1.84.04-.02.95-1.84-.04-.16,7.01c-.03,1.1.43,1.13,1.02,1.14.3,0,.55-.04.88-.11l-.02.93c-.29.05-.73.21-1.32.2-1.25-.03-1.73-.72-1.71-1.94l.16-7.26-1.39-.03.02-.95,1.39.03.06-2.74Z"/>
        <path class="st6" d="M511.78,476.39h-.13c-2.13.08-3.06,1.53-2.96,4.11l.18,4.88-1.14.04-.37-9.83,1.14-.04.07,1.84h.04c.53-1.49,1.34-2.16,3.09-2.23h.04s.05,1.23.05,1.23Z"/>
        <path class="st6" d="M522.16,479.22c.38,3.09-1.18,5.37-3.88,5.7-2.58.32-4.77-1.31-5.17-4.59-.37-3.04,1.05-5.35,3.9-5.7,2.85-.35,4.77,1.48,5.16,4.6ZM518.14,483.9c2.15-.26,3.11-2.14,2.82-4.5-.31-2.56-1.6-4.03-3.85-3.76-2.04.25-3.1,2.03-2.8,4.53.31,2.57,1.77,3.98,3.82,3.72Z"/>
        <path class="st6" d="M533.51,476.58c.72,2.95-.36,5.44-3.02,6.09-1.38.34-2.87.03-3.87-.96l1.29,5.3-1.11.27-3.24-13.33,1.11-.27.41,1.68h.04c.35-1.37,1.54-2.44,2.85-2.75,2.79-.68,4.77.8,5.54,3.97ZM530.05,481.72c2.05-.5,2.88-2.4,2.28-4.88-.69-2.84-2.45-3.65-4.26-3.21-1.92.47-2.82,2.41-2.22,4.86.56,2.31,2.3,3.68,4.21,3.22Z"/>
        <path class="st6" d="M534.57,466.95l.54,1.6-1.19.4-.54-1.6,1.19-.4ZM534.65,470.97l1.08-.36,3.11,9.33-1.08.36-3.11-9.33Z"/>
        <path class="st6" d="M547.07,469.44l-1.07.45c-.94-1.19-2.19-1.61-3.61-1.01-1.91.81-2.36,2.92-1.42,5.14.94,2.22,2.72,3.35,4.66,2.53,1.52-.64,2.15-1.9,1.75-3.61l1.12-.47c.51,2.34-.36,4.13-2.47,5.03-2.64,1.12-4.91,0-6.18-3-1.16-2.75-.37-5.5,2.14-6.56,2.15-.91,3.88-.4,5.07,1.51Z"/>
        <path class="st6" d="M555.83,464.23l2.7,4.81c.26.46.51.67.84.49.15-.08.34-.21.54-.48l.44.78c-.18.19-.44.46-.74.63-.83.47-1.38.3-1.94-.66-.31,1.42-1.16,2.52-2.4,3.22-1.66.93-3.4.67-4.25-.86-.8-1.43-.44-2.8,1.85-4.51l.86-.64c1.31-.97,1.67-1.22,1.12-2.2-.63-1.13-1.71-1.33-3.12-.54-1.61.9-2,1.95-1.41,3.34l-1.01.57c-.88-1.88-.18-3.62,1.94-4.82,2.09-1.17,3.67-.76,4.58.85ZM554.84,472.09c1.79-1.01,2.58-2.71,1.74-4.2l-.78-1.39c-.38.49-.77.89-2.32,1.93-1.52,1.03-2,2.06-1.38,3.17.52.93,1.61,1.12,2.74.49Z"/>
        <path class="st6" d="M554.87,456.99l.95-.63,7.6,11.37-.95.63-7.6-11.37Z"/>
        <path class="st6" d="M574.52,452.46c2.02,2.27,2.24,4.97.19,6.79-1.06.95-2.52,1.37-3.86.97l3.62,4.07-.85.76-9.11-10.25.85-.76,1.15,1.29.03-.03c-.32-1.36.22-2.87,1.23-3.76,2.14-1.91,4.58-1.53,6.75.91ZM573.88,458.63c1.58-1.4,1.41-3.47-.28-5.37-1.94-2.19-3.87-2.07-5.26-.83-1.48,1.31-1.36,3.44.32,5.33,1.58,1.77,3.76,2.17,5.22.87Z"/>
        <path class="st6" d="M579.9,443.33l4.11,3.67c.4.35.7.47.95.19.11-.13.25-.31.35-.62l.67.59c-.11.24-.26.58-.49.84-.63.71-1.21.73-2.04,0,.16,1.44-.27,2.76-1.22,3.82-1.26,1.42-3,1.73-4.3.57-1.22-1.09-1.33-2.51.29-4.86l.61-.88c.92-1.34,1.18-1.7.34-2.44-.96-.86-2.04-.7-3.12.5-1.23,1.38-1.26,2.49-.25,3.62l-.77.87c-1.44-1.49-1.35-3.37.27-5.18,1.59-1.79,3.23-1.91,4.6-.68ZM581.51,451.08c1.37-1.53,1.56-3.4.28-4.54l-1.19-1.06c-.19.59-.44,1.09-1.56,2.58-1.1,1.46-1.22,2.6-.28,3.45.79.71,1.89.54,2.75-.42Z"/>
        <path class="st6" d="M583.03,436.28l-.08.11c-1.27,1.71-.73,3.34,1.34,4.88l3.92,2.92-.68.92-7.9-5.88.68-.92,1.48,1.1.02-.03c-.82-1.35-.84-2.4.2-3.81l.02-.03.99.74Z"/>
        <path class="st6" d="M589.55,429.29l4.69,2.89c.45.28.77.34.97.02.09-.15.19-.35.24-.68l.76.47c-.06.25-.16.62-.34.91-.5.81-1.06.93-2.01.37.41,1.39.22,2.77-.53,3.98-1,1.62-2.65,2.23-4.13,1.31-1.39-.86-1.75-2.24-.57-4.83l.44-.98c.67-1.48.87-1.88-.09-2.46-1.1-.68-2.14-.33-2.98,1.04-.97,1.57-.8,2.67.39,3.61l-.61.99c-1.68-1.22-1.92-3.08-.64-5.15,1.26-2.04,2.84-2.44,4.41-1.48ZM592.5,436.63c1.08-1.75.93-3.62-.52-4.52l-1.36-.84c-.09.61-.24,1.15-1.08,2.81-.83,1.63-.75,2.77.33,3.44.91.56,1.95.2,2.63-.9Z"/>
        <path class="st6" d="M588.33,416.9l.48-1.03,12.4,5.77-.48,1.03-1.57-.73-.02.04c.84,1.08.94,2.7.37,3.94-1.21,2.6-3.58,3.24-6.54,1.86-2.76-1.28-4.05-3.68-2.89-6.18.6-1.29,1.81-2.26,3.15-2.41l-4.91-2.28ZM591.09,421.87c-.83,1.77-.05,3.66,2.41,4.81,2.64,1.23,4.36.35,5.14-1.32.84-1.81-.11-3.72-2.41-4.79-2.12-.99-4.31-.52-5.15,1.29Z"/>
        <path class="st6" d="M590.07,412.31l1.59.58-.43,1.18-1.59-.58.43-1.18ZM593.26,414.75l.39-1.07,9.24,3.39-.39,1.07-9.24-3.39Z"/>
        <path class="st6" d="M599.25,405.15l-.32,1.11c-1.36-.21-2.28.45-2.72,1.99-.4,1.39.04,2.33,1.01,2.6,1,.29,1.67-.53,2.39-1.79,1.39-2.45,2.27-3.44,3.95-2.96,1.72.49,2.33,2.29,1.66,4.63-.6,2.1-2.26,3.13-4.25,2.7l.32-1.11c1.65.12,2.55-.49,3.04-2.19.41-1.44-.04-2.54-1.1-2.85-.71-.2-1.35-.11-2.63,2.29-1.27,2.36-2.28,2.86-3.67,2.47-1.68-.48-2.23-2.22-1.7-4.08.63-2.21,1.98-3.13,4.02-2.8Z"/>
        <path class="st6" d="M603.63,394.75l-1.32,7.53c2.38.42,4.07-.64,4.41-2.58.26-1.5-.4-2.77-1.71-3.33l.22-1.25c2.11,1.08,2.88,2.61,2.5,4.76-.5,2.86-2.71,4.12-5.84,3.57-2.98-.52-4.85-2.74-4.39-5.36.47-2.68,2.66-3.93,6.12-3.33ZM602.48,395.78c-2.08-.34-3.64.6-3.97,2.49-.3,1.72.74,3.16,2.86,3.84l1.11-6.33Z"/>
      </g>
      <g>
        <path class="st6" d="M395.78,354.48l2.7-9.11c1.28-4.33,4.73-6.06,8.11-5.05,1.73.51,2.87,1.59,3.55,2.95,1.38-1.19,3.31-1.95,5.39-1.33,3.41,1.01,5.3,4.44,4.04,8.69l-2.97,10.04-20.81-6.17ZM406.94,348.38c.56-1.88.12-3.19-1.64-3.71-1.94-.57-2.72.02-3.29,1.96l-1.35,4.54,5.01,1.48,1.26-4.27ZM415.83,350.04c.59-1.99.31-3.16-1.6-3.73-1.94-.57-2.95.63-3.55,2.65l-1.41,4.76,5.03,1.49,1.53-5.17Z"/>
        <path class="st6" d="M426.4,335.75c-2.2,3.97-6.05,5.44-10.09,3.19l-1.96-1.09c-3.4-1.89-4.8-5.88-2.49-10.05,2.37-4.27,6.37-5.23,10.13-3.14l2.51,1.39-5.08,9.16c1.51.84,2.92.16,3.71-1.28.87-1.56.86-2.57.13-3.66l3.41-2.65c1.53,1.92,1.65,4.68-.26,8.13ZM419.06,328.23c-1.47-.79-3-.24-3.84,1.28-.84,1.51-.51,3.06.96,3.91l2.88-5.19Z"/>
        <path class="st6" d="M436.42,321.43c-2.96,3.45-7.02,4.11-10.53,1.1l-1.7-1.46c-2.95-2.53-3.52-6.73-.42-10.35,3.18-3.71,7.29-3.84,10.55-1.04l2.18,1.87-6.82,7.95c1.31,1.12,2.82.74,3.9-.51,1.16-1.36,1.36-2.35.86-3.56l3.87-1.91c1.11,2.19.68,4.92-1.89,7.92ZM430.74,312.59c-1.28-1.06-2.89-.83-4.02.48-1.13,1.31-1.11,2.9.15,4.02l3.86-4.5Z"/>
        <path class="st6" d="M436.06,298.89l9.78,6.68-4.15-11.09,3.86-3.03,4.85,16.55-3.31,2.59-14.91-8.67,3.86-3.03Z"/>
        <path class="st6" d="M455.98,285.42c4.22-2.15,7.49-1.18,9.49,2.74l4.33,8.5-4.07,2.08-.6-1.17c-.59,1.34-1.61,2.6-3.2,3.41-3.36,1.71-6.14.77-7.49-1.89-1.48-2.9-.15-5.54,3.19-7.24l3.64-1.86-.14-.27c-.76-1.49-1.96-1.79-3.73-.89-1.01.52-1.79,1.37-1.73,2.72l-4.29.96c-.65-2.58.81-5.17,4.6-7.1ZM461.04,297.33c1.59-.81,2.41-1.66,2.5-2.9l-.65-1.27-3.19,1.62c-1.16.59-1.67,1.28-1.25,2.11.42.83,1.39,1.04,2.58.43Z"/>
        <path class="st6" d="M475,277.88c4.55-1.31,7.58.26,8.8,4.49l2.65,9.17-4.39,1.27-.36-1.26c-.83,1.21-2.07,2.25-3.78,2.74-3.62,1.05-6.17-.41-7-3.27-.9-3.13.9-5.47,4.5-6.51l3.92-1.13-.08-.29c-.46-1.6-1.59-2.13-3.5-1.58-1.09.31-2.01,1.01-2.21,2.35l-4.39.13c-.15-2.66,1.77-4.92,5.85-6.1ZM477.71,290.53c1.72-.5,2.67-1.17,3-2.38l-.4-1.37-3.43.99c-1.25.36-1.88.94-1.62,1.84.26.89,1.17,1.29,2.45.92Z"/>
        <path class="st6" d="M495.83,273.65l4.57.07-.03,1.7c.87-1.24,2.1-1.94,3.66-1.91,2.21.03,3.62.74,4.48,2.04,1.07-1.27,2.55-1.93,4.23-1.9,4.51.07,6.2,2.91,6.14,6.82l-.15,9.57-4.43-.07.15-9.35c.04-2.35-.74-3.21-2.16-3.23-1.5-.02-2.69,1.35-2.74,4.58l-.12,7.93-4.42-.07.14-9.08c.04-2.62-.88-3.49-2.13-3.51-1.47-.02-2.68,1.13-2.73,4.17l-.13,8.34-4.57-.07.25-16.02Z"/>
        <path class="st6" d="M532.33,276.83c4.59,1.16,6.41,4.04,5.34,8.31l-2.33,9.26-4.43-1.12.32-1.27c-1.33.62-2.92.9-4.65.46-3.66-.92-5.12-3.46-4.4-6.35.8-3.16,3.53-4.27,7.17-3.36l3.96,1,.07-.29c.41-1.62-.3-2.64-2.23-3.13-1.1-.28-2.25-.14-3.1.91l-3.86-2.1c1.21-2.37,4.01-3.36,8.13-2.32ZM528.29,289.12c1.73.44,2.9.34,3.79-.54l.35-1.38-3.47-.87c-1.27-.32-2.1-.13-2.33.77-.23.9.36,1.7,1.66,2.02Z"/>
        <path class="st6" d="M546.87,275.72l4.19,1.74-6.69,16.15c-.29.71-.16.82-.04.9.17.1.45.19,1.53.25l-.67,3.48c-1.12.04-2.91-.47-3.94-1.1-1.83-1.14-2.17-2.62-1.12-5.14l6.74-16.27Z"/>
        <path class="st6" d="M555.83,304.52l.83-1.38c-1.35.59-2.82.5-4.57-.55-2.99-1.8-4.18-5.43-1.85-9.29l1.33-2.2c2.33-3.86,6.09-4.5,9.08-2.7,1.6.97,2.46,2.28,2.59,3.83l3.78-6.28,3.91,2.36-11.19,18.57-3.91-2.36ZM554.91,299.9c1.53.92,3.43.47,4.87-1.92l.69-1.15c1.26-2.08.76-3.73-.87-4.71-1.38-.83-3.04-.46-4.36,1.74l-.82,1.36c-1.34,2.23-.89,3.84.5,4.67Z"/>
        <path class="st6" d="M572.68,296.92l3.5,2.89-10.2,12.36-3.5-2.89,10.2-12.36ZM578.61,293.3c1.07.89,1.24,2.37.39,3.41-.85,1.03-2.35,1.15-3.42.26-1.07-.89-1.24-2.37-.39-3.41.85-1.03,2.35-1.15,3.42-.26Z"/>
        <path class="st6" d="M583.24,306.43l-6,10.21,10.79-4.9,3.28,3.65-16.18,5.98-2.81-3.12,7.64-15.47,3.28,3.65Z"/>
        <path class="st6" d="M583.94,334.24c-2.3-3.91-1.61-7.97,2.37-10.31l1.93-1.14c3.35-1.97,7.51-1.15,9.92,2.96,2.47,4.21,1.27,8.14-2.43,10.32l-2.47,1.45-5.31-9.03c-1.49.87-1.62,2.43-.78,3.85.91,1.54,1.78,2.05,3.09,1.97l.55,4.28c-2.43.34-4.88-.95-6.88-4.35ZM594.14,331.74c1.42-.87,1.72-2.46.85-3.95-.88-1.49-2.38-1.99-3.85-1.16l3.01,5.11Z"/>
        <path class="st6" d="M606.47,343.71c1.31,3.78.82,6.32-1.29,8.49l-2.79-3.48c1.06-.94,1.22-1.98.59-3.81-.39-1.13-1-1.82-1.91-1.5-.78.27-.92,1.04-.47,2.92.69,2.83,1.08,7.22-2.39,8.42-3.1,1.07-5.76-.83-7.26-5.18-1.53-4.43-.4-7.19,1.64-8.64l2.42,3.91c-.94.89-1.13,2.01-.51,3.81.48,1.39,1.23,2.13,2.13,1.82.85-.29.87-.99.28-3.37-.68-2.8-.82-6.8,2.49-7.95,3.15-1.09,5.79.94,7.04,4.56Z"/>
      </g>
      <g>
        <path class="st9" d="M453.71,407.74c-6.35-5.42-1.39-15.87,6.8-14.24,7.76,1.54,17.43.98,29.21-3.8,10.1-4.1,19.33-6.87,27.47-8.74,5.79-1.33,9.04,6.46,4.01,9.62s-10.39,7.19-15.6,12.15c-15.92,15.16-36.15,18.41-51.88,5Z"/>
        <path class="st4" d="M559.82,393.44c1.24-2.53-.36-5.55-3.14-5.95-7.01-1-20.21-.72-35.48,10.34-18.02,13.06-20.65,26.84-39.17,31.95-4.26,1.17-4.06,7.3.28,8.15,20.77,4.06,54.65,1.87,77.51-44.5Z"/>
        <circle class="st9" cx="526.75" cy="357.38" r="12.76"/>
        <g>
          <path class="st9" d="M478.94,352.43c.22-1.86-2.41-2.48-3.02-.71-6.69,19.25-16.04,50.48-6.56,51.2,12.41.94,5.64-16.55,9.58-50.5Z"/>
          <path class="st13" d="M504.16,347.47c-3.2-3.13-8.53-6.01-17.36-6.14,0,0,5.21-3.95,10.88-6.3,2.49-1.03,1.81-4.77-.88-4.8-3.4-.04-7.65,1.18-12.4,5.24.64-3.17.55-7.22-1.78-11.58-1.28-2.4-4.93-1.27-4.68,1.44.28,2.94.4,6.23.11,9.25-1.77-3.01-4.95-6.5-10.58-8-2.63-.7-4.29,2.74-2.14,4.4,3.28,2.53,6.88,5.75,8.99,9.03,0,0-10.85-5.05-20.23,1.2-2.21,1.47-.82,4.94,1.8,4.52,3.72-.6,8.63-.94,14.53-.38,0,0-5.05,2.72-8.43,7.96-1.66,2.57,1.9,5.28,3.95,3.02,2.93-3.25,7.01-6.61,12.54-9.06,0,0,7.38,6.8,11.27,14.46,1.25,2.46,5.02,1.31,4.69-1.42-.45-3.77-2.27-8.2-6.87-12.8,0,0,7.04,1.18,13.86,4,2.52,1.04,4.67-2.15,2.73-4.05Z"/>
        </g>
      </g>
      <path class="st13" d="M615.4,377.78c-1.77-1.29-4.56-2.31-8.85-1.74,0,0,2.24-2.28,4.82-3.83,1.13-.68.54-2.44-.77-2.26-1.65.22-3.62,1.12-5.64,3.42.08-1.58-.25-3.54-1.69-5.48-.79-1.07-2.48-.26-2.16,1.03.34,1.4.64,2.99.71,4.48-1.07-1.33-2.86-2.8-5.7-3.12-1.32-.15-1.88,1.63-.72,2.28,1.77.99,3.75,2.3,5,3.73,0,0-5.62-1.68-9.72,2.02-.96.87-.05,2.45,1.19,2.06,1.76-.55,4.12-1.07,7.02-1.22,0,0-2.25,1.68-3.52,4.46-.62,1.36,1.3,2.43,2.13,1.18,1.19-1.78,2.92-3.7,5.43-5.28,0,0,4.06,2.77,6.49,6.2.78,1.1,2.53.28,2.17-1.02-.49-1.79-1.68-3.81-4.24-5.71,0,0,3.5.07,7,.95,1.29.32,2.11-1.37,1.03-2.16Z"/>
      <path class="st13" d="M418.96,377.78c-1.77-1.29-4.56-2.31-8.85-1.74,0,0,2.24-2.28,4.82-3.83,1.13-.68.54-2.44-.77-2.26-1.65.22-3.62,1.12-5.64,3.42.08-1.58-.25-3.54-1.69-5.48-.79-1.07-2.48-.26-2.16,1.03.34,1.4.64,2.99.71,4.48-1.07-1.33-2.86-2.8-5.7-3.12-1.32-.15-1.88,1.63-.72,2.28,1.77.99,3.75,2.3,5,3.73,0,0-5.62-1.68-9.72,2.02-.96.87-.05,2.45,1.19,2.06,1.76-.55,4.12-1.07,7.02-1.22,0,0-2.25,1.68-3.52,4.46-.62,1.36,1.3,2.43,2.13,1.18,1.19-1.78,2.92-3.7,5.43-5.28,0,0,4.06,2.77,6.49,6.2.78,1.1,2.53.28,2.17-1.02-.49-1.79-1.68-3.81-4.24-5.71,0,0,3.5.07,7,.95,1.29.32,2.11-1.37,1.03-2.16Z"/>
    </g>
  </g>
  <g id="Layer_3">
    <rect class="st6" x="340.41" y="314.72" width="89.57" height="89.57"/>
    <rect class="st4" x="460.09" y="314.72" width="89.57" height="89.57"/>
    <rect class="st13" x="579.77" y="314.72" width="89.57" height="89.57"/>
  </g>
</svg>