<?xml version="1.0" encoding="UTF-8"?>
<svg xmlns="http://www.w3.org/2000/svg" version="1.1" xmlns:xlink="http://www.w3.org/1999/xlink" viewBox="211 299 590 590">
  <!-- Generator: Adobe Illustrator 30.5.1, SVG Export Plug-In . SVG Version: 2.1.4 Build 3)  -->
  <defs>
    <style>
      .st0 {
        font-size: 35.66px;
      }

      .st1 {
        font-size: 34.16px;
      }

      .st1, .st2 {
        font-family: GamtanRoad-Tantan-KSCpc-EUC-H, 'GamtanRoad Tantan';
      }

      .st1, .st2, .st3, .st4, .st5, .st6, .st7 {
        fill: #063065;
      }

      .st2 {
        font-size: 28px;
      }

      .st8 {
        fill: #0091f8;
      }

      .st3 {
        font-size: 10.96px;
      }

      .st3, .st4, .st5, .st9, .st7 {
        font-family: HelveticaLTPro-Light, 'Helvetica LT Pro';
        font-weight: 300;
      }

      .st10 {
        font-family: ApparatSemiCond-Bold, ApparatSemiCond;
        font-weight: 700;
      }

      .st10, .st11, .st12 {
        fill: #fff;
      }

      .st13 {
        fill: #0592f8;
      }

      .st4 {
        font-size: 12.51px;
      }

      .st5 {
        font-size: 19px;
      }

      .st9 {
        font-size: 13.92px;
      }

      .st9, .st14 {
        fill: #2afffc;
      }

      .st15 {
        font-size: 28.49px;
      }

      .st12 {
        font-family: ApparatSemiCond-Regular, ApparatSemiCond;
        font-size: 7.95px;
      }

      .st16 {
        display: none;
      }

      .st7 {
        font-size: 11.25px;
      }
    </style>
    <path id="path" d="M658.7,151.24c0,57.14,46.32,103.47,103.47,103.47s103.47-46.32,103.47-103.47"/>
    <path id="path1" d="M671.33,145.95c0-48.38,40.7-87.59,90.9-87.59s90.9,39.22,90.9,87.59"/>
  </defs>
  <g id="Layer_5">
    <g>
      <circle class="st6" cx="506.25" cy="594.18" r="292.63"/>
      <g>
        <path class="st8" d="M305.12,698.1c-24.65-21.03-5.39-61.58,26.39-55.26,30.13,5.99,67.65,3.79,113.35-14.75,39.19-15.9,75.01-26.68,106.59-33.91,22.47-5.14,35.08,25.09,15.57,37.35-19.76,12.42-40.31,27.89-60.55,47.16-61.79,58.85-140.31,71.46-201.34,19.41Z"/>
        <path class="st14" d="M716.93,642.61c4.83-9.8-1.38-21.54-12.2-23.09-27.19-3.88-78.45-2.8-137.68,40.15-69.93,50.7-80.13,104.17-152,124.01-16.52,4.56-15.74,28.35,1.08,31.64,80.6,15.78,212.11,7.27,300.8-172.7Z"/>
        <circle class="st8" cx="588.61" cy="502.67" r="49.5"/>
        <g>
          <path class="st8" d="M403.03,483.47c.84-7.22-9.35-9.61-11.74-2.74-25.96,74.72-62.24,195.92-25.45,198.71,48.16,3.65,21.87-64.21,37.19-195.97Z"/>
          <path class="st13" d="M500.9,464.23c-12.4-12.16-33.1-23.34-67.37-23.81,0,0,20.21-15.31,42.22-24.44,9.66-4,7.04-18.5-3.41-18.62-13.21-.14-29.69,4.58-48.13,20.34,2.47-12.3,2.14-28.01-6.89-44.92-4.97-9.31-19.14-4.92-18.15,5.58,1.08,11.4,1.56,24.19.42,35.91-6.85-11.7-19.21-25.22-41.06-31.04-10.19-2.72-16.66,10.63-8.3,17.07,12.73,9.81,26.71,22.32,34.88,35.03,0,0-42.12-19.62-78.51,4.68-8.57,5.72-3.2,19.18,6.97,17.55,14.44-2.31,33.5-3.66,56.41-1.48,0,0-19.59,10.55-32.72,30.89-6.43,9.96,7.37,20.51,15.32,11.71,11.38-12.6,27.19-25.66,48.65-35.15,0,0,28.66,26.41,43.75,56.11,4.84,9.53,19.48,5.09,18.2-5.52-1.76-14.62-8.79-31.82-26.65-49.66,0,0,27.32,4.58,53.79,15.52,9.77,4.03,18.14-8.33,10.59-15.73Z"/>
        </g>
      </g>
    </g>
  </g>
</svg>