<?xml version="1.0" encoding="UTF-8"?>
<svg xmlns="http://www.w3.org/2000/svg" version="1.1" xmlns:xlink="http://www.w3.org/1999/xlink" viewBox="341 544 272 123">
  <!-- Generator: Adobe Illustrator 30.5.1, SVG Export Plug-In . SVG Version: 2.1.4 Build 3)  -->
  <defs>
    <style>
      .st0 {
        font-size: 35.66px;
      }

      .st1 {
        font-size: 13.92px;
      }

      .st1, .st2, .st3, .st4 {
        font-family: HelveticaLTPro-Light, 'Helvetica LT Pro';
        font-weight: 300;
      }

      .st1, .st5 {
        fill: #2afffc;
      }

      .st6 {
        font-size: 28px;
      }

      .st6, .st2, .st3, .st7, .st4, .st8 {
        fill: #063065;
      }

      .st6, .st8 {
        font-family: GamtanRoad-Tantan-KSCpc-EUC-H, 'GamtanRoad Tantan';
      }

      .st9 {
        fill: #0091f8;
      }

      .st10 {
        font-family: ApparatSemiCond-Bold, ApparatSemiCond;
        font-weight: 700;
      }

      .st10, .st11, .st12 {
        fill: #fff;
      }

      .st13 {
        fill: #0592f8;
      }

      .st2 {
        font-size: 11.25px;
      }

      .st3 {
        font-size: 19px;
      }

      .st12 {
        font-family: ApparatSemiCond-Regular, ApparatSemiCond;
        font-size: 7.95px;
      }

      .st14 {
        font-size: 28.49px;
      }

      .st4 {
        font-size: 12.51px;
      }

      .st15 {
        display: none;
      }

      .st8 {
        font-size: 34.16px;
      }
    </style>
    <path id="path" d="M671.45,588.34c0,57.14,46.32,103.47,103.47,103.47s103.47-46.32,103.47-103.47"/>
    <path id="path1" d="M684.09,583.06c0-48.38,40.7-87.59,90.9-87.59s90.9,39.22,90.9,87.59"/>
  </defs>
  <g id="Layer_4">
    <g>
      <path class="st9" d="M346.94,632.46c-6.35-5.42-1.39-15.87,6.8-14.24,7.76,1.54,17.43.98,29.21-3.8,10.1-4.1,19.33-6.87,27.47-8.74,5.79-1.33,9.04,6.46,4.01,9.62-5.09,3.2-10.39,7.19-15.6,12.15-15.92,15.16-36.15,18.41-51.88,5Z"/>
      <path class="st5" d="M453.05,618.16c1.24-2.53-.36-5.55-3.14-5.95-7.01-1-20.21-.72-35.48,10.34-18.02,13.06-20.65,26.84-39.17,31.95-4.26,1.17-4.06,7.3.28,8.15,20.77,4.06,54.65,1.87,77.51-44.5Z"/>
      <circle class="st9" cx="419.99" cy="582.11" r="12.76"/>
      <g>
        <path class="st9" d="M372.17,577.16c.22-1.86-2.41-2.48-3.02-.71-6.69,19.25-16.04,50.48-6.56,51.2,12.41.94,5.64-16.55,9.58-50.5Z"/>
        <path class="st13" d="M397.39,572.2c-3.2-3.13-8.53-6.01-17.36-6.14,0,0,5.21-3.95,10.88-6.3,2.49-1.03,1.81-4.77-.88-4.8-3.4-.04-7.65,1.18-12.4,5.24.64-3.17.55-7.22-1.78-11.58-1.28-2.4-4.93-1.27-4.68,1.44.28,2.94.4,6.23.11,9.25-1.77-3.01-4.95-6.5-10.58-8-2.63-.7-4.29,2.74-2.14,4.4,3.28,2.53,6.88,5.75,8.99,9.03,0,0-10.85-5.05-20.23,1.2-2.21,1.47-.82,4.94,1.8,4.52,3.72-.6,8.63-.94,14.53-.38,0,0-5.05,2.72-8.43,7.96-1.66,2.57,1.9,5.28,3.95,3.02,2.93-3.25,7.01-6.61,12.54-9.06,0,0,7.38,6.8,11.27,14.46,1.25,2.46,5.02,1.31,4.69-1.42-.45-3.77-2.27-8.2-6.87-12.8,0,0,7.04,1.18,13.86,4,2.52,1.04,4.67-2.15,2.73-4.05Z"/>
      </g>
    </g>
    <g>
      <path class="st7" d="M465.9,595.23h2.85v-27.91h-2.85v-.75h14.83c1.76,0,3.3.29,4.63.88,1.33.59,2.37,1.4,3.12,2.44.75,1.04,1.12,2.25,1.12,3.62,0,1.99-.83,3.64-2.5,4.96s-3.92,2.12-6.76,2.41l.26-.31c3.42.29,6.01,1.09,7.77,2.39,1.76,1.3,2.63,3.02,2.63,5.16,0,1.52-.41,2.88-1.23,4.08-.82,1.2-1.95,2.13-3.4,2.79-1.45.66-3.09.99-4.94.99h-15.53v-.75ZM482.49,593.4c.97-1.21,1.45-2.95,1.45-5.2,0-1.49-.22-2.76-.66-3.82-.44-1.05-1.07-1.85-1.89-2.39-.82-.54-1.83-.81-3.03-.81h-3.86v-.7h3.69c1.02,0,1.87-.25,2.54-.75.67-.5,1.18-1.22,1.51-2.17.34-.95.5-2.13.5-3.53,0-2.13-.4-3.79-1.18-4.96-.79-1.17-1.93-1.75-3.42-1.75h-2.68v27.91h2.98c1.73,0,3.07-.61,4.04-1.82Z"/>
      <path class="st7" d="M500.59,595.2c-1.48-.95-2.64-2.25-3.49-3.91-.85-1.65-1.27-3.52-1.27-5.59s.42-4.02,1.27-5.75c.85-1.73,2.02-3.08,3.51-4.06,1.49-.98,3.13-1.47,4.91-1.47,1.64,0,3.12.37,4.43,1.1,1.32.73,2.35,1.72,3.12,2.96.76,1.24,1.14,2.65,1.14,4.23,0,.44-.04.72-.13.83h-12.2l-.04-.66h6.76l-.35.44c.03-2.75-.21-4.81-.72-6.19-.51-1.37-1.22-2.06-2.13-2.06-1.02,0-1.79.79-2.3,2.37-.51,1.58-.77,3.75-.77,6.49,0,2.14.25,3.96.75,5.46.5,1.51,1.2,2.63,2.11,3.38.91.75,1.96,1.12,3.16,1.12,1.43,0,2.6-.44,3.49-1.32.89-.88,1.46-2.27,1.69-4.17l.66.18c-.12,1.49-.57,2.86-1.36,4.1-.79,1.24-1.82,2.21-3.09,2.9-1.27.69-2.7,1.03-4.28,1.03-1.76,0-3.37-.48-4.85-1.43Z"/>
      <path class="st7" d="M523.76,595.2c-1.48-.95-2.64-2.25-3.49-3.91-.85-1.65-1.27-3.52-1.27-5.59s.42-4.02,1.27-5.75c.85-1.73,2.02-3.08,3.51-4.06,1.49-.98,3.13-1.47,4.91-1.47,1.64,0,3.12.37,4.43,1.1,1.32.73,2.35,1.72,3.12,2.96.76,1.24,1.14,2.65,1.14,4.23,0,.44-.04.72-.13.83h-12.2l-.04-.66h6.76l-.35.44c.03-2.75-.21-4.81-.72-6.19-.51-1.37-1.22-2.06-2.13-2.06-1.02,0-1.79.79-2.3,2.37-.51,1.58-.77,3.75-.77,6.49,0,2.14.25,3.96.75,5.46.5,1.51,1.2,2.63,2.11,3.38.91.75,1.96,1.12,3.16,1.12,1.43,0,2.6-.44,3.49-1.32.89-.88,1.46-2.27,1.69-4.17l.66.18c-.12,1.49-.57,2.86-1.36,4.1-.79,1.24-1.82,2.21-3.09,2.9-1.27.69-2.7,1.03-4.28,1.03-1.76,0-3.37-.48-4.85-1.43Z"/>
      <path class="st7" d="M541.77,575.7h-1.67v-.66h10.44v.66h-2.59l4.96,13.95h-.35l5.18-13.95h-2.94v-.66h5.4v.66h-1.58l-7.9,20.58h-1.18l-7.77-20.58Z"/>
      <path class="st7" d="M575.51,595.38c-.73-.66-1.11-1.59-1.14-2.79l-.18-.09v-13.73c0-1.17-.25-2.05-.75-2.65-.5-.6-1.32-.9-2.46-.9-.96,0-1.92.19-2.85.57-.94.38-1.68.85-2.24,1.4l.44-.92,2.46,4.52c-.21.56-.58,1.01-1.12,1.36-.54.35-1.16.53-1.87.53s-1.35-.24-1.87-.72c-.51-.48-.77-1.13-.77-1.95,0-.88.39-1.75,1.18-2.63.79-.88,1.89-1.59,3.29-2.13,1.4-.54,2.94-.81,4.61-.81,2.34,0,4.23.58,5.68,1.73,1.45,1.16,2.17,2.76,2.17,4.8v12.64c0,.38.07.65.2.81.13.16.3.24.5.24.35,0,.68-.22.99-.66.31-.44.53-1.02.68-1.76l.57.31c-.21,1.14-.73,2.06-1.58,2.77s-1.92,1.05-3.2,1.05c-1.11,0-2.03-.33-2.76-.99ZM566.06,595.71c-.86-.44-1.56-1.07-2.08-1.89-.53-.82-.79-1.76-.79-2.81,0-1.81.8-3.26,2.41-4.34,1.61-1.08,3.53-1.71,5.75-1.89l3.55-.31-.04.61-2.72.26c-1.05.12-1.86.51-2.41,1.19s-.83,1.71-.83,3.12c0,1.55.21,2.73.64,3.53.42.81,1.04,1.21,1.86,1.21.53,0,1-.15,1.43-.44.42-.29.76-.67,1.01-1.14.25-.47.37-.92.37-1.36l.4,1.23c-.15.59-.5,1.16-1.05,1.73-.56.57-1.24,1.04-2.04,1.4-.8.37-1.67.55-2.61.55-1.02,0-1.97-.22-2.83-.66Z"/>
      <path class="st7" d="M599.3,595.38c-.73-.66-1.11-1.59-1.14-2.79l-.18-.09v-13.73c0-1.17-.25-2.05-.75-2.65-.5-.6-1.32-.9-2.46-.9-.96,0-1.92.19-2.85.57-.94.38-1.68.85-2.24,1.4l.44-.92,2.46,4.52c-.21.56-.58,1.01-1.12,1.36-.54.35-1.16.53-1.87.53s-1.35-.24-1.87-.72c-.51-.48-.77-1.13-.77-1.95,0-.88.39-1.75,1.18-2.63.79-.88,1.89-1.59,3.29-2.13,1.4-.54,2.94-.81,4.61-.81,2.34,0,4.23.58,5.68,1.73,1.45,1.16,2.17,2.76,2.17,4.8v12.64c0,.38.07.65.2.81.13.16.3.24.5.24.35,0,.68-.22.99-.66.31-.44.53-1.02.68-1.76l.57.31c-.21,1.14-.73,2.06-1.58,2.77s-1.92,1.05-3.2,1.05c-1.11,0-2.03-.33-2.76-.99ZM589.84,595.71c-.86-.44-1.56-1.07-2.08-1.89-.53-.82-.79-1.76-.79-2.81,0-1.81.8-3.26,2.41-4.34,1.61-1.08,3.53-1.71,5.75-1.89l3.55-.31-.04.61-2.72.26c-1.05.12-1.86.51-2.41,1.19s-.83,1.71-.83,3.12c0,1.55.21,2.73.64,3.53.42.81,1.04,1.21,1.86,1.21.53,0,1-.15,1.43-.44.42-.29.76-.67,1.01-1.14.25-.47.37-.92.37-1.36l.4,1.23c-.15.59-.5,1.16-1.05,1.73-.56.57-1.24,1.04-2.04,1.4-.8.37-1.67.55-2.61.55-1.02,0-1.97-.22-2.83-.66Z"/>
      <path class="st7" d="M465.38,630.4h1.75v-15.95h-1.75v-.54h6.56l-.11,1.93.11-.07v14.63h1.46v.54h-8.03v-.54ZM475.04,630.4h1.39v-12.84c0-.81-.2-1.42-.61-1.84-.4-.42-.94-.62-1.61-.62-.43,0-.89.11-1.37.32-.49.21-.96.5-1.41.86v-.18c.69-.81,1.47-1.46,2.35-1.94.88-.49,1.77-.73,2.68-.73,1.43,0,2.58.42,3.46,1.27.88.84,1.32,2,1.32,3.48v12.24h1.39v.54h-7.6v-.54ZM484.25,630.4h1.39v-12.63c0-.81-.19-1.46-.57-1.94-.38-.49-.93-.73-1.64-.73-.5,0-1.03.12-1.59.36-.56.24-1.09.55-1.59.93v-.18c.74-.86,1.56-1.53,2.46-2.03.9-.5,1.85-.75,2.85-.75.93,0,1.77.23,2.51.68.75.45,1.33,1.07,1.75,1.86.42.79.62,1.72.62,2.82v11.63h1.78v.54h-7.99v-.54Z"/>
      <path class="st7" d="M505.79,630.45c-.6-.54-.9-1.29-.93-2.27l-.14-.07v-11.17c0-.95-.2-1.67-.61-2.16s-1.07-.73-2-.73c-.78,0-1.56.16-2.32.46-.76.31-1.37.69-1.82,1.14l.36-.75,2,3.67c-.17.45-.47.82-.91,1.11-.44.29-.95.43-1.52.43s-1.1-.2-1.52-.59-.62-.92-.62-1.59c0-.71.32-1.43.96-2.14.64-.71,1.53-1.29,2.68-1.73,1.14-.44,2.39-.66,3.75-.66,1.9,0,3.44.47,4.62,1.41,1.18.94,1.77,2.24,1.77,3.91v10.27c0,.31.05.53.16.66.11.13.24.2.41.2.29,0,.55-.18.8-.54.25-.36.43-.83.55-1.43l.46.25c-.17.93-.6,1.68-1.29,2.25-.69.57-1.56.86-2.6.86-.9,0-1.65-.27-2.25-.8ZM498.11,630.72c-.7-.36-1.27-.87-1.69-1.53-.43-.67-.64-1.43-.64-2.28,0-1.47.65-2.65,1.96-3.53,1.31-.88,2.87-1.39,4.67-1.53l2.89-.25-.04.5-2.21.21c-.86.1-1.51.42-1.96.96-.45.55-.68,1.39-.68,2.53,0,1.26.17,2.22.52,2.87.34.65.85.98,1.52.98.43,0,.81-.12,1.16-.36.35-.24.62-.55.82-.93.2-.38.3-.75.3-1.11l.32,1c-.12.48-.4.95-.86,1.41-.45.46-1.01.84-1.66,1.14s-1.36.45-2.12.45c-.83,0-1.6-.18-2.3-.54Z"/>
      <path class="st7" d="M514.21,630.4h2.75v-25.01h-2.75v-.54h7.81l-.25,1.53v24.01h2.78v.54h-10.34v-.54Z"/>
      <path class="st7" d="M530.48,630.36c-.95-.74-1.69-1.77-2.23-3.1s-.8-2.91-.8-4.75.33-3.5,1-4.87c.67-1.37,1.56-2.41,2.69-3.14,1.13-.72,2.34-1.09,3.62-1.09.95,0,1.78.21,2.5.64.71.43,1.3,1.03,1.75,1.82l-.71,2.85c0-.97-.11-1.8-.34-2.48-.23-.68-.54-1.19-.93-1.55-.39-.36-.85-.54-1.37-.54-.59,0-1.1.26-1.52.77s-.75,1.36-1,2.53c-.25,1.18-.37,2.76-.37,4.76,0,1.83.12,3.29.36,4.39.24,1.09.59,1.88,1.05,2.37.46.49,1.03.73,1.69.73.52,0,1.03-.16,1.53-.48.5-.32.94-.74,1.32-1.27v.39c-.55.95-1.27,1.71-2.18,2.27-.9.56-1.88.84-2.93.84-1.14,0-2.19-.37-3.14-1.11ZM538.47,628.54l-.18.14v-23.33h-2.14v-.5h7.21l-.25,1.53v24.01h1.78v.54h-6.6l.18-2.39Z"/>
      <path class="st7" d="M547.92,630.4h2.75v-15.95h-2.75v-.54h7.81l-.21,1.53v14.95h2.75v.54h-10.35v-.54ZM551.29,610.23c-.49-.44-.73-.97-.73-1.59s.24-1.15.73-1.59c.49-.44,1.09-.66,1.8-.66s1.35.22,1.84.66c.49.44.73.96.73,1.55,0,.64-.24,1.18-.73,1.62-.49.44-1.1.66-1.84.66s-1.31-.22-1.8-.66Z"/>
      <path class="st7" d="M561.05,614.45h-1.36v-.54h8.49v.54h-2.1l4.03,11.34h-.29l4.21-11.34h-2.39v-.54h4.39v.54h-1.28l-6.42,16.73h-.96l-6.31-16.73Z"/>
      <path class="st7" d="M581.87,630.31c-1.2-.77-2.15-1.83-2.84-3.17-.69-1.34-1.04-2.86-1.04-4.55s.34-3.27,1.04-4.67c.69-1.4,1.64-2.5,2.85-3.3s2.54-1.2,4-1.2c1.33,0,2.53.3,3.6.89,1.07.59,1.91,1.4,2.53,2.41.62,1.01.93,2.16.93,3.44,0,.36-.04.58-.11.68h-9.92l-.04-.54h5.49l-.29.36c.02-2.24-.17-3.91-.59-5.03-.42-1.12-.99-1.68-1.73-1.68-.83,0-1.46.64-1.87,1.93-.42,1.28-.62,3.04-.62,5.28,0,1.74.2,3.22.61,4.44.4,1.22.97,2.14,1.71,2.75s1.59.91,2.57.91c1.17,0,2.11-.36,2.84-1.07.73-.71,1.18-1.84,1.37-3.39l.54.14c-.09,1.21-.46,2.33-1.11,3.34-.64,1.01-1.48,1.8-2.51,2.35-1.04.56-2.19.84-3.48.84-1.43,0-2.74-.39-3.94-1.16Z"/>
      <path class="st7" d="M599.93,631.09c-1-.27-1.84-.62-2.53-1.05l.18-1.89.29,3.17h-.61l-.36-6.03.54-.11c.17,1.74.75,3.13,1.77,4.17s2.29,1.57,3.83,1.57c1.09,0,1.99-.28,2.68-.84.69-.56,1.03-1.27,1.03-2.12,0-.76-.2-1.38-.61-1.85s-1-.84-1.78-1.11l-3-1c-1.26-.4-2.23-1.07-2.91-2s-1.02-1.96-1.02-3.1c0-1.05.25-2,.75-2.85.5-.86,1.22-1.52,2.16-2s2.02-.71,3.23-.71c.81,0,1.65.12,2.53.38.88.25,1.64.58,2.28.98l-.29,1.89-.07-3.25h.61v5.6l-.54.04c-.09-1.05-.35-1.94-.77-2.69s-.96-1.33-1.62-1.75c-.67-.42-1.42-.62-2.25-.62-.93,0-1.65.25-2.18.75-.52.5-.78,1.14-.78,1.93,0,.62.16,1.16.48,1.62.32.46.84.83,1.55,1.09l3.14,1c1.36.45,2.4,1.14,3.12,2.07.72.93,1.09,2.01,1.09,3.25,0,1.09-.29,2.1-.87,3.01-.58.92-1.41,1.62-2.48,2.12-1.07.5-2.29.75-3.67.75-.95,0-1.93-.14-2.93-.41Z"/>
    </g>
    <g>
      <path class="st7" d="M467.48,645.31l1.65,4.42,1.65-4.42h.65l-2.12,5.6c-.13.33-.38.92-.67,1.23-.22.24-.49.34-.74.34-.2,0-.42-.03-.59-.07v-.56c.2.04.34.06.5.06.36,0,.57-.24.78-.82l.22-.6-2-5.19h.67Z"/>
      <path class="st7" d="M476.74,647.89c0,1.63-.95,2.71-2.37,2.71s-2.39-.98-2.39-2.71c0-1.6.88-2.71,2.38-2.71s2.38,1.07,2.38,2.71ZM474.36,650.06c1.13,0,1.75-.91,1.75-2.16,0-1.35-.58-2.2-1.76-2.2-1.07,0-1.74.85-1.74,2.17s.67,2.18,1.75,2.18Z"/>
      <path class="st7" d="M477.84,645.31h.6v3.42c0,.82.38,1.33,1.32,1.33s1.57-.76,1.57-1.97v-2.78h.6v5.15h-.6v-.71c-.55.64-1,.85-1.67.85-1.19,0-1.82-.65-1.82-1.88v-3.41Z"/>
      <path class="st7" d="M485.69,645.82h-.07c-1.11,0-1.63.73-1.63,2.09v2.55h-.6v-5.15h.6v.96h.02c.31-.77.75-1.1,1.66-1.1h.02v.65Z"/>
      <path class="st7" d="M489.59,645.31h.6v5.98c0,.99-.32,1.19-1.03,1.19-.14,0-.27,0-.39-.04v-.53c.08,0,.17.02.25.02.43,0,.58-.2.58-.68v-5.95ZM490.22,643.31v.88h-.66v-.88h.66Z"/>
      <path class="st7" d="M496.07,647.89c0,1.63-.95,2.71-2.37,2.71s-2.39-.98-2.39-2.71c0-1.6.88-2.71,2.38-2.71s2.38,1.07,2.38,2.71ZM493.68,650.06c1.13,0,1.75-.91,1.75-2.16,0-1.35-.58-2.2-1.76-2.2-1.07,0-1.74.85-1.74,2.17s.67,2.18,1.75,2.18Z"/>
      <path class="st7" d="M497.16,645.31h.6v3.42c0,.82.38,1.33,1.32,1.33s1.57-.76,1.57-1.97v-2.78h.6v5.15h-.6v-.71c-.55.64-1,.85-1.67.85-1.19,0-1.82-.65-1.82-1.88v-3.41Z"/>
      <path class="st7" d="M505.01,645.82h-.07c-1.11,0-1.63.73-1.63,2.09v2.55h-.6v-5.15h.6v.96h.02c.31-.77.74-1.1,1.66-1.1h.02v.65Z"/>
      <path class="st7" d="M510.25,650.46h-.6v-3.39c0-.86-.37-1.36-1.32-1.36-.87,0-1.57.65-1.57,1.81v2.94h-.6v-5.15h.6v.71c.6-.65,1.07-.85,1.66-.85,1.01,0,1.83.56,1.83,1.7v3.59Z"/>
      <path class="st7" d="M516.06,648.03h-3.99c0,1.26.7,2.04,1.73,2.04.79,0,1.39-.46,1.56-1.18h.67c-.37,1.18-1.08,1.72-2.22,1.72-1.52,0-2.36-1.02-2.36-2.68s.97-2.74,2.36-2.74,2.26,1.01,2.26,2.85ZM515.42,647.53c0-1.1-.64-1.82-1.64-1.82-.91,0-1.56.67-1.72,1.82h3.36Z"/>
      <path class="st7" d="M517.35,645.31l1.65,4.42,1.65-4.42h.65l-2.12,5.6c-.13.33-.38.92-.67,1.23-.22.24-.49.34-.75.34-.2,0-.42-.03-.59-.07v-.56c.2.04.34.06.5.06.36,0,.57-.24.79-.82l.22-.6-2-5.19h.67Z"/>
      <path class="st7" d="M525.16,643.88h.6v1.43h.96v.5h-.96v3.67c0,.58.24.59.55.59.16,0,.29-.03.46-.07v.49c-.15.03-.38.12-.69.12-.66,0-.91-.36-.91-.99v-3.79h-.73v-.5h.73v-1.43Z"/>
      <path class="st7" d="M532.14,647.89c0,1.63-.95,2.71-2.37,2.71s-2.39-.98-2.39-2.71c0-1.6.88-2.71,2.38-2.71s2.38,1.07,2.38,2.71ZM529.75,650.06c1.13,0,1.75-.91,1.75-2.16,0-1.35-.58-2.2-1.76-2.2-1.07,0-1.74.85-1.74,2.17s.67,2.18,1.75,2.18Z"/>
      <path class="st7" d="M536.2,643.88h.6v1.43h.96v.5h-.96v3.67c0,.58.24.59.55.59.16,0,.29-.03.46-.07v.49c-.15.03-.38.12-.69.12-.66,0-.91-.36-.91-.99v-3.79h-.73v-.5h.73v-1.43Z"/>
      <path class="st7" d="M541.08,645.82h-.07c-1.11,0-1.63.73-1.63,2.09v2.55h-.6v-5.15h.6v.96h.02c.31-.77.74-1.1,1.66-1.1h.02v.65Z"/>
      <path class="st7" d="M546.32,647.89c0,1.63-.95,2.71-2.37,2.71s-2.39-.98-2.39-2.71c0-1.6.88-2.71,2.38-2.71s2.38,1.07,2.38,2.71ZM543.93,650.06c1.13,0,1.75-.91,1.75-2.16,0-1.35-.58-2.2-1.76-2.2-1.07,0-1.74.85-1.74,2.17s.67,2.18,1.75,2.18Z"/>
      <path class="st7" d="M552.21,647.88c0,1.59-.85,2.72-2.28,2.72-.75,0-1.46-.34-1.85-.96v2.85h-.6v-7.17h.6v.9h.02c.35-.65,1.08-1.04,1.79-1.04,1.5,0,2.32.99,2.32,2.7ZM549.81,650.06c1.1,0,1.76-.86,1.76-2.2,0-1.53-.79-2.16-1.77-2.16-1.03,0-1.73.87-1.73,2.2,0,1.24.71,2.16,1.74,2.16Z"/>
      <path class="st7" d="M554.19,643.31v.88h-.66v-.88h.66ZM553.57,645.31h.6v5.15h-.6v-5.15Z"/>
      <path class="st7" d="M559.93,646.93h-.61c-.21-.76-.72-1.22-1.53-1.22-1.08,0-1.73.92-1.73,2.19s.63,2.17,1.73,2.17c.86,0,1.42-.48,1.58-1.38h.64c-.23,1.23-1.01,1.92-2.21,1.92-1.5,0-2.36-1-2.36-2.7,0-1.56.94-2.72,2.36-2.72,1.22,0,1.95.6,2.14,1.76Z"/>
      <path class="st7" d="M565.17,646.74v2.88c0,.28.06.44.26.44.09,0,.21,0,.37-.08v.47c-.13.04-.32.1-.5.1-.5,0-.71-.22-.71-.79-.51.57-1.17.85-1.92.85-.99,0-1.72-.57-1.72-1.48,0-.85.52-1.39,2-1.58l.56-.07c.84-.11,1.07-.13,1.07-.71,0-.68-.44-1.04-1.28-1.04-.96,0-1.41.38-1.5,1.16h-.61c.08-1.08.84-1.7,2.12-1.7s1.87.6,1.87,1.56ZM562.71,650.06c1.07,0,1.87-.58,1.87-1.47v-.83c-.3.13-.58.21-1.55.29-.95.08-1.44.43-1.44,1.09,0,.56.45.92,1.12.92Z"/>
      <path class="st7" d="M566.82,643.31h.6v7.15h-.6v-7.15Z"/>
      <path class="st7" d="M576.49,647.88c0,1.59-.85,2.72-2.28,2.72-.75,0-1.46-.34-1.85-.96v2.85h-.6v-7.17h.6v.9h.02c.35-.65,1.08-1.04,1.79-1.04,1.5,0,2.32.99,2.32,2.7ZM574.1,650.06c1.1,0,1.76-.86,1.76-2.2,0-1.53-.79-2.16-1.77-2.16-1.03,0-1.73.87-1.73,2.2,0,1.24.71,2.16,1.74,2.16Z"/>
      <path class="st7" d="M581.73,646.74v2.88c0,.28.06.44.26.44.09,0,.21,0,.37-.08v.47c-.13.04-.32.1-.5.1-.5,0-.71-.22-.71-.79-.51.57-1.17.85-1.92.85-.99,0-1.72-.57-1.72-1.48,0-.85.52-1.39,2-1.58l.56-.07c.84-.11,1.07-.13,1.07-.71,0-.68-.44-1.04-1.28-1.04-.96,0-1.41.38-1.5,1.16h-.61c.08-1.08.84-1.7,2.12-1.7s1.87.6,1.87,1.56ZM579.27,650.06c1.07,0,1.87-.58,1.87-1.47v-.83c-.3.13-.58.21-1.55.29-.95.08-1.44.43-1.44,1.09,0,.56.45.92,1.12.92Z"/>
      <path class="st7" d="M585.62,645.82h-.07c-1.11,0-1.63.73-1.63,2.09v2.55h-.6v-5.15h.6v.96h.02c.31-.77.74-1.1,1.66-1.1h.02v.65Z"/>
      <path class="st7" d="M590.56,646.74v2.88c0,.28.06.44.26.44.09,0,.21,0,.37-.08v.47c-.13.04-.32.1-.5.1-.5,0-.71-.22-.71-.79-.51.57-1.17.85-1.92.85-.99,0-1.72-.57-1.72-1.48,0-.85.52-1.39,2-1.58l.56-.07c.84-.11,1.07-.13,1.07-.71,0-.68-.44-1.04-1.28-1.04-.96,0-1.41.38-1.5,1.16h-.61c.08-1.08.84-1.7,2.12-1.7s1.87.6,1.87,1.56ZM588.1,650.06c1.07,0,1.87-.58,1.87-1.47v-.83c-.3.13-.58.21-1.55.29-.95.08-1.44.43-1.44,1.09,0,.56.45.92,1.12.92Z"/>
      <path class="st7" d="M596.1,643.31h.6v7.15h-.6v-.9h-.02c-.33.64-1.07,1.04-1.79,1.04-1.5,0-2.32-.98-2.32-2.69,0-1.59.85-2.73,2.29-2.73.75,0,1.47.36,1.84.96v-2.83ZM594.35,645.71c-1.02,0-1.75.78-1.75,2.21,0,1.52.79,2.15,1.76,2.15,1.04,0,1.74-.87,1.74-2.2,0-1.22-.71-2.16-1.75-2.16Z"/>
      <path class="st7" d="M598.91,643.31v.88h-.66v-.88h.66ZM598.28,645.31h.6v5.15h-.6v-5.15Z"/>
      <path class="st7" d="M604.05,646.8h-.61c-.09-.72-.56-1.08-1.39-1.08-.75,0-1.16.36-1.16.88s.51.76,1.24.94c1.43.35,2.06.65,2.06,1.56s-.81,1.5-2.09,1.5c-1.14,0-1.9-.68-1.97-1.75h.61c.18.84.62,1.21,1.54,1.21.79,0,1.27-.39,1.27-.96,0-.39-.14-.7-1.53-.99-1.37-.3-1.77-.73-1.77-1.49,0-.91.79-1.44,1.81-1.44,1.2,0,1.86.55,1.99,1.62Z"/>
      <path class="st7" d="M609.73,648.03h-3.99c0,1.26.7,2.04,1.73,2.04.79,0,1.39-.46,1.56-1.18h.67c-.37,1.18-1.08,1.72-2.22,1.72-1.52,0-2.36-1.02-2.36-2.68s.97-2.74,2.36-2.74,2.26,1.01,2.26,2.85ZM609.09,647.53c0-1.1-.64-1.82-1.64-1.82-.91,0-1.56.67-1.72,1.82h3.36Z"/>
    </g>
  </g>
</svg>