<?xml version="1.0" encoding="UTF-8"?>
<svg xmlns="http://www.w3.org/2000/svg" version="1.1" xmlns:xlink="http://www.w3.org/1999/xlink" viewBox="361 531 299 123">
  <!-- Generator: Adobe Illustrator 30.5.1, SVG Export Plug-In . SVG Version: 2.1.4 Build 3)  -->
  <defs>
    <style>
      .st0 {
        font-size: 35.66px;
      }

      .st1 {
        font-size: 34.16px;
      }

      .st1, .st2 {
        font-family: GamtanRoad-Tantan-KSCpc-EUC-H, 'GamtanRoad Tantan';
      }

      .st1, .st2, .st3, .st4, .st5, .st6, .st7 {
        fill: #063065;
      }

      .st2 {
        font-size: 28px;
      }

      .st8 {
        fill: #0091f8;
      }

      .st3 {
        font-size: 10.96px;
      }

      .st3, .st4, .st5, .st9, .st7 {
        font-family: HelveticaLTPro-Light, 'Helvetica LT Pro';
        font-weight: 300;
      }

      .st10 {
        font-family: ApparatSemiCond-Bold, ApparatSemiCond;
        font-weight: 700;
      }

      .st10, .st11, .st12 {
        fill: #fff;
      }

      .st13 {
        fill: #0592f8;
      }

      .st4 {
        font-size: 12.51px;
      }

      .st5 {
        font-size: 19px;
      }

      .st9 {
        font-size: 13.92px;
      }

      .st9, .st14 {
        fill: #2afffc;
      }

      .st15 {
        font-size: 28.49px;
      }

      .st12 {
        font-family: ApparatSemiCond-Regular, ApparatSemiCond;
        font-size: 7.95px;
      }

      .st16 {
        display: none;
      }

      .st7 {
        font-size: 11.25px;
      }
    </style>
    <path id="path" d="M658.7,151.24c0,57.14,46.32,103.47,103.47,103.47s103.47-46.32,103.47-103.47"/>
    <path id="path1" d="M671.33,145.95c0-48.38,40.7-87.59,90.9-87.59s90.9,39.22,90.9,87.59"/>
  </defs>
  <g id="Layer_4">
    <g>
      <path class="st6" d="M367.27,619.78c-6.35-5.42-1.39-15.87,6.8-14.24,7.76,1.54,17.43.98,29.21-3.8,10.1-4.1,19.33-6.87,27.47-8.74,5.79-1.33,9.04,6.46,4.01,9.62-5.09,3.2-10.39,7.19-15.6,12.15-15.92,15.16-36.15,18.41-51.88,5Z"/>
      <path class="st8" d="M473.38,605.48c1.24-2.53-.36-5.55-3.14-5.95-7.01-1-20.21-.72-35.48,10.34-18.02,13.06-20.65,26.84-39.17,31.95-4.26,1.17-4.06,7.3.28,8.15,20.77,4.06,54.65,1.87,77.51-44.5Z"/>
      <circle class="st8" cx="440.31" cy="569.42" r="12.76"/>
      <g>
        <path class="st6" d="M392.5,564.47c.22-1.86-2.41-2.48-3.02-.71-6.69,19.25-16.04,50.48-6.56,51.2,12.41.94,5.64-16.55,9.58-50.5Z"/>
        <path class="st6" d="M417.72,559.51c-3.2-3.13-8.53-6.01-17.36-6.14,0,0,5.21-3.95,10.88-6.3,2.49-1.03,1.81-4.77-.88-4.8-3.4-.04-7.65,1.18-12.4,5.24.64-3.17.55-7.22-1.78-11.58-1.28-2.4-4.93-1.27-4.68,1.44.28,2.94.4,6.23.11,9.25-1.77-3.01-4.95-6.5-10.58-8-2.63-.7-4.29,2.74-2.14,4.4,3.28,2.53,6.88,5.75,8.99,9.03,0,0-10.85-5.05-20.23,1.2-2.21,1.47-.82,4.94,1.8,4.52,3.72-.6,8.63-.94,14.53-.38,0,0-5.05,2.72-8.43,7.96-1.66,2.57,1.9,5.28,3.95,3.02,2.93-3.25,7.01-6.61,12.54-9.06,0,0,7.38,6.8,11.27,14.46,1.25,2.46,5.02,1.31,4.69-1.42-.45-3.77-2.27-8.2-6.87-12.8,0,0,7.04,1.18,13.86,4,2.52,1.04,4.67-2.15,2.73-4.05Z"/>
      </g>
    </g>
    <g>
      <path class="st6" d="M496.84,544.79c7.68,0,12.23,3.18,12.23,9.58,0,4.45-2.12,7.41-6.09,8.2v.11c5.03.79,7.83,4.23,7.83,9.48,0,7.2-4.39,10.75-12.17,10.75h-15.83v-38.11h14.03ZM495.78,561.62c6.19,0,9.69-1.96,9.69-7.25,0-4.82-3.02-6.51-10.38-6.51h-8.68v13.76h9.37ZM495.99,579.83c8.89,0,11.22-2.01,11.22-7.68,0-5.29-2.91-7.46-10.9-7.46h-9.9v15.14h9.58Z"/>
      <path class="st6" d="M540.87,569.93h-21.28c0,6.72,3.71,10.85,9.21,10.85,4.23,0,7.41-2.44,8.31-6.3h3.55c-1.96,6.3-5.77,9.16-11.86,9.16-8.1,0-12.6-5.45-12.6-14.29s5.19-14.61,12.6-14.61,12.07,5.4,12.07,15.19ZM537.48,567.28c-.05-5.88-3.39-9.69-8.73-9.69-4.87,0-8.31,3.55-9.16,9.69h17.89Z"/>
      <path class="st6" d="M570.3,569.93h-21.28c0,6.72,3.71,10.85,9.21,10.85,4.23,0,7.41-2.44,8.31-6.3h3.55c-1.96,6.3-5.77,9.16-11.86,9.16-8.1,0-12.6-5.45-12.6-14.29s5.19-14.61,12.6-14.61,12.07,5.4,12.07,15.19ZM566.91,567.28c-.05-5.88-3.39-9.69-8.73-9.69-4.87,0-8.31,3.55-9.16,9.69h17.89Z"/>
      <path class="st6" d="M577.02,555.48l8.89,23.5,8.89-23.5h3.44l-10.64,27.42h-3.55l-10.48-27.42h3.44Z"/>
      <path class="st6" d="M624.07,563.05v15.35c0,1.48.32,2.33,1.38,2.33.48,0,1.11-.05,1.96-.42v2.49c-.69.21-1.69.53-2.65.53-2.65,0-3.76-1.16-3.81-4.23-2.7,3.02-6.25,4.55-10.22,4.55-5.29,0-9.16-3.02-9.16-7.89,0-4.55,2.75-7.41,10.64-8.42l2.96-.37c4.5-.58,5.72-.69,5.72-3.81,0-3.6-2.33-5.56-6.83-5.56-5.13,0-7.52,2.01-7.99,6.19h-3.23c.42-5.77,4.5-9.05,11.28-9.05s9.95,3.18,9.95,8.31ZM610.95,580.78c5.72,0,9.95-3.07,9.95-7.83v-4.45c-1.59.69-3.07,1.11-8.26,1.54-5.08.42-7.68,2.28-7.68,5.82,0,2.96,2.38,4.92,5.98,4.92Z"/>
      <path class="st6" d="M653.5,563.05v15.35c0,1.48.32,2.33,1.38,2.33.48,0,1.11-.05,1.96-.42v2.49c-.69.21-1.69.53-2.65.53-2.65,0-3.76-1.16-3.81-4.23-2.7,3.02-6.25,4.55-10.22,4.55-5.29,0-9.16-3.02-9.16-7.89,0-4.55,2.75-7.41,10.64-8.42l2.96-.37c4.5-.58,5.72-.69,5.72-3.81,0-3.6-2.33-5.56-6.83-5.56-5.13,0-7.52,2.01-7.99,6.19h-3.23c.42-5.77,4.5-9.05,11.27-9.05s9.95,3.18,9.95,8.31ZM640.37,580.78c5.72,0,9.95-3.07,9.95-7.83v-4.45c-1.59.69-3.07,1.11-8.26,1.54-5.08.42-7.68,2.28-7.68,5.82,0,2.96,2.38,4.92,5.98,4.92Z"/>
      <path class="st6" d="M499.52,604.71c1.55-2.4,3.49-3.57,5.97-3.57,4.83,0,7.77,3.15,7.77,7.35v15.59h-5.88v-13.74c0-3.03-1.39-4.24-3.24-4.24-2.98,0-3.95,2.06-3.95,4.54v13.45h-5.88v-13.87c0-3.07-1.18-4.12-3.53-4.12-2.48,0-3.66,1.64-3.66,4.2v13.78h-5.88v-22.35h5.63v3.28h.08c1.34-2.65,3.53-3.87,6.34-3.87s4.54.76,6.22,3.57Z"/>
      <path class="st6" d="M536.75,619.93c0,2.18.46,2.94,1.3,3.28v.88h-6.35c-.29-.88-.5-1.68-.55-2.65-2.14,2.31-4.37,3.24-7.23,3.24-4.08,0-6.81-2.52-6.81-6.51,0-2.9,1.05-6.34,7.02-7.23l4.2-.63c2.18-.34,2.65-.76,2.65-1.89,0-1.55-.97-2.56-3.87-2.56-2.19,0-3.4.97-3.61,3.11h-5.67c.46-4.71,2.69-7.82,9.83-7.82,5.76,0,9.08,2.44,9.08,6.3v12.48ZM530.99,615.98v-2.77c-1.01.63-1.93.92-4.2,1.26-2.35.34-3.78,1.18-3.78,3.32,0,1.64,1.09,2.69,2.73,2.69,2.61,0,5.25-1.76,5.25-4.5Z"/>
      <path class="st6" d="M548.05,593.92v30.17h-5.88v-30.17h5.88Z"/>
      <path class="st6" d="M574.1,593.92v30.17h-5.76v-2.82h-.08c-1.47,2.52-3.99,3.4-6.47,3.4-5.92,0-9.41-4.92-9.41-12.02s3.87-11.51,9.29-11.51c2.9,0,5.08,1.26,6.47,3.49h.08v-10.71h5.88ZM568.47,613.41c0-4.5-1.68-7.19-5.08-7.19-3.15,0-4.96,2.48-4.96,6.81,0,3.87,1.81,6.81,4.83,6.81,3.24,0,5.21-2.52,5.21-6.43Z"/>
      <path class="st6" d="M585.4,601.73v22.35h-5.88v-22.35h5.88Z"/>
      <path class="st6" d="M595.4,601.73l4.62,16.47h.08l4.75-16.47h6.26l-8.07,22.35h-6.18l-8.03-22.35h6.55Z"/>
      <path class="st6" d="M633.85,614.51h-15.34c.21,3.66,1.93,5.46,5.25,5.46,1.64,0,3.32-.8,3.78-2.44h6.05c-1.3,4.54-5,7.14-9.83,7.14-7.4,0-11.14-4.16-11.14-12.19,0-6.6,3.74-11.35,10.67-11.35,5.59,0,10.55,3.19,10.55,12.31v1.05ZM627.8,610.68c-.29-2.94-2.02-4.71-4.58-4.71-2.69,0-4.2,1.64-4.54,4.71h9.12Z"/>
      <path class="st6" d="M656.16,608.54h-5.76c-.34-2.23-1.64-2.94-3.99-2.94-2.23,0-3.57.55-3.57,2.19,0,1.51,2.86,2.02,5.67,2.56,6.47,1.22,8.32,3.45,8.32,6.6,0,5.46-4.45,7.73-9.92,7.73-6.6,0-10.63-2.98-10.63-7.73h6.05c0,1.81,1.09,3.28,4.83,3.28,2.35,0,3.78-.97,3.78-2.31,0-1.47-1.97-1.98-6.05-2.73-5.21-.92-7.82-2.9-7.82-6.55,0-4.41,3.28-7.48,9.03-7.48,6.72,0,9.79,2.86,10.04,7.4Z"/>
    </g>
    <g>
      <path class="st6" d="M482.61,636.86l1.72,5.26h.02l1.73-5.26h1.2c-.73,2.01-1.46,4.14-2.2,6.03l-.56,1.4c-.66,1.63-1.05,1.68-1.9,1.68-.18,0-.46-.04-.65-.1v-.99c.21.06.37.11.74.11.48,0,.61-.38.77-.77l.3-.73-2.4-6.64h1.24Z"/>
      <path class="st6" d="M490.62,643.5c-1.94,0-3.02-1.55-3.02-3.41s1.14-3.41,3-3.41,3,1.56,3,3.41-1.09,3.41-2.99,3.41ZM492.49,640.13c0-1.29-.52-2.51-1.89-2.51-1.25,0-1.87,1.09-1.87,2.47,0,1.31.58,2.47,1.88,2.47s1.88-1.25,1.88-2.43Z"/>
      <path class="st6" d="M495.97,636.86v4.34c0,.84.42,1.37,1.25,1.37,1.14,0,1.78-.86,1.78-2.21v-3.5h1.09v6.46h-1.03v-.94l-.02-.03c-.48.77-1.03,1.15-2.05,1.15-1.27,0-2.1-.74-2.1-1.96v-4.68h1.09Z"/>
      <path class="st6" d="M505.02,637.84h-.42c-.77,0-1.64.52-1.64,1.79v3.7h-1.09v-6.46h1.03v1.08h.02c.43-.75.98-1.26,1.82-1.26.12,0,.22.01.28.04v1.12Z"/>
      <path class="st6" d="M510.39,636.86v7.54c0,1.05-.6,1.52-1.66,1.52-.15,0-.28-.01-.46-.04v-.94h.26c.63,0,.77-.11.77-.74v-7.34h1.09ZM510.39,634.45v1.24h-1.09v-1.24h1.09Z"/>
      <path class="st6" d="M514.67,643.5c-1.94,0-3.02-1.55-3.02-3.41s1.14-3.41,3-3.41,3,1.56,3,3.41-1.09,3.41-2.99,3.41ZM516.53,640.13c0-1.29-.52-2.51-1.89-2.51-1.25,0-1.87,1.09-1.87,2.47,0,1.31.58,2.47,1.88,2.47s1.88-1.25,1.88-2.43Z"/>
      <path class="st6" d="M520.02,636.86v4.34c0,.84.42,1.37,1.25,1.37,1.14,0,1.78-.86,1.78-2.21v-3.5h1.09v6.46h-1.03v-.94l-.02-.03c-.48.77-1.03,1.15-2.05,1.15-1.27,0-2.1-.74-2.1-1.96v-4.68h1.09Z"/>
      <path class="st6" d="M529.07,637.84h-.42c-.77,0-1.64.52-1.64,1.79v3.7h-1.09v-6.46h1.03v1.08h.02c.43-.75.98-1.26,1.82-1.26.12,0,.22.01.28.04v1.12Z"/>
      <path class="st6" d="M535.46,643.33h-1.09v-3.94c0-.96-.2-1.73-1.37-1.73-1.04,0-1.72.84-1.72,2.09v3.58h-1.09v-6.46h1.03v.91h.02c.59-.83,1.25-1.1,1.95-1.1,1.43,0,2.26.8,2.26,2.2v4.45Z"/>
      <path class="st6" d="M537.92,640.45c0,1.37.64,2.13,1.88,2.13.89,0,1.59-.64,1.67-1.27h1.09c-.11.54-.62,2.21-2.84,2.21-1.93,0-2.95-1.38-2.95-3.25,0-2.16,1.1-3.58,3.1-3.58,1.79,0,2.78,1.38,2.78,3.77h-4.72ZM541.52,639.58c-.1-1.32-.73-1.93-1.8-1.93-.95,0-1.78.87-1.79,1.93h3.6Z"/>
      <path class="st6" d="M544.27,636.86l1.72,5.26h.03l1.73-5.26h1.2c-.73,2.01-1.46,4.14-2.2,6.03l-.56,1.4c-.66,1.63-1.05,1.68-1.9,1.68-.19,0-.46-.04-.66-.1v-.99c.21.06.37.11.74.11.48,0,.6-.38.77-.77l.3-.73-2.4-6.64h1.24Z"/>
      <path class="st6" d="M554.65,635.06v1.8h1.04v.9h-1.04v4.23c0,.3.16.48.61.48h.43v.85c-.35.04-.56.09-.83.09-.94,0-1.3-.47-1.3-1.35v-4.3h-.88v-.9h.88v-1.8h1.09Z"/>
      <path class="st6" d="M559.4,643.5c-1.94,0-3.02-1.55-3.02-3.41s1.14-3.41,3-3.41,3,1.56,3,3.41-1.09,3.41-2.99,3.41ZM561.26,640.13c0-1.29-.52-2.51-1.89-2.51-1.25,0-1.87,1.09-1.87,2.47,0,1.31.58,2.47,1.88,2.47s1.88-1.25,1.88-2.43Z"/>
      <path class="st6" d="M568.4,635.06v1.8h1.04v.9h-1.04v4.23c0,.3.16.48.61.48h.43v.85c-.35.04-.56.09-.83.09-.94,0-1.3-.47-1.3-1.35v-4.3h-.88v-.9h.88v-1.8h1.09Z"/>
      <path class="st6" d="M573.8,637.84h-.42c-.77,0-1.64.52-1.64,1.79v3.7h-1.09v-6.46h1.03v1.08h.02c.43-.75.98-1.26,1.82-1.26.12,0,.22.01.28.04v1.12Z"/>
      <path class="st6" d="M577.26,643.5c-1.94,0-3.02-1.55-3.02-3.41s1.14-3.41,3-3.41,3,1.56,3,3.41-1.09,3.41-2.99,3.41ZM579.13,640.13c0-1.29-.52-2.51-1.89-2.51-1.25,0-1.87,1.09-1.87,2.47,0,1.31.58,2.47,1.88,2.47s1.88-1.25,1.88-2.43Z"/>
      <path class="st6" d="M587.08,639.88c0,1.97-.93,3.63-2.82,3.63-.9,0-1.45-.39-1.74-.87h-.03v3.24h-1.09v-9.02h1.03v.91h.02c.59-.85,1.17-1.1,1.93-1.1,1.67,0,2.69,1.36,2.69,3.2ZM584.21,642.57c1.08,0,1.74-.94,1.74-2.53,0-1.74-.69-2.39-1.78-2.39s-1.73.87-1.73,2.76c0,1.4.78,2.16,1.77,2.16Z"/>
      <path class="st6" d="M589.48,634.45v1.24h-1.09v-1.24h1.09ZM589.48,636.86v6.46h-1.09v-6.46h1.09Z"/>
      <path class="st6" d="M595.15,639.04c-.14-.88-.61-1.38-1.53-1.38-1.16,0-1.78.98-1.78,2.43,0,1.61.58,2.48,1.77,2.48.74,0,1.37-.54,1.55-1.53h1.05c-.18,1.52-1.12,2.47-2.63,2.47-1.78,0-2.89-1.33-2.89-3.25,0-2.09,1.04-3.58,3.1-3.58,1.38,0,2.3.88,2.42,2.36h-1.05Z"/>
      <path class="st6" d="M602.32,642.23c0,.2.1.36.36.36.1,0,.22-.01.36-.05v.79c-.22.07-.38.12-.61.12-.68,0-1.1-.25-1.14-.99-.73.83-1.56,1.05-2.32,1.05-1.2,0-2.04-.75-2.04-1.87s.64-1.87,1.95-2.03l1.8-.22c.39-.05.57-.26.57-.75,0-.7-.49-1.06-1.52-1.06-.88,0-1.37.36-1.48,1.25h-1c.03-1.37.89-2.15,2.61-2.15,1.35,0,2.46.54,2.46,1.82v3.73ZM601.24,641.09v-1.06c-.26.22-.96.28-1.95.43-.73.11-1.22.38-1.22,1.04s.33,1.11,1.17,1.11c1.03,0,2-.68,2-1.52Z"/>
      <path class="st6" d="M605.28,634.45v8.87h-1.09v-8.87h1.09Z"/>
      <path class="st6" d="M615.93,639.88c0,1.97-.93,3.63-2.82,3.63-.9,0-1.45-.39-1.74-.87h-.03v3.24h-1.09v-9.02h1.03v.91h.02c.59-.85,1.17-1.1,1.93-1.1,1.67,0,2.69,1.36,2.69,3.2ZM613.07,642.57c1.08,0,1.74-.94,1.74-2.53,0-1.74-.69-2.39-1.78-2.39s-1.73.87-1.73,2.76c0,1.4.78,2.16,1.77,2.16Z"/>
      <path class="st6" d="M622.25,642.23c0,.2.1.36.36.36.1,0,.22-.01.36-.05v.79c-.22.07-.38.12-.61.12-.68,0-1.1-.25-1.14-.99-.73.83-1.56,1.05-2.32,1.05-1.2,0-2.04-.75-2.04-1.87s.64-1.87,1.95-2.03l1.8-.22c.39-.05.57-.26.57-.75,0-.7-.49-1.06-1.52-1.06-.88,0-1.37.36-1.48,1.25h-1c.03-1.37.89-2.15,2.61-2.15,1.35,0,2.46.54,2.46,1.82v3.73ZM621.17,641.09v-1.06c-.26.22-.96.28-1.95.43-.73.11-1.22.38-1.22,1.04s.33,1.11,1.17,1.11c1.03,0,2-.68,2-1.52Z"/>
      <path class="st6" d="M627.4,637.84h-.42c-.77,0-1.64.52-1.64,1.79v3.7h-1.09v-6.46h1.02v1.08h.03c.43-.75.98-1.26,1.82-1.26.12,0,.22.01.28.04v1.12Z"/>
      <path class="st6" d="M633.12,642.23c0,.2.1.36.36.36.1,0,.22-.01.36-.05v.79c-.22.07-.38.12-.61.12-.68,0-1.1-.25-1.14-.99-.73.83-1.56,1.05-2.32,1.05-1.2,0-2.04-.75-2.04-1.87s.64-1.87,1.95-2.03l1.8-.22c.39-.05.57-.26.57-.75,0-.7-.49-1.06-1.52-1.06-.88,0-1.37.36-1.48,1.25h-1c.03-1.37.89-2.15,2.61-2.15,1.35,0,2.46.54,2.46,1.82v3.73ZM632.03,641.09v-1.06c-.26.22-.96.28-1.95.43-.73.11-1.22.38-1.22,1.04s.33,1.11,1.17,1.11c1.03,0,2-.68,2-1.52Z"/>
      <path class="st6" d="M640.33,634.45v8.87h-1.03v-.89h-.02c-.31.59-.88,1.08-1.87,1.08-1.88,0-2.82-1.63-2.82-3.61s1.08-3.23,2.69-3.23c.79,0,1.38.3,1.93,1.1h.02v-3.32h1.09ZM637.46,642.57c.99,0,1.77-.78,1.77-2.16,0-1.83-.56-2.76-1.76-2.76-.96,0-1.76.53-1.76,2.34,0,1.67.66,2.58,1.74,2.58Z"/>
      <path class="st6" d="M642.95,634.45v1.24h-1.09v-1.24h1.09ZM642.95,636.86v6.46h-1.09v-6.46h1.09Z"/>
      <path class="st6" d="M649.3,638.7h-1.05c0-.7-.53-1.09-1.5-1.09-.75,0-1.32.31-1.32.92,0,.43.21.63,1.06.84l1.25.31c1.24.31,1.77.79,1.77,1.69,0,1.27-1.04,2.14-2.57,2.14-1.74,0-2.73-.69-2.77-2.26h1.05c.05.98.7,1.32,1.71,1.32.9,0,1.5-.38,1.5-1.01s-.64-.77-1.36-.95l-1.12-.28c-.74-.19-1.56-.53-1.56-1.58,0-1.27.99-2.06,2.48-2.06s2.37.85,2.43,2.03Z"/>
      <path class="st6" d="M651.62,640.45c0,1.37.64,2.13,1.88,2.13.89,0,1.59-.64,1.67-1.27h1.09c-.11.54-.62,2.21-2.84,2.21-1.93,0-2.95-1.38-2.95-3.25,0-2.16,1.1-3.58,3.1-3.58,1.79,0,2.78,1.38,2.78,3.77h-4.72ZM655.22,639.58c-.1-1.32-.73-1.93-1.8-1.93-.95,0-1.78.87-1.79,1.93h3.6Z"/>
    </g>
    <circle class="st8" cx="582.44" cy="593.92" r="3.53"/>
  </g>
  </svg>