<?xml version="1.0" encoding="UTF-8"?>
<svg xmlns="http://www.w3.org/2000/svg" version="1.1" xmlns:xlink="http://www.w3.org/1999/xlink" viewBox="361 531 287 123">
  <!-- Generator: Adobe Illustrator 30.5.1, SVG Export Plug-In . SVG Version: 2.1.4 Build 3)  -->
  <defs>
    <style>
      .st0 {
        font-size: 35.66px;
      }

      .st1 {
        font-size: 34.16px;
      }

      .st1, .st2 {
        font-family: GamtanRoad-Tantan-KSCpc-EUC-H, 'GamtanRoad Tantan';
      }

      .st1, .st2, .st3, .st4, .st5, .st6, .st7 {
        fill: #063065;
      }

      .st2 {
        font-size: 28px;
      }

      .st8 {
        fill: #0091f8;
      }

      .st3 {
        font-size: 10.96px;
      }

      .st3, .st4, .st5, .st9, .st7 {
        font-family: HelveticaLTPro-Light, 'Helvetica LT Pro';
        font-weight: 300;
      }

      .st10 {
        font-family: ApparatSemiCond-Bold, ApparatSemiCond;
        font-weight: 700;
      }

      .st10, .st11, .st12 {
        fill: #fff;
      }

      .st13 {
        fill: #0592f8;
      }

      .st4 {
        font-size: 12.51px;
      }

      .st5 {
        font-size: 19px;
      }

      .st9 {
        font-size: 13.92px;
      }

      .st9, .st14 {
        fill: #2afffc;
      }

      .st15 {
        font-size: 28.49px;
      }

      .st12 {
        font-family: ApparatSemiCond-Regular, ApparatSemiCond;
        font-size: 7.95px;
      }

      .st16 {
        display: none;
      }

      .st7 {
        font-size: 11.25px;
      }
    </style>
    <path id="path" d="M658.7,151.24c0,57.14,46.32,103.47,103.47,103.47s103.47-46.32,103.47-103.47"/>
    <path id="path1" d="M671.33,145.95c0-48.38,40.7-87.59,90.9-87.59s90.9,39.22,90.9,87.59"/>
  </defs>
  <g id="Layer_4">
    <g>
      <g>
        <path class="st6" d="M367.27,619.78c-6.35-5.42-1.39-15.87,6.8-14.24,7.76,1.54,17.43.98,29.21-3.8,10.1-4.1,19.33-6.87,27.47-8.74,5.79-1.33,9.04,6.46,4.01,9.62-5.09,3.2-10.39,7.19-15.6,12.15-15.92,15.16-36.15,18.41-51.88,5Z"/>
        <path class="st8" d="M473.38,605.48c1.24-2.53-.36-5.55-3.14-5.95-7.01-1-20.21-.72-35.48,10.34-18.02,13.06-20.65,26.84-39.17,31.95-4.26,1.17-4.06,7.3.28,8.15,20.77,4.06,54.65,1.87,77.51-44.5Z"/>
        <circle class="st8" cx="440.31" cy="569.42" r="12.76"/>
        <g>
          <path class="st6" d="M392.5,564.47c.22-1.86-2.41-2.48-3.02-.71-6.69,19.25-16.04,50.48-6.56,51.2,12.41.94,5.64-16.55,9.58-50.5Z"/>
          <path class="st6" d="M417.72,559.51c-3.2-3.13-8.53-6.01-17.36-6.14,0,0,5.21-3.95,10.88-6.3,2.49-1.03,1.81-4.77-.88-4.8-3.4-.04-7.65,1.18-12.4,5.24.64-3.17.55-7.22-1.78-11.58-1.28-2.4-4.93-1.27-4.68,1.44.28,2.94.4,6.23.11,9.25-1.77-3.01-4.95-6.5-10.58-8-2.63-.7-4.29,2.74-2.14,4.4,3.28,2.53,6.88,5.75,8.99,9.03,0,0-10.85-5.05-20.23,1.2-2.21,1.47-.82,4.94,1.8,4.52,3.72-.6,8.63-.94,14.53-.38,0,0-5.05,2.72-8.43,7.96-1.66,2.57,1.9,5.28,3.95,3.02,2.93-3.25,7.01-6.61,12.54-9.06,0,0,7.38,6.8,11.27,14.46,1.25,2.46,5.02,1.31,4.69-1.42-.45-3.77-2.27-8.2-6.87-12.8,0,0,7.04,1.18,13.86,4,2.52,1.04,4.67-2.15,2.73-4.05Z"/>
        </g>
      </g>
      <g>
        <path class="st6" d="M495.73,551.62c7.13,0,11.36,2.95,11.36,8.9,0,4.13-1.97,6.88-5.65,7.62v.1c4.67.74,7.28,3.93,7.28,8.8,0,6.69-4.08,9.98-11.31,9.98h-14.7v-35.4h13.03ZM494.75,567.26c5.75,0,9-1.82,9-6.74,0-4.47-2.8-6.05-9.64-6.05h-8.06v12.78h8.7ZM494.95,584.17c8.26,0,10.42-1.87,10.42-7.13,0-4.92-2.7-6.93-10.13-6.93h-9.19v14.06h8.9Z"/>
        <path class="st6" d="M536.63,574.98h-19.76c0,6.24,3.44,10.08,8.55,10.08,3.93,0,6.88-2.26,7.72-5.85h3.29c-1.82,5.85-5.36,8.51-11.01,8.51-7.52,0-11.7-5.06-11.7-13.27s4.82-13.57,11.7-13.57,11.21,5.01,11.21,14.11ZM533.49,572.52c-.05-5.46-3.15-9-8.11-9-4.52,0-7.72,3.29-8.51,9h16.62Z"/>
        <path class="st6" d="M563.97,574.98h-19.76c0,6.24,3.44,10.08,8.55,10.08,3.93,0,6.88-2.26,7.72-5.85h3.29c-1.82,5.85-5.36,8.51-11.01,8.51-7.52,0-11.7-5.06-11.7-13.27s4.82-13.57,11.7-13.57,11.21,5.01,11.21,14.11ZM560.82,572.52c-.05-5.46-3.15-9-8.11-9-4.52,0-7.72,3.29-8.51,9h16.62Z"/>
        <path class="st6" d="M570.21,561.56l8.26,21.83,8.26-21.83h3.2l-9.88,25.47h-3.29l-9.73-25.47h3.2Z"/>
        <path class="st6" d="M613.91,568.59v14.26c0,1.38.29,2.16,1.28,2.16.44,0,1.03-.05,1.82-.39v2.31c-.64.2-1.57.49-2.46.49-2.46,0-3.49-1.08-3.54-3.93-2.51,2.8-5.8,4.23-9.49,4.23-4.92,0-8.51-2.8-8.51-7.33,0-4.23,2.56-6.88,9.88-7.82l2.75-.34c4.18-.54,5.31-.64,5.31-3.54,0-3.34-2.16-5.16-6.34-5.16-4.77,0-6.98,1.87-7.42,5.75h-3c.39-5.36,4.18-8.41,10.47-8.41s9.24,2.95,9.24,7.72ZM601.72,585.06c5.31,0,9.24-2.85,9.24-7.28v-4.13c-1.48.64-2.85,1.03-7.67,1.43-4.72.39-7.13,2.11-7.13,5.41,0,2.75,2.21,4.57,5.56,4.57Z"/>
        <path class="st6" d="M641.24,568.59v14.26c0,1.38.29,2.16,1.28,2.16.44,0,1.03-.05,1.82-.39v2.31c-.64.2-1.57.49-2.46.49-2.46,0-3.49-1.08-3.54-3.93-2.51,2.8-5.8,4.23-9.49,4.23-4.92,0-8.51-2.8-8.51-7.33,0-4.23,2.56-6.88,9.88-7.82l2.75-.34c4.18-.54,5.31-.64,5.31-3.54,0-3.34-2.16-5.16-6.34-5.16-4.77,0-6.98,1.87-7.42,5.75h-3c.39-5.36,4.18-8.41,10.47-8.41s9.24,2.95,9.24,7.72ZM629.05,585.06c5.31,0,9.24-2.85,9.24-7.28v-4.13c-1.47.64-2.85,1.03-7.67,1.43-4.72.39-7.13,2.11-7.13,5.41,0,2.75,2.21,4.57,5.56,4.57Z"/>
        <path class="st6" d="M498.32,607.41c1.45-2.24,3.26-3.34,5.58-3.34,4.52,0,7.27,2.95,7.27,6.87v14.57h-5.5v-12.84c0-2.83-1.3-3.97-3.02-3.97-2.79,0-3.69,1.92-3.69,4.24v12.57h-5.5v-12.96c0-2.87-1.1-3.85-3.3-3.85-2.32,0-3.42,1.53-3.42,3.93v12.88h-5.5v-20.9h5.26v3.06h.08c1.26-2.47,3.3-3.61,5.93-3.61s4.24.71,5.81,3.34Z"/>
        <path class="st6" d="M533.12,621.63c0,2.04.43,2.75,1.22,3.06v.82h-5.93c-.27-.82-.47-1.57-.51-2.47-2,2.16-4.08,3.02-6.76,3.02-3.81,0-6.36-2.36-6.36-6.09,0-2.71.98-5.93,6.56-6.76l3.93-.59c2.04-.31,2.47-.71,2.47-1.77,0-1.45-.9-2.4-3.61-2.4-2.04,0-3.18.9-3.38,2.91h-5.3c.43-4.4,2.51-7.31,9.19-7.31,5.38,0,8.48,2.28,8.48,5.89v11.67ZM527.74,617.93v-2.59c-.94.59-1.81.86-3.93,1.18-2.2.31-3.53,1.1-3.53,3.1,0,1.53,1.02,2.51,2.55,2.51,2.44,0,4.91-1.65,4.91-4.2Z"/>
        <path class="st6" d="M543.69,597.31v28.2h-5.5v-28.2h5.5Z"/>
        <path class="st6" d="M568.04,597.31v28.2h-5.38v-2.63h-.08c-1.37,2.36-3.73,3.18-6.05,3.18-5.54,0-8.8-4.6-8.8-11.23s3.61-10.76,8.68-10.76c2.71,0,4.75,1.18,6.05,3.26h.08v-10.02h5.5ZM562.77,615.54c0-4.2-1.57-6.72-4.75-6.72-2.95,0-4.63,2.32-4.63,6.36,0,3.61,1.69,6.36,4.52,6.36,3.02,0,4.87-2.36,4.87-6.01Z"/>
        <path class="st6" d="M578.6,604.62v20.9h-5.5v-20.9h5.5Z"/>
        <path class="st6" d="M587.95,604.62l4.32,15.4h.08l4.44-15.4h5.85l-7.54,20.9h-5.77l-7.5-20.9h6.13Z"/>
        <path class="st6" d="M623.89,616.56h-14.34c.2,3.42,1.81,5.11,4.91,5.11,1.53,0,3.1-.75,3.53-2.28h5.66c-1.22,4.24-4.67,6.68-9.19,6.68-6.91,0-10.41-3.89-10.41-11.39,0-6.17,3.5-10.6,9.98-10.6,5.22,0,9.86,2.98,9.86,11.51v.98ZM618.23,612.99c-.27-2.75-1.89-4.4-4.28-4.4-2.51,0-3.93,1.53-4.24,4.4h8.52Z"/>
        <path class="st6" d="M644.74,610.98h-5.38c-.31-2.08-1.53-2.75-3.73-2.75-2.08,0-3.34.51-3.34,2.04,0,1.41,2.67,1.89,5.3,2.4,6.05,1.14,7.78,3.22,7.78,6.17,0,5.11-4.16,7.23-9.27,7.23-6.17,0-9.94-2.79-9.94-7.23h5.66c0,1.69,1.02,3.06,4.52,3.06,2.2,0,3.53-.9,3.53-2.16,0-1.38-1.85-1.85-5.66-2.55-4.87-.86-7.31-2.71-7.31-6.13,0-4.12,3.06-6.99,8.44-6.99,6.28,0,9.15,2.67,9.39,6.91Z"/>
      </g>
      <text class="st3" transform="translate(481.24 642.99)"><tspan x="0" y="0">your journey to tropical paradise</tspan></text>
      <circle class="st8" cx="575.85" cy="597.31" r="3.53"/>
    </g>
  </g>
</svg>