<svg xmlns="http://www.w3.org/2000/svg" viewBox="0 0 800 600">
  <defs>
    <linearGradient id="sky" x1="0" y1="0" x2="0" y2="1">
      <stop offset="0" stop-color="#fbcfe8"/><stop offset="1" stop-color="#f472b6"/>
    </linearGradient>
    <linearGradient id="sea" x1="0" y1="0" x2="0" y2="1">
      <stop offset="0" stop-color="#5eead4"/><stop offset="1" stop-color="#0d9488"/>
    </linearGradient>
  </defs>
  <rect width="800" height="340" fill="url(#sky)"/>
  <circle cx="520" cy="120" r="52" fill="#fff1f2" opacity="0.9"/>
  <ellipse cx="400" cy="330" rx="190" ry="26" fill="#115e59" opacity="0.55"/>
  <g transform="translate(380,250)" fill="#134e4a" opacity="0.7">
    <rect x="-4" y="30" width="8" height="56" rx="3"/>
    <path d="M0 34 C -50 10 -70 18 -88 34 C -52 26 -20 30 0 38 Z"/>
    <path d="M0 34 C 50 10 70 18 88 34 C 52 26 20 30 0 38 Z"/>
    <path d="M0 32 C -30 -6 -10 -16 4 -22 C -6 -2 -2 16 2 34 Z"/>
  </g>
  <rect y="340" width="800" height="260" fill="url(#sea)"/>
  <path d="M0 380 Q 100 368 200 380 T 400 380 T 600 380 T 800 380" stroke="#ffffff" stroke-width="5" fill="none" opacity="0.5"/>
  <path d="M0 440 Q 100 428 200 440 T 400 440 T 600 440 T 800 440" stroke="#ffffff" stroke-width="4" fill="none" opacity="0.35"/>
  <path d="M0 600 L 0 520 Q 200 488 420 530 Q 640 572 800 540 L 800 600 Z" fill="#fce7f3" opacity="0.95"/>
</svg>