<svg xmlns="http://www.w3.org/2000/svg" viewBox="0 0 800 600">
  <defs>
    <linearGradient id="wall" x1="0" y1="0" x2="0" y2="1">
      <stop offset="0" stop-color="#eff6ff"/><stop offset="1" stop-color="#dbeafe"/>
    </linearGradient>
  </defs>
  <rect width="800" height="430" fill="url(#wall)"/>
  <rect y="430" width="800" height="170" fill="#e2e8f0"/>
  <rect x="90" y="90" width="200" height="150" rx="8" fill="#7dd3fc" stroke="#ffffff" stroke-width="10"/>
  <path d="M90 200 Q 140 170 190 200 T 290 200 L 290 240 L 90 240 Z" fill="#0ea5e9" opacity="0.7"/>
  <circle cx="150" cy="130" r="18" fill="#fef08a"/>
  <rect x="360" y="250" width="360" height="180" rx="14" fill="#1d4ed8"/>
  <rect x="360" y="250" width="360" height="70" rx="14" fill="#f8fafc"/>
  <rect x="385" y="225" width="120" height="46" rx="10" fill="#f8fafc" stroke="#e2e8f0" stroke-width="3"/>
  <rect x="520" y="225" width="120" height="46" rx="10" fill="#f8fafc" stroke="#e2e8f0" stroke-width="3"/>
  <rect x="350" y="430" width="380" height="16" rx="6" fill="#a8a29e"/>
  <rect x="640" y="330" width="14" height="60" fill="#10b981"/>
  <circle cx="647" cy="318" r="22" fill="#10b981" opacity="0.85"/>
</svg>